<svg width="78" height="78" viewBox="0 0 78 78" fill="none" xmlns="http://www.w3.org/2000/svg">
<path d="M39 78C17.4951 78 0 60.5049 0 39C0 17.4951 17.4951 0 39 0C60.5049 0 78 17.4951 78 39C78 60.5049 60.5049 78 39 78ZM39 5.57126C20.5676 5.57126 5.57126 20.5676 5.57126 39C5.57126 57.4324 20.5676 72.4287 39 72.4287C57.4324 72.4287 72.4287 57.4324 72.4287 39C72.4287 20.5676 57.4324 5.57126 39 5.57126Z" fill="#D1C396"/>
<path d="M52.9287 55.7144C52.2158 55.7144 51.5029 55.4424 50.959 54.8979L23.1021 27.041C22.0137 25.9526 22.0137 24.1899 23.1021 23.1021C24.1899 22.0143 25.9532 22.0137 27.041 23.1021L54.8979 50.959C55.9863 52.0474 55.9863 53.8101 54.8979 54.8979C54.354 55.4424 53.6417 55.7144 52.9287 55.7144Z" fill="#D1C396"/>
<path d="M25.0713 55.7144C24.3583 55.7144 23.646 55.4424 23.1021 54.8979C22.0137 53.8101 22.0137 52.0468 23.1021 50.959L50.959 23.1021C52.0474 22.0137 53.8101 22.0137 54.8979 23.1021C55.9857 24.1899 55.9863 25.9532 54.8979 27.041L27.041 54.8979C26.4971 55.4424 25.7842 55.7144 25.0713 55.7144Z" fill="#D1C396"/>
</svg>
