<svg width="6" height="13" viewBox="0 0 6 13" fill="none" xmlns="http://www.w3.org/2000/svg">
<path d="M5.82036 11.5971L5.63062 12.3396C5.0614 12.5547 4.60671 12.7184 4.26812 12.8309C3.92917 12.9438 3.53533 13 3.08659 13C2.39749 13 1.8615 12.8384 1.47922 12.5174C1.09694 12.1951 0.905739 11.7868 0.905739 11.2914C0.905739 11.0996 0.919613 10.9023 0.948457 10.7013C0.977545 10.5001 1.02379 10.2735 1.08708 10.0202L1.79845 7.60983C1.86174 7.37902 1.91554 7.16033 1.95862 6.95352C2.00231 6.74799 2.02337 6.5589 2.02337 6.38867C2.02337 6.08085 1.95679 5.86554 1.82426 5.74448C1.69172 5.62378 1.43881 5.56249 1.06335 5.56249C0.87945 5.56249 0.69044 5.59069 0.497779 5.64521C0.304266 5.69997 0.138867 5.75287 0 5.80204L0.190227 5.05893C0.65624 4.87729 1.10169 4.72174 1.52778 4.59265C1.95387 4.4632 2.35648 4.39842 2.7373 4.39842C3.42165 4.39842 3.94973 4.55676 4.32057 4.87344C4.69141 5.19035 4.87677 5.60117 4.87677 6.10741C4.87677 6.21216 4.8646 6.39671 4.83843 6.66049C4.81288 6.92486 4.76529 7.16709 4.69592 7.38741L3.98759 9.78813C3.92953 9.98096 3.87732 10.2014 3.83192 10.4494C3.78507 10.6959 3.76267 10.8842 3.76267 11.0104C3.76267 11.3292 3.83691 11.5469 3.98576 11.6626C4.1357 11.7783 4.39396 11.8358 4.76079 11.8358C4.933 11.8358 5.12895 11.8066 5.34668 11.7491C5.5638 11.6917 5.72214 11.6412 5.82036 11.5971ZM6 1.51814C6 1.93642 5.83533 2.29364 5.50441 2.58737C5.17434 2.88214 4.77661 3.02965 4.31133 3.02965C3.84458 3.02965 3.44587 2.88214 3.11203 2.58737C2.7788 2.29353 2.61182 1.93642 2.61182 1.51814C2.61182 1.10068 2.7788 0.742877 3.11203 0.445423C3.44526 0.148436 3.8447 0 4.31133 0C4.77649 0 5.17434 0.148785 5.50441 0.445423C5.83557 0.742877 6 1.1008 6 1.51814Z" fill="white"/>
</svg>
