<svg width="140" height="136" viewBox="0 0 140 136" fill="currentColor" xmlns="http://www.w3.org/2000/svg">
<path fill-rule="evenodd" clip-rule="evenodd" d="M10.5279 114.316V110.504C10.5279 110.289 10.4558 110.109 10.2035 110.109H4.93948C4.6871 110.109 4.61499 110.289 4.61499 110.504V114.748C4.61499 114.892 4.65104 114.892 4.72315 114.999C7.64358 117.517 10.8524 120.034 13.7007 122.623C14.6742 123.486 15.1429 124.745 15.1429 126.039V131.002C15.1429 133.663 12.7994 136 10.2035 136H4.93948C2.23539 136 0 133.77 0 131.074V126.399C0 126.183 0.180273 126.039 0.360546 126.039H4.25444C4.47077 126.039 4.61499 126.219 4.61499 126.399V130.966C4.61499 131.181 4.6871 131.361 4.93948 131.361H10.2035C10.4558 131.361 10.5279 131.181 10.5279 130.966V126.039C10.5279 125.895 10.4919 125.895 10.4198 125.787C7.49936 123.306 4.21839 120.753 1.44218 118.164C0.504764 117.265 0 116.042 0 114.748V110.469C0 107.808 2.3796 105.47 4.93948 105.47H10.2035C12.9075 105.47 15.1429 107.664 15.1429 110.397V114.28C15.1429 114.496 14.9627 114.64 14.7824 114.64H10.8885C10.7082 114.676 10.5279 114.496 10.5279 114.316ZM18.3518 135.568C18.3518 135.784 18.496 135.964 18.7123 135.964H22.6062C22.8226 135.964 22.9668 135.784 22.9668 135.604V126.111C22.9668 125.931 23.0028 125.859 23.0749 125.823L32.0525 118.2C33.026 117.373 33.4947 116.078 33.4947 114.784V110.504C33.4947 107.843 31.1151 105.506 28.5552 105.506H23.2913C20.5872 105.506 18.3518 107.7 18.3518 110.433V135.568ZM22.9668 110.504C22.9668 110.289 23.0389 110.109 23.2913 110.109H28.5552C28.8076 110.109 28.8797 110.289 28.8797 110.504V114.748C28.8797 114.892 28.8437 114.892 28.7716 114.999L22.9668 119.854V110.504ZM41.3186 110.469C41.3186 110.145 41.2104 110.073 40.922 110.073H35.658C35.4417 110.073 35.2975 109.893 35.2975 109.713V105.866C35.2975 105.65 35.4777 105.506 35.658 105.506H40.922C43.4458 105.506 45.9336 107.951 45.9336 110.469V131.038C45.9336 133.77 43.6982 135.964 40.9941 135.964H35.6941C33.1342 135.964 30.7546 133.663 30.7546 130.966V126.686C30.7546 125.392 31.1872 124.097 32.1968 123.27L41.2104 115.647C41.2825 115.611 41.3186 115.467 41.3186 115.359V110.469ZM41.2825 131.002C41.2825 131.217 41.2104 131.397 40.958 131.397H35.6941C35.4417 131.397 35.3696 131.217 35.3696 131.002V126.758C35.3696 126.614 35.4056 126.614 35.4777 126.507L41.3186 121.688L41.2825 131.002ZM60.8962 119.998L63.3119 122.767C64.1411 123.738 64.8262 124.996 64.8262 126.255V135.604C64.8262 135.82 64.6459 135.964 64.4656 135.964H60.5717C60.3554 135.964 60.2112 135.784 60.2112 135.604V126.399C60.2112 126.183 60.1391 126.075 60.067 126.003L57.3989 122.983L54.0458 125.823C53.9737 125.859 53.9377 125.931 53.9377 126.111V135.604C53.9377 135.82 53.7574 135.964 53.5771 135.964H49.6832C49.4669 135.964 49.3227 135.784 49.3227 135.568V110.433C49.3227 107.7 51.5581 105.506 54.2622 105.506H59.4901C62.05 105.506 64.4296 107.807 64.4296 110.504V114.784C64.4296 116.078 63.9969 117.373 62.9874 118.2L60.8962 119.998ZM53.9016 110.504C53.9016 110.289 53.9737 110.109 54.2261 110.109H59.4901C59.7425 110.109 59.8146 110.289 59.8146 110.504V114.748C59.8146 114.892 59.7785 114.892 59.7064 114.999L53.9016 119.854V110.504ZM84.7644 135.604C84.7644 135.82 84.5841 135.964 84.4038 135.964H80.5099C80.2936 135.964 80.1494 135.784 80.1494 135.604V105.866C80.1494 105.65 80.3297 105.506 80.5099 105.506H84.4038C84.6201 105.506 84.7644 105.686 84.7644 105.866V135.604ZM98.6814 114.316V110.504C98.6814 110.289 98.6093 110.109 98.3569 110.109H93.093C92.8406 110.109 92.7685 110.289 92.7685 110.504V114.748C92.7685 114.892 92.8045 114.892 92.8766 114.999C95.7971 117.517 99.0059 120.034 101.854 122.623C102.828 123.486 103.296 124.745 103.296 126.039V131.002C103.296 133.663 100.953 136 98.3569 136H93.093C90.3889 136 88.1535 133.806 88.1535 131.074V126.399C88.1535 126.183 88.3338 126.039 88.514 126.039H92.4079C92.6243 126.039 92.7685 126.219 92.7685 126.399V130.966C92.7685 131.181 92.8406 131.361 93.093 131.361H98.3569C98.6093 131.361 98.6814 131.181 98.6814 130.966V126.039C98.6814 125.895 98.6454 125.895 98.5733 125.787C95.6528 123.306 92.3719 120.753 89.5957 118.164C88.6583 117.265 88.1535 116.042 88.1535 114.748V110.469C88.1535 107.808 90.5331 105.47 93.093 105.47H98.3569C101.061 105.47 103.296 107.664 103.296 110.397V114.28C103.296 114.496 103.116 114.64 102.936 114.64H99.042C98.8617 114.676 98.6814 114.496 98.6814 114.316ZM111.012 114.316V110.504C111.012 110.289 111.084 110.109 111.337 110.109H116.528C116.853 110.109 116.925 110.181 116.925 110.504V115.395C116.925 115.503 116.889 115.647 116.817 115.683L107.803 123.306C106.83 124.133 106.361 125.428 106.361 126.722V131.002C106.361 133.699 108.741 136 111.301 136H116.565C119.269 136 121.504 133.806 121.504 131.074V110.504C121.504 107.987 119.016 105.542 116.492 105.542H111.301C108.596 105.542 106.361 107.736 106.361 110.433V114.316C106.361 114.532 106.541 114.676 106.722 114.676H110.616C110.868 114.676 111.012 114.496 111.012 114.316ZM116.925 131.002C116.925 131.217 116.853 131.397 116.601 131.397H111.337C111.084 131.397 111.012 131.217 111.012 131.002V126.758C111.012 126.614 111.048 126.614 111.12 126.507L116.961 121.688L116.925 131.002ZM129.472 135.604C129.472 135.82 129.292 135.964 129.112 135.964H125.218C125.001 135.964 124.857 135.784 124.857 135.604V105.866C124.857 105.65 125.037 105.506 125.218 105.506H129.112C129.328 105.506 129.472 105.686 129.472 105.866V108.814L131.311 107.268C132.645 106.153 133.979 105.47 135.349 105.506C137.837 105.542 140 107.484 140 110.289V135.604C140 135.82 139.82 135.964 139.639 135.964H135.746C135.529 135.964 135.385 135.784 135.385 135.604V110.469C135.385 110.145 135.097 110.037 134.844 110.253L129.472 114.964V135.604ZM74.2725 110.073V135.604C74.2725 135.82 74.0922 135.964 73.9119 135.964H70.018C69.8017 135.964 69.6575 135.784 69.6575 135.604V110.073H66.4847C66.2683 110.073 66.1241 109.893 66.1241 109.713V105.866C66.1241 105.65 66.3044 105.506 66.4847 105.506H77.3371C77.5534 105.506 77.6977 105.686 77.6977 105.866V109.713C77.6977 109.929 77.5174 110.073 77.3371 110.073H74.2725ZM138.558 90.4749C138.558 91.1581 138.269 91.3739 137.765 91.3739H137.26V92.5605H137.693C138.305 92.5605 138.558 92.8482 138.558 93.6393V94.2866C138.558 95.0418 138.305 95.2216 137.873 95.2216C137.44 95.2216 137.188 95.0058 137.188 94.3945V93.6034H135.926V94.2866C135.926 95.6171 136.611 96.4082 137.909 96.4082C139.207 96.4082 139.892 95.6531 139.892 94.2866V93.6393C139.892 92.7763 139.639 92.165 138.954 91.8773C139.603 91.6256 139.892 91.0502 139.892 90.1512V89.9355C139.892 88.605 139.207 87.8139 137.909 87.8139C136.611 87.8139 135.926 88.569 135.926 89.9355V90.403H137.188V89.8995C137.188 89.2882 137.44 89.0724 137.873 89.0724C138.305 89.0724 138.558 89.2882 138.558 90.0434V90.4749ZM133.546 90.0074C133.546 92.4527 130.914 92.8482 130.914 95.3295V96.3723H134.736V95.1856H132.212C132.212 95.1137 132.212 95.0777 132.212 95.0058C132.212 93.6393 134.844 92.6325 134.844 90.0074C134.844 88.6769 134.159 87.8858 132.861 87.8858C131.563 87.8858 130.878 88.6409 130.878 90.0074V90.8345H132.14V89.8995C132.14 89.2882 132.392 89.0724 132.825 89.0724C133.294 89.0724 133.546 89.2522 133.546 90.0074ZM125.722 94.3585C125.722 95.689 126.443 96.4802 127.741 96.4802C129.039 96.4802 129.76 95.725 129.76 94.3585V89.9714C129.76 88.6409 129.039 87.8498 127.741 87.8498C126.443 87.8498 125.722 88.605 125.722 89.9714V94.3585ZM127.056 89.8995C127.056 89.2882 127.309 89.0724 127.741 89.0724C128.174 89.0724 128.426 89.2882 128.426 89.8995V94.4305C128.426 95.0418 128.174 95.2575 127.741 95.2575C127.309 95.2575 127.056 95.0418 127.056 94.4305V89.8995ZM123.379 90.0074C123.379 92.4527 120.747 92.8482 120.747 95.3295V96.3723H124.569V95.1856H122.045C122.045 95.1137 122.045 95.0777 122.045 95.0058C122.045 93.6393 124.677 92.6325 124.677 90.0074C124.677 88.6769 123.992 87.8858 122.694 87.8858C121.396 87.8858 120.711 88.6409 120.711 90.0074V90.8345H121.973V89.8995C121.973 89.2882 122.225 89.0724 122.658 89.0724C123.126 89.0724 123.379 89.2522 123.379 90.0074ZM9.30209 89.1444H10.6722V96.3723H12.0062V89.1444H13.3763V87.9577H9.30209V89.1444ZM4.6871 89.9714C4.6871 92.3807 7.28303 92.7044 7.28303 94.4305C7.28303 95.0418 7.03065 95.2575 6.59799 95.2575C6.16534 95.2575 5.91295 95.0418 5.91295 94.4305V93.8191H4.65104V94.3226C4.65104 95.6531 5.33608 96.4442 6.63405 96.4442C7.93201 96.4442 8.61705 95.689 8.61705 94.3226C8.61705 91.9133 6.02112 91.5896 6.02112 89.8636C6.02112 89.2522 6.2735 89.0365 6.6701 89.0365C7.10276 89.0365 7.31908 89.2522 7.31908 89.8636V90.2232H8.58099V89.9714C8.58099 88.6409 7.93201 87.8498 6.63405 87.8498C5.37214 87.8498 4.6871 88.6409 4.6871 89.9714ZM1.44218 89.1444H3.71362V87.9577H0.108164V96.3723H3.71362V95.1856H1.44218V92.7044H3.24491V91.5177H1.44218V89.1444ZM137.476 68.2517L135.782 68.2158V68.5034C135.782 68.7911 135.782 69.0069 135.818 69.1867C135.854 69.3665 135.926 69.5103 136.034 69.6182C136.142 69.7261 136.322 69.798 136.611 69.798C136.863 69.798 137.08 69.762 137.224 69.6541C137.368 69.5463 137.44 69.4024 137.476 69.2586C137.512 69.0788 137.548 68.863 137.548 68.5753L137.476 68.2517ZM132.104 66.3458L138.918 66.5256L138.846 69.2226C138.846 69.7261 138.738 70.1576 138.558 70.5172C138.378 70.8768 138.125 71.1645 137.801 71.3443C137.476 71.5241 137.044 71.6319 136.539 71.6319C136.142 71.6319 135.782 71.56 135.493 71.4521C135.205 71.3443 134.952 71.1645 134.772 70.9847C134.592 70.7689 134.448 70.5172 134.376 70.2295C134.303 69.9418 134.267 69.5822 134.267 69.1867L134.303 68.1798L132.032 68.1079L132.104 66.3458ZM136.178 55.7737C136.106 55.45 135.962 55.1264 135.746 54.8747C135.529 54.6229 135.277 54.4072 134.952 54.2993C134.664 54.1914 134.339 54.1555 134.051 54.1914C133.654 54.2633 133.33 54.4072 133.078 54.6229C132.789 54.8387 132.609 55.1264 132.501 55.45C132.392 55.7737 132.356 56.0973 132.429 56.4569C132.501 56.8165 132.645 57.1042 132.861 57.3559C133.078 57.6076 133.366 57.7874 133.69 57.9313C134.015 58.0391 134.375 58.0751 134.772 58.0032C135.061 57.9313 135.349 57.8234 135.601 57.6076C135.854 57.3918 136.034 57.1042 136.142 56.7805C136.214 56.4569 136.25 56.0973 136.178 55.7737ZM137.873 55.486C137.945 55.9535 137.945 56.4569 137.873 56.9244C137.801 57.3919 137.62 57.8593 137.368 58.2549C137.116 58.6504 136.791 59.01 136.395 59.2618C135.998 59.5494 135.565 59.7292 135.061 59.8012C134.52 59.909 134.015 59.909 133.51 59.8012C133.005 59.6933 132.573 59.5135 132.176 59.2258C131.78 58.9381 131.455 58.6145 131.203 58.183C130.95 57.7514 130.77 57.284 130.662 56.7446C130.554 56.2052 130.554 55.7017 130.662 55.2343C130.77 54.7668 130.95 54.2993 131.239 53.9037C131.527 53.5082 131.852 53.1846 132.284 52.9328C132.717 52.6811 133.186 52.5013 133.727 52.3934C134.231 52.3215 134.7 52.3215 135.169 52.4654C135.637 52.5732 136.034 52.789 136.431 53.0767C136.791 53.3644 137.116 53.724 137.368 54.1555C137.62 54.551 137.801 54.9825 137.873 55.486ZM130.409 41.5336L131.455 43.871L133.871 42.7922L134.592 44.4104L128.354 47.2152L127.633 45.597L130.193 44.4463L129.148 42.1089L126.588 43.2596L125.867 41.6415L132.104 38.8366L132.825 40.4548L130.409 41.5336ZM128.246 32.6515L126.696 32.7953C126.768 32.3279 126.66 31.9323 126.443 31.5727C126.335 31.4289 126.191 31.285 126.047 31.2131C125.867 31.1412 125.722 31.1412 125.578 31.2491C125.434 31.357 125.362 31.4648 125.362 31.6446C125.362 31.8244 125.398 32.0042 125.47 32.2559L125.614 32.7234C125.758 33.2628 125.795 33.7303 125.722 34.1259C125.65 34.5214 125.398 34.881 124.965 35.1327C124.28 35.5642 123.631 35.7081 123.054 35.5283C122.405 35.3485 121.901 34.917 121.468 34.2337C120.999 33.5145 120.783 32.6875 120.819 31.7885L122.441 31.6446C122.333 32.3638 122.405 32.9032 122.694 33.3347C122.802 33.5145 122.982 33.6584 123.163 33.7303C123.343 33.8022 123.559 33.8022 123.739 33.6584C123.92 33.5505 123.992 33.3707 123.992 33.1549C123.956 32.9392 123.92 32.6515 123.811 32.3279C123.667 31.8963 123.595 31.5368 123.559 31.2491C123.523 30.9614 123.595 30.7097 123.703 30.458C123.848 30.2062 124.064 29.9545 124.424 29.7388C124.821 29.487 125.182 29.3792 125.614 29.3432C126.011 29.3072 126.407 29.4151 126.732 29.6309C127.092 29.8107 127.381 30.1343 127.633 30.4939C127.814 30.7816 127.994 31.1412 128.102 31.5008C128.174 31.9323 128.246 32.2919 128.246 32.6515ZM116.673 21.8995L120.206 21.504L121.72 23.0862L117.502 23.3739L116.961 27.9767L115.375 26.3226L115.952 22.6187L113.824 24.6684L112.599 23.3739L117.538 18.6631L118.764 19.9577L116.673 21.8995ZM108.128 13.0175L107.154 14.3839L107.298 14.4918C107.479 14.6356 107.659 14.7435 107.839 14.7795C108.02 14.8514 108.164 14.8514 108.344 14.8154C108.524 14.7795 108.669 14.6716 108.813 14.4918C108.957 14.312 108.993 14.1322 108.993 13.9524C108.957 13.7726 108.885 13.6288 108.777 13.4849C108.669 13.3411 108.488 13.1972 108.308 13.0894L108.128 13.0175ZM108.02 16.1819L108.164 19.706L106.361 18.4114L106.505 15.3189L104.991 17.4405L103.549 16.3977L107.515 10.8599L109.678 12.4061C110.039 12.6579 110.327 12.9815 110.543 13.3051C110.76 13.6288 110.832 13.9884 110.832 14.348C110.832 14.7076 110.652 15.1031 110.399 15.4627C110.219 15.7144 110.003 15.9302 109.75 16.074C109.498 16.2179 109.245 16.3258 108.957 16.3258C108.596 16.3977 108.308 16.3258 108.02 16.1819ZM97.0229 7.01216C96.6984 6.86832 96.3739 6.83236 96.0495 6.83236C95.725 6.86832 95.4005 6.9762 95.112 7.156C94.8236 7.3358 94.6433 7.58752 94.4991 7.83924C94.3549 8.19884 94.2828 8.52247 94.3188 8.88207C94.3549 9.24167 94.4631 9.56531 94.6433 9.81703C94.8236 10.1047 95.112 10.3205 95.4005 10.4643C95.725 10.6081 96.0494 10.6441 96.3739 10.6081C96.6984 10.5722 97.0229 10.4283 97.3114 10.2485C97.5998 10.0328 97.8161 9.74511 97.9604 9.42147C98.1046 9.13379 98.1406 8.84611 98.0685 8.52247C98.0325 8.19884 97.8882 7.91116 97.708 7.62348C97.5998 7.37176 97.3474 7.156 97.0229 7.01216ZM97.744 5.46589C98.1767 5.68165 98.5733 5.93337 98.9338 6.29297C99.2944 6.65256 99.5468 7.01216 99.727 7.44368C99.9073 7.8752 100.015 8.34268 100.015 8.81015C100.015 9.27763 99.9073 9.74511 99.727 10.2126C99.5107 10.716 99.2223 11.1116 98.8617 11.4712C98.5012 11.8308 98.1046 12.0825 97.6358 12.2263C97.1671 12.4061 96.6984 12.4781 96.2297 12.4421C95.725 12.4061 95.2562 12.2983 94.7515 12.0825C94.2467 11.8667 93.8501 11.5791 93.4896 11.2195C93.129 10.8599 92.8766 10.4643 92.6964 9.99683C92.5161 9.52935 92.444 9.06187 92.48 8.59439C92.5161 8.09096 92.6243 7.58752 92.8406 7.12004C93.0569 6.65256 93.3454 6.29297 93.7059 5.96933C94.0664 5.64569 94.463 5.42993 94.9318 5.28609C95.4005 5.14225 95.8692 5.10629 96.3379 5.10629C96.8427 5.14225 97.3114 5.25013 97.744 5.46589ZM79.1038 0.467477L79.5004 4.99841L81.6997 0.934955L83.1059 1.18667L83.6467 5.75357L85.7018 1.65415L87.5045 1.97779L84.1514 8.30672L82.3848 7.98308L81.916 3.88366H81.88L79.8609 7.55156L78.0943 7.22792L77.3011 0.179799L79.1038 0.467477ZM61.1486 3.16446L63.7085 2.84082L63.384 0.215759L65.1507 0L66.016 6.76044L64.2493 6.9762L63.8887 4.2073L61.3289 4.53094L61.6894 7.29984L59.9227 7.5156L59.0574 0.755156L60.8241 0.539397L61.1486 3.16446ZM51.3057 4.13538L52.7479 9.24167L51.0533 9.70915L49.6111 4.60286L48.205 4.99841L47.8084 3.56002L52.2792 2.26547L52.6758 3.70386L51.3057 4.13538ZM41.1383 11.0756L39.5158 9.45743L39.8403 11.7229L41.1383 11.0756ZM42.1839 12.0465L40.0206 13.1613L40.1288 14.4199L38.4342 15.2829L37.641 8.01904L39.3716 7.12004L44.7798 12.0106L43.0852 12.8736L42.1839 12.0465ZM27.7981 16.2179L28.6274 17.2607L28.7716 17.1528C28.9879 16.973 29.1682 16.7932 29.2403 16.6134C29.3124 16.4336 29.2763 16.2538 29.1321 16.0381C28.9518 15.8223 28.7716 15.7504 28.5913 15.7864C28.411 15.8223 28.1586 15.9662 27.9063 16.146L27.7981 16.2179ZM31.9444 19.9217L29.7811 21.6118L25.5627 16.2538L27.5457 14.7076C28.5913 13.8805 29.4927 13.9164 30.2498 14.8514C30.6825 15.3908 30.7546 15.8942 30.5382 16.3977C30.9348 16.146 31.3314 16.074 31.692 16.1819C32.0525 16.2898 32.377 16.5056 32.7015 16.9011C33.0981 17.4045 33.2063 17.9439 33.026 18.4833C32.8818 18.9868 32.4852 19.4902 31.9444 19.9217ZM29.4566 18.3035L30.358 19.4543L30.5382 19.3104C30.8988 19.0227 31.1151 18.807 31.2593 18.5553C31.4036 18.3395 31.3675 18.0878 31.1872 17.872C31.007 17.6203 30.7906 17.5484 30.5743 17.5843C30.358 17.6563 30.1056 17.7641 29.8172 17.9799L29.5648 18.1597L29.4566 18.3035ZM21.164 30.6378L20.2987 30.7456C20.2627 31.7165 20.0464 32.5077 19.6137 33.119C19.3974 33.4426 19.1089 33.6943 18.7844 33.8741C18.46 34.0539 18.1355 34.1259 17.7749 34.1259C17.4144 34.1259 17.0899 33.982 16.7654 33.7663C16.3688 33.4786 16.1525 33.1549 16.0443 32.7953C15.9361 32.4357 15.9722 31.9683 16.0804 31.4648L16.1164 31.285H15.864C15.6838 31.285 15.5395 31.285 15.4314 31.285C15.3232 31.285 15.179 31.2491 15.0348 31.2131C14.8905 31.1772 14.7463 31.1052 14.6021 30.9974C14.2776 30.7816 14.0973 30.4939 13.9531 30.1703C13.845 29.8466 13.8089 29.523 13.881 29.1634C13.9531 28.8038 14.0973 28.4802 14.3137 28.1925C14.53 27.9048 14.7824 27.6531 15.1069 27.4733C15.4314 27.2935 15.7559 27.2216 16.0804 27.2216C16.4409 27.2216 16.7654 27.3295 17.0538 27.5452C17.3783 27.761 17.5586 28.0487 17.6307 28.3723C17.7028 28.6959 17.7028 29.0915 17.6307 29.523L18.8566 29.3432C18.8205 28.8038 18.7484 28.4082 18.6042 28.0486L19.9742 27.7969L20.2266 29.0196L20.2627 29.1274L22.462 28.8038L21.164 30.6378ZM16.5491 29.6668C16.5851 29.4511 16.5491 29.2713 16.513 29.0915C16.477 28.9117 16.3688 28.7678 16.2246 28.66C16.0804 28.5521 15.9361 28.5161 15.7559 28.5521C15.5756 28.5521 15.4674 28.66 15.3593 28.8038C15.2511 28.9476 15.215 29.0915 15.2511 29.2353C15.2871 29.3792 15.3593 29.523 15.4674 29.5949C15.5756 29.6668 15.7198 29.7388 15.864 29.7388C16.0443 29.7028 16.2606 29.7028 16.5491 29.6668ZM18.8926 30.9254L17.3062 31.1052C17.3062 31.321 17.3062 31.5367 17.3423 31.7165C17.3783 31.8963 17.4504 32.0042 17.5946 32.1121C17.7028 32.184 17.811 32.22 17.9191 32.22C18.0273 32.22 18.1715 32.184 18.2797 32.1121C18.3878 32.0402 18.496 31.9683 18.5681 31.8604C18.7484 31.5727 18.8566 31.285 18.8926 30.9254ZM9.91502 45.2374L7.64358 45.1296L9.41025 46.6039L9.91502 45.2374ZM11.3572 45.3094L10.4558 47.5748L11.3933 48.4379L10.7082 50.1999L5.33608 45.2734L6.05717 43.4754L13.3402 43.5833L12.6191 45.3094H11.3572ZM3.60546 57.8234L5.26397 58.111L5.30003 57.8234C5.33608 57.5357 5.37214 57.3199 5.37214 57.1401C5.37214 56.9603 5.33608 56.8165 5.22792 56.6727C5.11975 56.5288 4.93948 56.4569 4.6871 56.4209C4.43472 56.385 4.21839 56.385 4.07417 56.4929C3.92995 56.5648 3.82179 56.7086 3.78573 56.8525C3.71362 56.9963 3.67757 57.248 3.60546 57.5357V57.8234ZM8.61705 60.5204L1.91089 59.3337L2.3796 56.6727C2.45171 56.1692 2.63199 55.7737 2.84831 55.4141C3.06464 55.0904 3.35308 54.8387 3.74968 54.6949C4.11022 54.551 4.54288 54.5151 5.04764 54.6229C5.44424 54.6949 5.76874 54.8027 6.05717 54.9466C6.30955 55.0904 6.52588 55.3062 6.6701 55.5219C6.81432 55.7737 6.92248 56.0254 6.95854 56.349C6.99459 56.6727 6.99459 56.9963 6.92248 57.3919L6.74221 58.3987L8.9776 58.7943L8.61705 60.5204ZM1.5864 66.9572L2.99253 67.6404C2.7041 68 2.55988 68.3956 2.55988 68.8271C2.55988 69.0069 2.63199 69.1867 2.74015 69.3305C2.84831 69.4743 2.99253 69.5822 3.1728 69.5463C3.35308 69.5463 3.46124 69.4743 3.56941 69.3305C3.64151 69.1867 3.74968 69.0069 3.82179 68.7551L3.92995 68.2877C4.07417 67.7483 4.2905 67.3168 4.57893 67.0291C4.86737 66.7414 5.26397 66.5616 5.76874 66.5616C6.59799 66.5256 7.21092 66.7414 7.60752 67.2089C8.04018 67.7123 8.29256 68.3596 8.29256 69.1147C8.32861 69.9778 8.07623 70.7689 7.57147 71.5241L6.12928 70.8049C6.59799 70.2655 6.81432 69.7261 6.81432 69.2226C6.81432 69.0069 6.74221 68.7911 6.63405 68.6113C6.52588 68.4315 6.34561 68.3596 6.12928 68.3596C5.91295 68.3596 5.76874 68.4675 5.66057 68.6473C5.55241 68.863 5.4803 69.1148 5.37214 69.4384C5.26397 69.8699 5.15581 70.2295 5.01159 70.4812C4.90343 70.7329 4.72315 70.9487 4.47077 71.0925C4.21839 71.2364 3.8939 71.3083 3.4973 71.3443C3.02859 71.3443 2.63199 71.2723 2.27144 71.0566C1.91089 70.8768 1.65851 70.5891 1.44218 70.2295C1.22586 69.8699 1.15375 69.4743 1.11769 69.0428C1.11769 68.6832 1.15375 68.3236 1.22586 67.9281C1.29797 67.6044 1.40613 67.2808 1.5864 66.9572ZM97.8522 71.6319C97.9964 70.4812 97.9964 69.4024 97.8882 68.3596C97.8161 67.7842 97.708 67.2448 97.5638 66.7414C97.2393 65.6266 96.7705 64.7636 96.1937 64.1883C95.9773 63.9725 95.761 63.7927 95.5807 63.7567C94.6073 64.3681 93.3093 64.1883 92.5882 63.2893C92.4079 63.0375 92.2637 62.7858 92.1916 62.4981C92.0474 61.8868 91.5426 61.4193 90.8215 61.0598C89.6678 60.5204 88.0814 60.3046 86.3508 60.3765C85.8099 60.4125 85.2331 60.4484 84.6562 60.5563C85.0889 61.4913 84.9446 62.4262 84.8365 63.3971C84.7644 64.0085 84.6923 64.6198 84.9807 64.8715C85.197 65.0513 85.7378 64.9075 86.3508 64.7636C87.9011 64.404 89.5596 64.0085 91.4705 65.5907C93.5977 67.3887 93.129 69.0428 92.6964 70.5531C92.5522 70.9847 92.444 71.4162 92.5522 71.4881C92.7324 71.6319 93.2372 71.4881 93.778 71.3802C95.112 71.0566 96.4461 70.7329 97.8522 71.6319ZM93.9583 79.5071C95.2563 78.1047 96.1937 76.6663 96.8427 75.192C96.8427 74.9043 96.7345 74.6166 96.5182 74.4008C96.0134 73.8614 95.2562 74.0412 94.5712 74.221C93.2011 74.5447 91.9032 74.8683 90.497 73.6457C89.0549 72.3511 89.3793 71.1285 89.776 69.798C89.9562 69.1148 90.1726 68.3956 89.4875 67.7842C88.8025 67.2089 87.9372 67.4246 87.144 67.6044C85.7018 67.964 84.4038 68.2517 82.9616 67.0291C81.5195 65.7705 81.6637 64.44 81.8439 63.0735C81.916 62.4262 81.9882 61.743 81.5555 61.3834C81.3752 61.4553 81.231 61.5272 81.0507 61.5632C79.3201 62.2824 77.95 63.3252 77.4813 64.5119C79.3562 65.8784 79.1759 67.3887 78.9956 68.899C78.9235 69.5103 78.8514 70.1216 79.1398 70.3733C79.3562 70.5531 79.933 70.4453 80.5099 70.3014C82.0603 69.9418 83.7188 69.5463 85.6297 71.1645C87.7569 72.9624 87.2882 74.6166 86.8916 76.1269C86.7834 76.5584 86.6392 76.9899 86.7474 77.0619C86.9276 77.2057 87.4685 77.0978 88.0093 76.954C89.5957 76.5584 91.2902 76.1629 93.0209 78.0687C93.4896 78.5003 93.778 79.0037 93.9583 79.5071ZM73.0827 79.0397C72.9385 79.5431 72.7942 80.0465 72.614 80.55C72.4337 81.1972 72.2174 81.8086 72.0371 82.4558C71.8568 83.1391 71.6765 83.8942 71.6044 84.6494C71.7847 86.4474 71.6405 88.2454 71.4602 89.7557C73.984 88.569 77.5534 87.0947 80.9426 86.3395C81.7358 86.1597 82.565 86.0159 83.3582 85.8361C83.7188 85.7641 84.0793 85.6922 84.4399 85.6203C84.0433 85.5484 83.5746 85.6203 83.1059 85.6922C81.6637 85.908 80.2575 86.0878 78.8514 84.8651C77.3732 83.5706 77.6616 82.312 78.0221 80.9455C78.2024 80.2623 78.3827 79.5071 77.7337 78.9318C77.0487 78.3564 76.1834 78.5362 75.3902 78.752C74.597 78.9318 73.8398 79.1116 73.0827 79.0397ZM73.6235 66.6695C72.9385 67.0291 72.2895 67.6764 71.7126 68.5394C73.948 70.9847 74.2725 73.4659 73.8038 76.091C74.0561 76.055 74.3085 75.9831 74.597 75.9112C76.1473 75.5516 77.8419 75.12 79.7528 76.7742C81.6997 78.4643 81.3031 80.0825 80.9426 81.5568C80.8344 82.0603 80.6902 82.5637 80.8705 82.7076C81.195 82.9952 81.916 82.9233 82.6371 82.8154C84.2235 82.5997 85.846 82.3839 87.3963 84.0381C87.6127 84.2538 87.7569 84.5415 87.7929 84.8292C89.2712 84.3617 90.5692 83.7504 91.4705 82.8154C91.0739 82.4558 90.8576 81.9164 91.0018 81.377C91.0739 81.0894 91.11 80.8376 91.0739 80.5859C91.0379 80.3702 90.9297 80.1904 90.7494 79.9746C90.2447 79.3993 89.4875 79.615 88.7664 79.7589C87.3963 80.0825 86.0984 80.4061 84.6923 79.1835C83.2501 77.8889 83.5746 76.6663 83.9351 75.3358C84.1154 74.6526 84.3317 73.8974 83.6106 73.322C82.8895 72.7467 82.0242 72.9265 81.231 73.1063C79.7888 73.4299 78.4548 73.7536 77.0487 72.495C75.6065 71.2364 75.7507 69.9059 75.931 68.5394C76.0031 67.8562 76.1113 67.1729 75.5704 66.7774C75.282 66.5616 75.0296 66.4897 74.7412 66.4537C74.4528 66.4178 74.0922 66.4897 73.7677 66.5976C73.7317 66.6335 73.6595 66.6695 73.6235 66.6695ZM53.2526 59.909C52.2431 59.8012 51.3778 59.8012 50.7288 59.945L50.2601 60.0529C50.2601 60.9878 49.6111 61.8509 48.6016 62.1026C48.2411 62.1745 47.8445 62.1745 47.52 62.1026C46.3302 61.8149 45.2125 62.1745 44.239 62.8937C43.3376 63.5769 42.5805 64.6198 42.0036 65.7705C41.4267 66.9572 41.1022 68.2877 41.1022 69.5103C41.1022 70.6251 41.3186 71.6679 41.8594 72.495C42.7247 72.2433 43.6261 72.3511 44.5274 72.423C45.1764 72.495 45.7893 72.5669 46.0778 72.2792C46.2581 72.0635 46.1138 71.56 45.9696 70.9847C45.573 69.5103 45.1764 67.9281 46.8349 66.0941C48.7098 64.0804 50.4404 64.5119 52.0268 64.9075C52.4955 65.0153 52.9282 65.1232 53.0003 65.0513C53.1445 64.9074 53.0363 64.404 52.8921 63.8646C52.5316 62.642 52.171 61.3115 53.2526 59.909ZM47.8445 82.7795C49.0343 83.5706 50.3683 84.2898 51.8105 84.8651C53.1805 83.3548 54.6948 83.4987 56.1731 83.6785C56.822 83.7504 57.471 83.8223 57.7234 83.5346C57.9037 83.3189 57.7955 82.7795 57.6152 82.2041C57.2187 80.6938 56.786 79.1116 58.5527 77.2776C60.3193 75.4437 62.0139 75.8033 63.5643 76.1269C64.1051 76.2348 64.6098 76.3427 64.7541 76.1988C65.0786 75.8752 64.9704 75.192 64.8622 74.5447C64.6459 73.0344 64.3935 71.4881 66.1241 70.0137C66.3765 69.798 66.665 69.6901 66.9534 69.6541C66.3765 68.3956 65.6194 67.2448 64.7541 66.238C64.3935 66.5616 63.8527 66.7054 63.3119 66.5976C63.0234 66.5256 62.735 66.4897 62.4826 66.5256C62.2663 66.5616 62.05 66.6695 61.8336 66.8493C61.2568 67.3527 61.437 68.0719 61.6173 68.7551C61.9779 70.0497 62.3023 71.3083 61.0044 72.6388C59.6704 74.0412 58.3724 73.7176 56.9663 73.358C56.2452 73.1782 55.488 72.9624 54.839 73.6457C54.2261 74.3289 54.4424 75.156 54.6227 75.9112C54.9833 77.2776 55.3078 78.5362 53.9737 79.9027C52.6397 81.2692 51.2336 81.1253 49.8275 80.9815C49.1064 80.9096 48.3853 80.8376 47.9887 81.3051C47.7723 81.5568 47.6642 81.8445 47.6281 82.0962C47.7363 82.276 47.7723 82.5278 47.8445 82.7795ZM69.0446 72.3511C69.0085 72.2792 68.9725 72.2073 68.9364 72.1354L69.0446 72.3511ZM69.1167 72.5669C69.0806 72.495 69.0446 72.423 69.0085 72.3511L69.1167 72.5669ZM68.0711 80.4781V80.4061V80.3702L68.1071 80.2263L68.1432 80.0825L68.1793 79.9387L68.2153 79.7948L68.2514 79.651L68.2874 79.5071L68.3235 79.3633L68.3595 79.2195L68.3956 79.0756L68.4316 78.9318L68.4677 78.7879L68.5037 78.6441L68.5398 78.5003L68.5758 78.3564L68.6119 78.2126L68.648 78.0687L68.684 77.9249L68.7201 77.7811L68.7561 77.6372L68.7922 77.4934L68.8282 77.3495L68.8643 77.2057L68.9003 77.0619L68.9364 76.954L68.9725 76.8461L69.0085 76.7382L69.0446 76.6303L69.0806 76.5225V76.4146V76.3067V76.1988V76.091V75.9831V75.8752V75.7673V75.6594V75.5516V75.4437C69.0806 75.3718 69.0806 75.2998 69.0806 75.192C69.0446 74.6166 68.9725 74.0412 68.7561 73.5018C68.7201 73.4299 68.684 73.358 68.648 73.2861C68.6119 73.2142 68.5759 73.1423 68.5398 73.0703C68.4316 72.8905 68.3595 72.7107 68.2153 72.5669V72.6029L68.1793 72.6388V72.6748C67.6745 73.1063 67.7826 73.8614 67.8908 74.6166V74.6885V74.7245V74.7604V74.7964V74.8324V74.8683V74.9043V74.9402V74.9762V75.0481V75.12V75.156V75.192V75.2279V75.2639V75.2998V75.3358V75.3718V75.4077V75.4796V75.5156V75.5516V75.5875V75.6235V75.6594V75.6954V75.8033V75.8392V75.9112V75.9471V75.9831V76.019V76.055V76.091V76.1269V76.1629V76.1988V76.2348V76.2708V76.3427V76.3786V76.4146V76.4506V76.4865V76.5225V76.5584V76.5944V76.6303V76.7023V76.7742V76.8102V76.8461V76.8821V76.918V76.954V76.99V77.0259V77.0978V77.1697V77.2417V77.2776V77.3136V77.3495V77.3855V77.4215V77.4574V77.4934L67.8548 77.5293L67.8187 77.6013L67.7826 77.6372L67.7466 77.6732L67.7105 77.7091V77.7451L67.6745 77.817V77.853L67.6384 77.8889L67.6024 77.9249L67.5663 77.9968C67.4221 78.1766 67.2779 78.3924 67.0976 78.5722C65.7275 79.9746 64.3935 79.6869 62.9874 79.3633C62.2663 79.2195 61.4731 79.0397 60.8962 79.651C60.2833 80.2982 60.4996 81.1253 60.6799 81.8805C61.0404 83.247 61.3649 84.5055 60.067 85.872C59.5983 86.3395 59.1295 86.6272 58.6608 86.807C61.7976 87.3464 64.7901 88.9286 67.0255 90.1872C66.9534 87.7419 67.0616 84.5055 67.8548 81.7366C67.8908 81.0894 67.9629 80.7657 68.0711 80.4781ZM43.1934 76.5225C43.0852 76.6663 43.0131 76.8102 43.0131 76.954C42.941 77.4934 43.2295 78.2126 43.7703 79.0037C44.0948 79.5071 44.5274 80.0106 45.0322 80.514C45.1764 80.1544 45.3927 79.8308 45.6451 79.5071C47.0873 77.6732 48.6737 77.853 50.2601 78.0328C50.9091 78.1047 51.5581 78.1766 51.8105 77.8889C52.0268 77.6732 51.8826 77.1338 51.7383 76.5584C51.3418 75.0841 50.9451 73.5018 52.6397 71.6679C54.5146 69.6182 56.2812 70.0857 57.8316 70.4812C58.3003 70.5891 58.7329 70.697 58.8051 70.6251C58.9493 70.4453 58.8411 69.9418 58.6969 69.4384C58.3003 67.9281 57.8676 66.3099 59.8506 64.6557C60.5357 64.0804 61.2568 63.7927 62.0139 63.6489H62.05C61.5452 63.2533 61.0044 62.8937 60.4636 62.5701C60.2833 62.5341 60.1391 62.4622 59.9588 62.3903C59.2017 61.9228 58.3003 61.3834 57.5071 61.1676C56.9663 61.0238 56.4254 61.0238 55.9928 61.3834C55.4159 61.8509 55.6322 62.5701 55.8125 63.2533C56.1731 64.5479 56.4976 65.8064 55.1996 67.137C53.8656 68.5394 52.5676 68.1798 51.1615 67.8202C50.4404 67.6404 49.6832 67.4246 49.0703 68.1079C48.4574 68.7551 48.6737 69.5822 48.89 70.3374C49.2506 71.7039 49.5751 72.9624 48.2771 74.3289C46.9431 75.6954 45.537 75.5516 44.1308 75.4077C43.9866 75.4077 43.8063 75.3718 43.6621 75.3718C43.6261 75.7673 43.5179 76.1988 43.2295 76.5225H43.1934ZM65.367 46.6039C65.6554 46.1005 66.9534 45.7409 67.6745 45.597C68.5758 45.4172 69.5133 45.3094 70.018 44.8059C70.5228 45.3453 71.4602 45.4172 72.3616 45.597C73.0827 45.7409 74.3806 46.1364 74.6691 46.6039C74.4528 47.0714 73.4432 47.7546 72.5419 47.6108C71.6405 47.431 71.1718 46.9635 70.0541 46.9635C68.9364 46.9635 68.4677 47.4669 67.5663 47.6108C66.5928 47.7906 65.5833 47.0714 65.367 46.6039ZM77.0847 45.4892C77.8779 41.174 78.4909 41.3178 78.599 39.8435C78.7793 37.8657 78.2745 37.1824 77.914 36.3913C77.7698 36.4273 76.0031 36.1036 76.0031 36.8228C75.967 37.7218 74.8854 37.6859 73.984 37.6859C72.9745 37.6859 72.1453 37.2184 71.0636 37.1105C71.0997 36.5352 71.2799 34.9529 71.8929 34.9889C73.6235 35.0968 75.1017 34.3776 77.0487 34.4135C77.229 34.4135 77.4092 34.6293 77.5534 34.881C77.5534 34.5574 77.5895 34.1978 77.6616 33.7663C75.2099 32.3279 72.614 31.6446 69.982 31.6087C67.386 31.6087 64.7541 32.3279 62.3023 33.7663C62.3745 34.1978 62.4105 34.5574 62.4105 34.881C62.5547 34.6293 62.735 34.4495 62.9153 34.4135C64.8622 34.3776 66.3765 35.0968 68.0711 34.9889C68.684 34.9529 68.8643 36.5352 68.9003 37.1105C67.8187 37.2184 66.9894 37.6859 65.9799 37.6859C65.0786 37.6859 63.9969 37.7218 63.9609 36.8228C63.9248 36.1396 62.1942 36.4632 62.05 36.3913C61.6894 37.1824 61.1847 37.8657 61.3649 39.8435C61.5091 41.3178 62.086 41.2099 62.8792 45.4892C63.0595 45.669 63.2758 45.7409 63.4561 45.7409C63.9609 45.7409 63.42 45.1655 64.1411 43.9429C65.2588 43.3675 67.2058 41.7853 68.2514 42.4685C69.369 43.1877 70.5228 43.2237 71.6405 42.4685C72.6861 41.7853 74.6691 43.4035 75.7507 43.9429C76.4718 45.1655 75.931 45.7409 76.4358 45.7409C76.6881 45.7409 76.9045 45.633 77.0847 45.4892ZM82.0242 29.4511C77.6977 25.9989 76.2555 17.5484 70.018 17.6563C63.6003 17.6563 62.3023 26.0349 57.9758 29.4511C66.0881 24.4527 72.614 24.2729 82.0242 29.4511ZM60.103 43.0439C59.7064 48.4738 59.9227 51.1708 63.7445 57.1761C66.701 58.3987 68.7922 59.4775 69.982 59.4775C71.1718 59.4775 73.2269 58.4706 76.1473 57.284C80.0773 51.2068 80.2936 48.5817 79.933 43.0439C79.9691 42.8281 80.0052 42.6124 80.0412 42.3966C80.2936 42.2887 80.5099 42.1809 80.7262 42.037C82.3487 41.138 83.9712 39.5198 84.548 37.7218C84.8004 36.9667 84.8725 36.2475 84.7644 35.5643C84.7644 35.4923 84.8004 35.4564 84.7644 35.3844C84.7644 35.1687 84.7283 34.917 84.6562 34.7012C84.0433 33.4067 82.3848 32.0402 80.0412 30.9254C76.7242 28.9476 72.2174 27.761 70.018 27.761C67.7466 27.761 63.1316 28.9836 59.7785 31.0333C58.3363 31.8604 56.9663 32.9032 55.7044 34.1978C55.1996 35.2766 55.0914 36.4273 55.488 37.6859C56.101 39.4839 57.6874 41.0661 59.3098 42.0011C59.5261 42.1449 59.7425 42.2887 59.9949 42.3966C60.0309 42.6124 60.067 42.8281 60.103 43.0439ZM65.6554 95.8689C66.1962 96.4082 66.3765 97.0915 66.4486 97.8826H73.5874C73.6595 97.0915 73.8398 96.4082 74.3806 95.8689C76.2194 94.862 74.4888 93.963 76.9405 93.3157C78.2745 92.9561 81.4473 92.9561 83.4303 92.5965C84.2957 92.4527 85.2691 92.2729 86.3147 92.0571C92.9127 90.7266 101.818 84.9371 106.145 79.9387C107.226 78.6801 107.875 77.9609 107.443 76.019C107.479 74.4008 105.712 67.1729 103.188 64.9075C101.998 60.9159 99.1501 54.1914 91.8311 54.2993C89.4154 54.3353 87.5045 52.2136 84.1514 52.0698C82.0603 51.926 81.5194 50.128 81.4834 48.4019C87.2161 45.9926 91.7229 33.7303 88.9827 32.7953C87.7569 32.3638 84.6562 30.1703 83.7909 27.8689C80.582 20.9286 77.5895 15.1391 70.0541 15.175C62.4466 15.1031 59.4901 20.8926 56.2452 27.8329C55.3799 30.0984 52.2792 32.3279 51.0533 32.7594C48.3132 33.6943 52.856 46.0645 58.6248 48.4019C58.5887 50.128 58.084 51.89 55.8846 52.0698C52.5676 52.1777 50.6207 54.3353 48.205 54.2993C40.8859 54.1914 38.0376 60.9159 36.8478 64.9075C34.324 67.1729 32.5573 74.4008 32.5934 76.019C32.1607 77.9609 32.7736 78.6801 33.8913 79.9387C38.2179 84.9371 47.1234 90.7266 53.7214 92.0571C54.803 92.2729 55.7765 92.4527 56.6057 92.5965C58.5887 92.9561 61.7615 92.9561 63.0956 93.3157C65.5473 93.963 63.8166 94.862 65.6554 95.8689Z" fill="#D8DADB"/>
</svg>
