<svg width="17" height="20" viewBox="0 0 17 20" fill="none" xmlns="http://www.w3.org/2000/svg">
<path d="M14.4788 10.1394C14.4071 10.0664 14.3215 10.0084 14.227 9.96867C14.1326 9.92896 14.0311 9.90837 13.9285 9.90809C13.826 9.90781 13.7244 9.92786 13.6297 9.96705C13.535 10.0063 13.4491 10.0638 13.377 10.1364C13.3049 10.209 13.248 10.2951 13.2097 10.3898C13.1714 10.4845 13.1524 10.5858 13.1538 10.6879C13.1552 10.79 13.177 10.8907 13.2179 10.9843C13.2589 11.0779 13.3181 11.1625 13.3922 11.2331C14.0478 11.8753 14.5679 12.6413 14.922 13.4863C15.2762 14.3313 15.4572 15.2383 15.4545 16.1538C15.4545 17.0947 12.7454 18.4615 8.5 18.4615C4.25458 18.4615 1.54548 17.094 1.54548 16.1523C1.54288 15.243 1.72149 14.3422 2.07097 13.5021C2.42044 12.662 2.93385 11.8992 3.58146 11.2579C3.6547 11.1868 3.71304 11.102 3.75309 11.0083C3.79313 10.9145 3.81409 10.8139 3.81474 10.712C3.81538 10.6102 3.79571 10.5092 3.75686 10.415C3.71801 10.3208 3.66076 10.2352 3.58843 10.1632C3.51609 10.0912 3.43011 10.0342 3.33547 9.99554C3.24084 9.95687 3.13943 9.93729 3.03713 9.93793C2.93483 9.93858 2.83368 9.95944 2.73955 9.9993C2.64541 10.0392 2.56016 10.0972 2.48875 10.1702C1.69703 10.9541 1.06941 11.8867 0.642219 12.9138C0.215027 13.9409 -0.00324611 15.0422 3.64815e-05 16.1538C3.64815e-05 18.652 4.37906 20 8.5 20C12.6209 20 17 18.652 17 16.1538C17.0034 15.0347 16.7821 13.9261 16.3492 12.8933C15.9162 11.8605 15.2803 10.9242 14.4788 10.1394Z" fill="white"/>
<path d="M8.5 10.7692C9.56981 10.7692 10.6156 10.4534 11.5051 9.86176C12.3946 9.27009 13.0879 8.42913 13.4973 7.44522C13.9067 6.46131 14.0138 5.37864 13.8051 4.33413C13.5964 3.28962 13.0813 2.33017 12.3248 1.57712C11.5683 0.824068 10.6045 0.311233 9.55526 0.103466C8.506 -0.1043 7.41842 0.00233306 6.43004 0.409882C5.44166 0.81743 4.59688 1.50759 4.00252 2.39309C3.40817 3.27858 3.09093 4.31964 3.09093 5.38462C3.09259 6.8122 3.663 8.18084 4.67704 9.19029C5.69108 10.1997 7.06593 10.7676 8.5 10.7692ZM8.5 1.53846C9.26415 1.53846 10.0111 1.76404 10.6465 2.18666C11.2819 2.60928 11.7771 3.20997 12.0695 3.91276C12.3619 4.61555 12.4385 5.38888 12.2894 6.13496C12.1403 6.88104 11.7723 7.56636 11.232 8.10426C10.6917 8.64215 10.0032 9.00846 9.25375 9.15687C8.50428 9.30527 7.72744 9.22911 7.02146 8.938C6.31547 8.64689 5.71206 8.15392 5.28752 7.52143C4.86298 6.88893 4.63638 6.14531 4.63638 5.38462C4.63759 4.36492 5.04503 3.38734 5.76934 2.6663C6.49365 1.94527 7.47567 1.53966 8.5 1.53846Z" fill="white"/>
</svg>
