<svg width="78" height="78" viewBox="0 0 78 78" fill="none" xmlns="http://www.w3.org/2000/svg">
<path d="M75.7697 10.6633C74.6222 9.51387 72.7604 9.51189 71.613 10.6584L36.3465 45.8319L23.6224 32.0123C22.523 30.8188 20.6641 30.7414 19.4686 31.8408C18.2741 32.9402 18.1976 34.8 19.2971 35.9946L34.0936 52.0639C34.6355 52.6529 35.3939 52.9949 36.1935 53.0115C36.215 53.0124 36.2357 53.0124 36.2563 53.0124C37.0334 53.0124 37.7809 52.7038 38.3317 52.155L75.7639 14.8209C76.9142 13.6745 76.9162 11.8127 75.7697 10.6633Z" fill="#D1C396"/>
<path d="M75.0602 36.0602C73.4365 36.0602 72.1206 37.3762 72.1206 39C72.1206 57.2634 57.2634 72.1206 39 72.1206C20.7376 72.1206 5.8794 57.2634 5.8794 39C5.8794 20.7376 20.7376 5.8794 39 5.8794C40.6237 5.8794 41.9398 4.56346 41.9398 2.93978C41.9398 1.31595 40.6237 0 39 0C17.4952 0 0 17.4952 0 39C0 60.5039 17.4952 78 39 78C60.5039 78 78 60.5039 78 39C78 37.3763 76.6841 36.0602 75.0602 36.0602Z" fill="#D1C396"/>
</svg>
