<svg width="44" height="52" viewBox="0 0 44 52" fill="none" xmlns="http://www.w3.org/2000/svg">
<path d="M12.8463 46.2009C8.19088 46.2009 4.41694 42.216 4.41694 37.3003V28.08H42.7556V37.3003C42.7556 42.216 38.9816 46.2009 34.3263 46.2009H27.6583H34.0404C36.8171 47.2618 37.179 51 37.179 51H9.70749C9.70749 51 10.0694 47.2618 12.8463 46.2009ZM12.8463 46.2009H19.1933M28.4023 22.9925L29.902 21.4089M21.9734 16.6013L23.4731 18.1848M17.8764 21.5046L16.4673 22.9925M23.3807 26.2198L25.1425 28.08M21.6974 11.6235C12.3575 17.4175 6.85957 28.08 6.85957 28.08H40.3129C40.3129 28.08 34.8151 17.4175 25.4751 11.6235C24.3111 10.9015 22.8614 10.9015 21.6974 11.6235ZM17.9352 14.3595C15.6169 16.2975 13.6243 18.4486 11.9939 20.4605L9.2758 18.9211C7.30655 17.8058 6.91493 15.0002 8.49458 13.3322L12.7284 8.86155L17.9352 14.3595ZM12.728 8.86104L6.09469 1.85678C5.0128 0.714406 3.25865 0.714406 2.17677 1.85678C0.938781 3.1641 1.14532 5.34103 2.60429 6.36298L10.113 11.6222L12.728 8.86104Z" stroke="#D1C396" stroke-width="2" stroke-miterlimit="10" stroke-linecap="round" stroke-linejoin="round"/>
</svg>
