<svg width="52" height="55" viewBox="0 0 52 55" fill="none" xmlns="http://www.w3.org/2000/svg">
<path d="M48.9452 37.3829H46.52V32.3371C46.52 31.9137 46.2861 31.5298 45.9227 31.3568L39.7516 28.4176C39.3688 28.2353 38.9201 28.3234 38.6239 28.6383L37.3354 30.0081L29.9425 29.2596C29.5519 29.2204 29.1736 29.4252 28.9748 29.7859L27.5393 32.3905L26.3575 31.1342C24.9682 29.6571 22.7015 29.6508 21.3047 31.1194L19.2402 33.2898L17.2225 31.1448C15.8255 29.6599 13.5525 29.6599 12.1555 31.1448L6.28736 37.3829H3.27029C1.59871 37.3829 0.23877 38.8286 0.23877 40.6055V51.7774C0.23877 53.5543 1.59871 55 3.27029 55H48.9452C50.6168 55 51.9767 53.5543 51.9767 51.7774V40.6055C51.9767 38.8286 50.6168 37.3829 48.9452 37.3829ZM39.5606 30.6807L44.499 33.0328V37.3829H33.2561L39.5606 30.6807ZM30.3926 31.4633L35.4816 31.9785L31.3167 36.406L29.0162 33.9604L30.3926 31.4633ZM22.7259 32.6469C23.3347 32.0067 24.3229 32.0094 24.9284 32.6534L29.3774 37.383H23.0906L20.6693 34.8091L22.7259 32.6469ZM13.5846 32.664C14.1935 32.0165 15.1845 32.0167 15.7933 32.664L20.2323 37.3829H9.14568L13.5846 32.664ZM49.9557 42.4317H38.3836C37.8256 42.4317 37.3731 42.9126 37.3731 43.5059C37.3731 44.0992 37.8256 44.5801 38.3836 44.5801H49.9557V51.7774C49.9557 52.3697 49.5024 52.8516 48.9452 52.8516H3.27029C2.7131 52.8516 2.25978 52.3697 2.25978 51.7774V49.1992H13.3455C13.9035 49.1992 14.356 48.7183 14.356 48.125C14.356 47.5317 13.9035 47.0508 13.3455 47.0508H2.25978V40.6055C2.25978 40.0132 2.7131 39.5313 3.27029 39.5313H48.9452C49.5024 39.5313 49.9557 40.0132 49.9557 40.6055V42.4317Z" fill="#D1C396"/>
<path d="M50.9662 5.80076H29.8675C27.9308 5.80076 26.0863 4.96556 24.6738 3.44898C22.6323 1.25715 19.6144 0 16.3939 0C10.4877 0 5.68257 4.24068 5.68257 9.45309C5.68257 13.6091 8.73743 17.1473 12.9694 18.4107V22.0216C12.9694 22.6149 13.4219 23.0958 13.9799 23.0958C14.5379 23.0958 14.9904 22.6149 14.9904 22.0216V18.825C15.4499 18.8782 15.9183 18.9062 16.3939 18.9062C16.6374 18.9062 16.8795 18.8981 17.1203 18.8838V23.8477C17.1203 24.441 17.5728 24.9219 18.1308 24.9219C18.6888 24.9219 19.1413 24.441 19.1413 23.8477V18.5925C21.2919 18.0925 23.2278 17.0098 24.6737 15.4573C26.0863 13.9406 27.9309 13.1054 29.8675 13.1054H50.9662C51.5242 13.1054 51.9767 12.6245 51.9767 12.0312V6.87497C51.9767 6.28168 51.5242 5.80076 50.9662 5.80076ZM17.1203 16.7295C16.8799 16.7464 16.6381 16.7577 16.3939 16.7577C15.9161 16.7577 15.4476 16.7238 14.9904 16.6611V15.1234C15.4432 15.2081 15.9124 15.2537 16.3939 15.2537C16.6395 15.2537 16.8816 15.2413 17.1203 15.2187V16.7295ZM18.1309 9.20656C17.5729 9.20656 17.1204 9.68748 17.1204 10.2808V13.0605C16.8836 13.0898 16.6411 13.1054 16.394 13.1054C13.831 13.1054 11.7457 11.467 11.7457 9.45309C11.7457 7.43915 13.831 5.80076 16.394 5.80076C18.9571 5.80076 21.0424 7.43915 21.0424 9.45309C21.0424 10.6599 20.2931 11.7314 19.1414 12.3968V10.2808C19.1414 9.68748 18.6889 9.20656 18.1309 9.20656ZM49.9557 10.957H29.8675C27.3872 10.957 25.0327 12.0184 23.2376 13.9457C22.1618 15.1008 20.7381 15.935 19.1414 16.3824V14.7367C21.4517 13.8243 23.0634 11.8 23.0634 9.45309C23.0634 6.25451 20.0716 3.65233 16.394 3.65233C12.7165 3.65233 9.7247 6.25451 9.7247 9.45309C9.7247 11.5633 11.0273 13.4134 12.9695 14.4285V16.1657C9.87567 15.0462 7.70358 12.4592 7.70358 9.45309C7.70358 5.42532 11.602 2.14843 16.3939 2.14843C19.0787 2.14843 21.5731 3.17344 23.2376 4.96051C25.0327 6.88786 27.3872 7.94919 29.8675 7.94919H49.9557V10.957Z" fill="#D1C396"/>
<path d="M6.10729 27.9204L5.30777 26.8533C4.68358 26.0203 4.68267 24.8557 5.30565 24.0216L6.11567 22.9367C6.46268 22.472 6.38952 21.7963 5.95237 21.4276C5.51503 21.0586 4.87962 21.1365 4.53261 21.6012L3.72259 22.686C2.5116 24.308 2.51332 26.572 3.72694 28.1919L4.52645 29.259C5.15074 30.0921 5.15165 31.2565 4.52867 32.0908C4.18177 32.5555 4.25483 33.2311 4.69197 33.5999C4.8778 33.7567 5.09941 33.8328 5.31949 33.8328C5.61719 33.8328 5.91216 33.6936 6.11173 33.4263C7.32272 31.8044 7.321 29.5403 6.10729 27.9204Z" fill="#D1C396"/>
<path d="M45.6153 22.6742L44.8156 21.6071C44.1915 20.774 44.1905 19.6095 44.8135 18.7753L45.6235 17.6905C45.9706 17.2258 45.8974 16.5501 45.4602 16.1813C45.023 15.8123 44.3875 15.8902 44.0405 16.3549L43.2305 17.4398C42.0195 19.0617 42.0212 21.3257 43.2348 22.9457L44.0344 24.0128C44.6586 24.8458 44.6595 26.0104 44.0365 26.8445C43.6895 27.3092 43.7627 27.9849 44.1998 28.3537C44.3857 28.5104 44.6073 28.5866 44.8274 28.5866C45.1251 28.5866 45.42 28.4473 45.6196 28.1801C46.8306 26.5581 46.8289 24.2941 45.6153 22.6742Z" fill="#D1C396"/>
<path d="M18.8452 26.7406C18.6573 26.5408 18.3966 26.4259 18.1308 26.4259C17.865 26.4259 17.6043 26.5408 17.4165 26.7406C17.2285 26.9404 17.1203 27.2176 17.1203 27.5001C17.1203 27.7826 17.2284 28.0598 17.4165 28.2596C17.6043 28.4594 17.865 28.5743 18.1308 28.5743C18.3966 28.5743 18.6573 28.4594 18.8452 28.2596C19.0332 28.0598 19.1413 27.7826 19.1413 27.5001C19.1413 27.2176 19.0333 26.9404 18.8452 26.7406Z" fill="#D1C396"/>
<path d="M17.4962 47.3656C17.3072 47.1658 17.0475 47.0508 16.7818 47.0508C16.5149 47.0508 16.2543 47.1658 16.0663 47.3656C15.8784 47.5654 15.7713 47.8425 15.7713 48.125C15.7713 48.4075 15.8784 48.6847 16.0663 48.8845C16.2553 49.0843 16.5149 49.1992 16.7818 49.1992C17.0465 49.1992 17.3072 49.0843 17.4962 48.8845C17.6841 48.6847 17.7923 48.4075 17.7923 48.125C17.7923 47.8425 17.6842 47.5654 17.4962 47.3656Z" fill="#D1C396"/>
</svg>
