<svg width="46" height="54" viewBox="0 0 46 54" fill="none" xmlns="http://www.w3.org/2000/svg">
<path d="M10.6215 1L13.2172 15.2156C13.755 18.1636 13.6339 20.1738 15.4723 22.4806L20.0557 28.2328C21.5197 30.0483 20.4357 32.8525 17.9807 32.3703C12.6541 31.3216 13.3157 28.7631 4.65864 27.1334C0.689003 26.3873 0.643912 22.4178 1.77851 20.2638C3.06234 17.822 4.05612 18.2026 3.3974 14.4996L1.00146 1H10.6215ZM10.6215 1H16.5815L19.1745 15.2156C19.7122 18.1636 19.594 20.1738 21.4324 22.4806L26.0129 28.2328C27.4797 30.0483 26.3958 32.8525 23.938 32.3703C22.4206 32.0706 21.3873 31.6482 20.4892 31.1628M33.3948 15.7938C33.5665 15.9735 34.8812 17.169 34.8164 19.365C34.8812 21.564 33.5665 22.7563 33.3948 22.939C33.223 23.1218 31.9083 24.3141 31.973 26.5132C31.9083 28.7091 33.223 29.9015 33.3948 30.0842M39.4139 15.7938C39.5884 15.9735 40.9004 17.169 40.8357 19.365C40.9004 21.564 39.5884 22.7563 39.4139 22.939C39.2422 23.1218 37.9302 24.3141 37.995 26.5132C37.9302 28.7091 39.2422 29.9015 39.4139 30.0842M28.0512 36.7741H42.0941C43.2935 36.7741 44.2732 37.8167 44.2732 39.0929C44.2732 40.3662 43.2935 41.4089 42.0941 41.4089M42.0941 41.4089H5.08932M42.0941 41.4089C42.0941 44.7134 42.0941 53 31.8829 53H15.3006C5.08933 53 5.08932 44.7134 5.08932 41.4089M5.08932 41.4089C3.89289 41.4089 2.91309 40.3662 2.91309 39.0929C2.91309 37.8167 3.89289 36.7741 5.08932 36.7741H19.1323M23.5974 36.7741H23.5917" stroke="#D1C396" stroke-width="2" stroke-miterlimit="10" stroke-linecap="round" stroke-linejoin="round"/>
</svg>
