<svg width="52" height="55" viewBox="0 0 52 55" fill="none" xmlns="http://www.w3.org/2000/svg">
<path d="M51.5172 26.8293C51.3255 26.5741 51.035 26.4256 50.7277 26.4256H39.5207C39.5428 26.357 39.5644 26.2882 39.5822 26.2172C39.7245 25.6529 39.7102 25.0797 39.5668 24.5522C41.1333 24.4928 42.3905 23.1197 42.3905 21.44C42.3905 20.4235 41.9301 19.5192 41.2191 18.9504L41.5116 18.6395C42.0649 18.0513 42.3696 17.2692 42.3696 16.4374C42.3696 15.6055 42.0649 14.8235 41.5116 14.2352C40.3693 13.021 38.5109 13.021 37.3686 14.2352L37.0762 14.5461C36.8858 14.2772 36.6549 14.0429 36.3942 13.8515L36.6503 13.5793C37.2035 12.9911 37.5083 12.209 37.5083 11.3773C37.5083 10.5454 37.2036 9.76336 36.6503 9.17512C35.508 7.96093 33.6496 7.96093 32.5073 9.17512L32.2148 9.486C31.9857 9.16223 31.6983 8.88787 31.3697 8.67947C32.3712 7.45744 32.3257 5.59657 31.2317 4.43362C30.5556 3.71486 29.6284 3.42182 28.7474 3.55384V3.11416C28.7474 1.39702 27.4332 0 25.8179 0C24.2026 0 22.8885 1.39702 22.8885 3.11416V3.55384C22.0078 3.42182 21.0803 3.71497 20.4042 4.43362C19.8508 5.02186 19.546 5.8039 19.546 6.63577C19.546 7.39524 19.8008 8.11282 20.2661 8.67958C19.9376 8.88809 19.6502 9.16244 19.421 9.4861L19.1286 9.17512C18.5752 8.58698 17.8396 8.263 17.0571 8.263C16.2745 8.263 15.5389 8.58698 14.9855 9.17512C13.8433 10.3894 13.8433 12.365 14.9855 13.5793L15.2825 13.895C15.1594 13.9904 15.0422 14.0962 14.9325 14.2129C14.8339 14.3176 14.7433 14.4286 14.6608 14.5448L14.3696 14.2352C13.2273 13.021 11.3688 13.0211 10.2266 14.2352C9.67339 14.8235 9.36862 15.6055 9.36862 16.4374C9.36862 17.2692 9.67339 18.0513 10.2266 18.6395L10.5192 18.9504C9.80819 19.5191 9.3477 20.4235 9.3477 21.44C9.3477 23.1196 10.605 24.4928 12.1715 24.5522C12.0281 25.0797 12.0137 25.6529 12.156 26.2172C12.1739 26.2883 12.1954 26.3572 12.2176 26.4258H1.01083C0.703632 26.4258 0.413111 26.5743 0.221317 26.8295C0.0295233 27.0846 -0.0426268 27.4186 0.0251782 27.7372L5.65238 54.163C5.75667 54.6525 6.16582 55 6.63793 55H45.1004C45.5725 55 45.9818 54.6525 46.086 54.163L51.7132 27.737C51.7811 27.4184 51.709 27.0844 51.5172 26.8293ZM42.6359 28.574L40.7362 37.8877H34.878L36.3426 28.574H42.6359ZM23.312 23.6698L21.8333 22.0978C21.6617 21.9154 21.5671 21.6728 21.5671 21.4149C21.5671 21.157 21.6616 20.9144 21.8333 20.732C22.0049 20.5496 22.2331 20.4492 22.4757 20.4492C22.7183 20.4492 22.9465 20.5496 23.1183 20.7323L23.1848 20.803C23.4738 21.1101 23.9085 21.2017 24.2859 21.0356C24.6634 20.8693 24.9095 20.4776 24.9095 20.0432V17.8933C24.9095 17.3608 25.317 16.9275 25.8179 16.9275C26.3188 16.9275 26.7264 17.3608 26.7264 17.8933V20.043C26.7264 20.4774 26.9726 20.8692 27.3502 21.0355C27.7277 21.2017 28.1624 21.1098 28.4514 20.8027L28.5179 20.732C28.6762 20.5637 28.8828 20.4662 29.1043 20.4521C29.111 20.4519 29.1174 20.4526 29.1241 20.4523C29.1329 20.4518 29.1413 20.4503 29.1501 20.4497C29.1535 20.4497 29.1569 20.4492 29.1603 20.4492C29.4029 20.4492 29.6311 20.5497 29.8027 20.7321C30.1569 21.1086 30.1569 21.7213 29.8027 22.0979L28.3239 23.6699C27.9741 24.0417 27.9289 24.6281 28.2172 25.0554C28.5055 25.4827 29.0424 25.6256 29.4859 25.3926C29.9131 25.1683 30.4346 25.3367 30.6732 25.776C30.7827 25.9776 30.8174 26.2072 30.7809 26.4258H20.8547C20.8184 26.2071 20.8531 25.9775 20.9626 25.7759C21.2012 25.3365 21.7228 25.1681 22.1499 25.3925C22.5933 25.6253 23.1303 25.4826 23.4186 25.0554C23.7069 24.628 23.6617 24.0417 23.312 23.6698ZM26.8798 28.5879H31.3987C31.4502 28.5879 31.5009 28.5822 31.5511 28.574H34.2935L32.8289 37.8877H26.8798V28.5879ZM34.5402 40.0361H40.2981L39.8599 42.1847H34.2024L34.5402 40.0361ZM36.2665 17.5075C36.6442 17.6739 37.0787 17.5818 37.3678 17.2747L38.7978 15.7546C39.152 15.378 39.7284 15.378 40.0825 15.7546C40.4367 16.1311 40.4367 16.7437 40.0825 17.1204L38.6526 18.6405C38.3636 18.9477 38.2772 19.4098 38.4336 19.8112C38.59 20.2126 38.9585 20.4743 39.3672 20.4743H39.4612C39.9621 20.4743 40.3696 20.9075 40.3696 21.44C40.3696 21.9725 39.9621 22.4057 39.4612 22.4057H37.3698C36.8751 22.4057 36.4532 22.7864 36.3728 23.3054C36.2924 23.8242 36.5771 24.3288 37.0457 24.4974C37.497 24.6599 37.7537 25.1711 37.6302 25.6612C37.5006 26.1756 37.0014 26.4819 36.5176 26.344C36.5132 26.3427 36.5089 26.3416 36.5045 26.3404L32.676 25.3079C32.6129 25.1001 32.5296 24.8967 32.4237 24.7017C32.1489 24.1957 31.7577 23.8013 31.3054 23.536C32.3735 22.3164 32.3491 20.4004 31.2319 19.2127C30.9826 18.9478 30.6962 18.7371 30.3853 18.5847C30.4906 18.4813 30.6191 18.4027 30.7637 18.3615C31.2246 18.2302 31.7054 18.5032 31.8582 18.983C32.0169 19.481 32.491 19.7837 32.9796 19.6983C33.4678 19.6128 33.8259 19.1642 33.8259 18.6383V16.4151C33.8259 16.1572 33.9204 15.9147 34.092 15.7323C34.2635 15.5499 34.4916 15.4494 34.7343 15.4494C34.977 15.4494 35.2051 15.5499 35.3766 15.7323C35.5482 15.9147 35.6427 16.1572 35.6427 16.4151V16.515C35.6427 16.9495 35.8889 17.3412 36.2665 17.5075ZM21.8333 5.95289C22.1874 5.57638 22.7638 5.57638 23.1183 5.95311L23.1848 6.02379C23.4738 6.33091 23.9084 6.42254 24.2859 6.25636C24.6634 6.09007 24.9095 5.69841 24.9095 5.26399V3.11416C24.9095 2.58167 25.317 2.14844 25.8179 2.14844C26.3188 2.14844 26.7264 2.58167 26.7264 3.11416V5.26389C26.7264 5.6983 26.9726 6.09007 27.3502 6.25636C27.7278 6.42265 28.1624 6.33059 28.4514 6.02357L28.5179 5.95289C28.8721 5.57627 29.4485 5.57627 29.8027 5.95289C30.1569 6.3294 30.1569 6.94214 29.8027 7.31865L28.6806 8.51147C27.69 8.98273 26.9883 10.0214 26.9454 11.2368C26.5877 11.1288 26.2063 11.0924 25.8179 11.1384C25.4298 11.0923 25.0481 11.1287 24.6904 11.2368C24.6475 10.0214 23.9458 8.98262 22.9551 8.51147L21.8333 7.31865C21.6617 7.13625 21.5671 6.89369 21.5671 6.63577C21.5671 6.37785 21.6616 6.13529 21.8333 5.95289ZM16.4149 10.6945C16.5865 10.5121 16.8146 10.4116 17.0573 10.4116C17.2999 10.4116 17.5281 10.5121 17.6996 10.6945L19.1296 12.2146C19.4186 12.5218 19.8533 12.6136 20.2309 12.4474C20.6085 12.2811 20.8546 11.8895 20.8546 11.4549V11.355C20.8546 10.8225 21.2622 10.3893 21.7631 10.3893C22.264 10.3893 22.6715 10.8225 22.6715 11.355V13.5782C22.6715 14.1042 23.0296 14.5527 23.5178 14.6382C24.0058 14.7236 24.4804 14.421 24.6392 13.9228C24.7806 13.479 25.2147 13.2034 25.6487 13.2819C25.7607 13.3021 25.8751 13.3021 25.9873 13.2819C26.4216 13.2032 26.8554 13.479 26.9968 13.9228C27.1554 14.4208 27.6297 14.7234 28.1182 14.6382C28.6063 14.5527 28.9645 14.1041 28.9645 13.5782V11.3551C28.9645 10.8225 29.372 10.3893 29.873 10.3893C30.3739 10.3893 30.7814 10.8225 30.7814 11.355V11.4549C30.7814 11.8893 31.0277 12.2811 31.4052 12.4474C31.7828 12.6138 32.2175 12.5218 32.5065 12.2145L33.9363 10.6945C34.2906 10.3179 34.867 10.318 35.2211 10.6945C35.5753 11.071 35.5753 11.6837 35.2211 12.0603L33.9452 13.4166C32.7446 13.7741 31.8528 14.9255 31.8066 16.3028C31.3103 16.1502 30.7712 16.1351 30.2404 16.2863C29.6175 16.4637 29.0869 16.8551 28.7052 17.3698C28.4702 15.9011 27.2654 14.7791 25.8178 14.7791C24.4096 14.7791 23.2305 15.841 22.9513 17.251C22.5754 16.79 22.0749 16.4507 21.4979 16.2863C20.967 16.1352 20.4281 16.1502 19.9316 16.3028C19.9055 15.5131 19.6038 14.7747 19.0755 14.2131C18.679 13.7916 18.1886 13.5067 17.6548 13.3785L16.4147 12.0603C16.0607 11.6837 16.0607 11.071 16.4149 10.6945ZM11.369 21.44C11.369 20.9075 11.7766 20.4743 12.2775 20.4743H12.3714C12.7801 20.4743 13.1486 20.2125 13.305 19.8112C13.4615 19.4098 13.375 18.9477 13.0861 18.6405L11.6561 17.1204C11.3019 16.7438 11.3019 16.1312 11.6561 15.7546C12.0104 15.378 12.5868 15.3781 12.9409 15.7546L14.3708 17.2747C14.6598 17.582 15.0944 17.6737 15.4721 17.5075C15.8497 17.3412 16.0959 16.9496 16.0959 16.515V16.4151C16.0959 15.8825 16.5034 15.4493 17.0043 15.4493C17.5052 15.4493 17.9128 15.8825 17.9128 16.4151V18.6383C17.9128 19.1643 18.2709 19.6128 18.759 19.6983C19.2472 19.7836 19.7218 19.481 19.8804 18.983C20.0333 18.5032 20.5143 18.2305 20.9751 18.3615C21.1044 18.3984 21.2205 18.4649 21.3196 18.5523C20.9822 18.7063 20.6717 18.9283 20.4043 19.2127C19.8509 19.801 19.5461 20.5829 19.5461 21.4149C19.5461 22.2092 19.824 22.958 20.3308 23.5361C19.8785 23.8013 19.4871 24.1958 19.2124 24.7018C19.1013 24.9063 19.0141 25.1199 18.95 25.3384L15.2341 26.3405C15.2298 26.3417 15.2254 26.3429 15.2211 26.3441C14.7371 26.4821 14.238 26.1757 14.1084 25.6613C13.9849 25.1712 14.2417 24.6601 14.693 24.4977C15.1615 24.3289 15.4463 23.8245 15.3659 23.3056C15.2854 22.7866 14.8634 22.4059 14.3688 22.4059H12.2775C11.7766 22.4057 11.369 21.9725 11.369 21.44ZM15.4275 28.5741L16.8913 37.8877H10.8821L9.09184 28.5741H15.4275ZM2.27568 28.5742L7.0292 28.5741L8.81931 37.8877H4.2589L2.27568 28.5742ZM4.71645 40.0361H9.2323L9.6453 42.1847H5.17391L4.71645 40.0361ZM7.44532 52.8516L5.63147 44.3331H10.0582L11.6955 52.8516H7.44532ZM11.2949 40.0361H17.229L17.5668 42.1847H11.708L11.2949 40.0361ZM13.7583 52.8516L12.1209 44.3331H17.9045L19.2432 52.8516H13.7583ZM24.8588 52.8516H21.2923L19.9535 44.3331H24.8588V52.8516ZM24.8588 42.1847H19.6158L19.278 40.0361H24.8588V42.1847ZM24.8588 37.8877H18.9403L17.4765 28.5741H20.0851C20.1353 28.5823 20.1859 28.5879 20.2373 28.5879H24.8588V37.8877ZM30.4761 52.8516H26.8798V44.3331H31.8155L30.4761 52.8516ZM32.1533 42.1847H26.8798V40.0361H32.4911L32.1533 42.1847ZM37.6843 52.8516H32.5251L33.8645 44.3331H39.4217L37.6843 52.8516ZM44.2932 52.8516H39.7523L41.4897 44.3331H46.1072L44.2932 52.8516ZM46.5646 42.1847H41.9278L42.3661 40.0361H47.0222L46.5646 42.1847ZM47.4757 37.9063C47.4161 37.8946 47.3549 37.8877 47.292 37.8877H42.8042L44.7039 28.574H49.463L47.4757 37.9063Z" fill="#D1C396"/>
<path d="M21.3211 32.6076C20.763 32.6076 20.3106 33.0885 20.3106 33.6818V33.7024C20.3106 34.2957 20.763 34.7767 21.3211 34.7767C21.8792 34.7767 22.3316 34.2957 22.3316 33.7024V33.6818C22.3316 33.0885 21.8792 32.6076 21.3211 32.6076Z" fill="#D1C396"/>
<path d="M30.4175 32.6076C29.8594 32.6076 29.407 33.0885 29.407 33.6818V33.7024C29.407 34.2957 29.8594 34.7767 30.4175 34.7767C30.9756 34.7767 31.428 34.2957 31.428 33.7024V33.6818C31.428 33.0885 30.9756 32.6076 30.4175 32.6076Z" fill="#D1C396"/>
<path d="M39.208 32.6076C38.6499 32.6076 38.1974 33.0885 38.1974 33.6818V33.7024C38.1974 34.2957 38.6499 34.7767 39.208 34.7767C39.7661 34.7767 40.2185 34.2957 40.2185 33.7024V33.6818C40.2185 33.0885 39.7661 32.6076 39.208 32.6076Z" fill="#D1C396"/>
<path d="M12.9348 32.6076C12.3767 32.6076 11.9243 33.0885 11.9243 33.6818V33.7024C11.9243 34.2957 12.3767 34.7767 12.9348 34.7767C13.4929 34.7767 13.9453 34.2957 13.9453 33.7024V33.6818C13.9453 33.0885 13.4929 32.6076 12.9348 32.6076Z" fill="#D1C396"/>
<path d="M5.81417 32.6076C5.25606 32.6076 4.80366 33.0885 4.80366 33.6818V33.7024C4.80366 34.2957 5.25606 34.7767 5.81417 34.7767C6.37227 34.7767 6.82467 34.2957 6.82467 33.7024V33.6818C6.82467 33.0885 6.37227 32.6076 5.81417 32.6076Z" fill="#D1C396"/>
<path d="M46.2478 32.6076C45.6897 32.6076 45.2373 33.0885 45.2373 33.6818V33.7024C45.2373 34.2957 45.6897 34.7767 46.2478 34.7767C46.8059 34.7767 47.2584 34.2957 47.2584 33.7024V33.6818C47.2584 33.0885 46.8059 32.6076 46.2478 32.6076Z" fill="#D1C396"/>
</svg>
