<svg width="169" height="165" viewBox="0 0 169 165" fill="none" xmlns="http://www.w3.org/2000/svg">
<path fill-rule="evenodd" clip-rule="evenodd" d="M12.7087 138.692V134.068C12.7087 133.806 12.6217 133.588 12.317 133.588H5.96266C5.658 133.588 5.57095 133.806 5.57095 134.068V139.216C5.57095 139.391 5.61447 139.391 5.70152 139.521C9.22689 142.575 13.1004 145.629 16.5388 148.77C17.7139 149.818 18.2797 151.345 18.2797 152.915V158.936C18.2797 162.164 15.4507 165 12.317 165H5.96266C2.69843 165 0 162.295 0 159.023V153.351C0 153.09 0.217615 152.915 0.43523 152.915H5.13572C5.39686 152.915 5.57095 153.133 5.57095 153.351V158.892C5.57095 159.154 5.658 159.372 5.96266 159.372H12.317C12.6217 159.372 12.7087 159.154 12.7087 158.892V152.915C12.7087 152.741 12.6652 152.741 12.5782 152.61C9.05279 149.599 5.0922 146.502 1.74092 143.361C0.609323 142.27 0 140.787 0 139.216V134.024C0 130.796 2.87252 127.96 5.96266 127.96H12.317C15.5813 127.96 18.2797 130.621 18.2797 133.937V138.649C18.2797 138.911 18.0621 139.085 17.8444 139.085H13.144C12.9263 139.129 12.7087 138.911 12.7087 138.692ZM22.1532 164.476C22.1532 164.738 22.3273 164.956 22.5885 164.956H27.289C27.5501 164.956 27.7242 164.738 27.7242 164.52V153.002C27.7242 152.784 27.7677 152.697 27.8548 152.653L38.692 143.404C39.8671 142.401 40.4329 140.83 40.4329 139.26V134.068C40.4329 130.839 37.5604 128.004 34.4703 128.004H28.1159C24.8517 128.004 22.1532 130.665 22.1532 133.981V164.476ZM27.7242 134.068C27.7242 133.806 27.8112 133.588 28.1159 133.588H34.4703C34.7749 133.588 34.862 133.806 34.862 134.068V139.216C34.862 139.391 34.8184 139.391 34.7314 139.521L27.7242 145.411V134.068ZM49.8774 134.024C49.8774 133.632 49.7468 133.544 49.3987 133.544H43.0443C42.7832 133.544 42.6091 133.326 42.6091 133.108V128.44C42.6091 128.178 42.8267 128.004 43.0443 128.004H49.3987C52.4453 128.004 55.4484 130.97 55.4484 134.024V158.979C55.4484 162.295 52.7499 164.956 49.4857 164.956H43.0878C39.9977 164.956 37.1252 162.164 37.1252 158.892V153.7C37.1252 152.13 37.6474 150.559 38.8661 149.556L49.7468 140.307C49.8339 140.263 49.8774 140.089 49.8774 139.958V134.024ZM49.8339 158.936C49.8339 159.198 49.7468 159.416 49.4422 159.416H43.0878C42.7832 159.416 42.6961 159.198 42.6961 158.936V153.788C42.6961 153.613 42.7396 153.613 42.8267 153.482L49.8774 147.636L49.8339 158.936ZM73.5104 145.586L76.4265 148.945C77.4275 150.123 78.2544 151.65 78.2544 153.177V164.52C78.2544 164.782 78.0368 164.956 77.8192 164.956H73.1187C72.8576 164.956 72.6835 164.738 72.6835 164.52V153.351C72.6835 153.09 72.5964 152.959 72.5094 152.871L69.2887 149.207L65.2411 152.653C65.154 152.697 65.1105 152.784 65.1105 153.002V164.52C65.1105 164.782 64.8929 164.956 64.6753 164.956H59.9748C59.7136 164.956 59.5395 164.738 59.5395 164.476V133.981C59.5395 130.665 62.238 128.004 65.5022 128.004H71.813C74.9032 128.004 77.7757 130.796 77.7757 134.068V139.26C77.7757 140.83 77.2534 142.401 76.0348 143.404L73.5104 145.586ZM65.067 134.068C65.067 133.806 65.154 133.588 65.4587 133.588H71.813C72.1177 133.588 72.2047 133.806 72.2047 134.068V139.216C72.2047 139.391 72.1612 139.391 72.0742 139.521L65.067 145.411V134.068ZM102.323 164.52C102.323 164.782 102.105 164.956 101.887 164.956H97.187C96.9258 164.956 96.7517 164.738 96.7517 164.52V128.44C96.7517 128.178 96.9694 128.004 97.187 128.004H101.887C102.149 128.004 102.323 128.222 102.323 128.44V164.52ZM119.123 138.692V134.068C119.123 133.806 119.036 133.588 118.731 133.588H112.377C112.072 133.588 111.985 133.806 111.985 134.068V139.216C111.985 139.391 112.028 139.391 112.115 139.521C115.641 142.575 119.514 145.629 122.953 148.77C124.128 149.818 124.694 151.345 124.694 152.915V158.936C124.694 162.164 121.865 165 118.731 165H112.377C109.112 165 106.414 162.339 106.414 159.023V153.351C106.414 153.09 106.631 152.915 106.849 152.915H111.55C111.811 152.915 111.985 153.133 111.985 153.351V158.892C111.985 159.154 112.072 159.372 112.377 159.372H118.731C119.036 159.372 119.123 159.154 119.123 158.892V152.915C119.123 152.741 119.079 152.741 118.992 152.61C115.467 149.599 111.506 146.502 108.155 143.361C107.023 142.27 106.414 140.787 106.414 139.216V134.024C106.414 130.796 109.286 127.96 112.377 127.96H118.731C121.995 127.96 124.694 130.621 124.694 133.937V138.649C124.694 138.911 124.476 139.085 124.258 139.085H119.558C119.34 139.129 119.123 138.911 119.123 138.692ZM134.007 138.692V134.068C134.007 133.806 134.095 133.588 134.399 133.588H140.667C141.058 133.588 141.145 133.675 141.145 134.068V140.001C141.145 140.132 141.102 140.307 141.015 140.35L130.134 149.599C128.959 150.603 128.393 152.173 128.393 153.744V158.936C128.393 162.208 131.266 165 134.356 165H140.71C143.974 165 146.673 162.339 146.673 159.023V134.068C146.673 131.014 143.67 128.047 140.623 128.047H134.356C131.091 128.047 128.393 130.709 128.393 133.981V138.692C128.393 138.954 128.611 139.129 128.828 139.129H133.529C133.833 139.129 134.007 138.911 134.007 138.692ZM141.145 158.936C141.145 159.198 141.058 159.416 140.754 159.416H134.399C134.095 159.416 134.007 159.198 134.007 158.936V153.788C134.007 153.613 134.051 153.613 134.138 153.482L141.189 147.636L141.145 158.936ZM156.291 164.52C156.291 164.782 156.074 164.956 155.856 164.956H151.156C150.894 164.956 150.72 164.738 150.72 164.52V128.44C150.72 128.178 150.938 128.004 151.156 128.004H155.856C156.117 128.004 156.291 128.222 156.291 128.44V132.017L158.511 130.141C160.121 128.789 161.732 127.96 163.386 128.004C166.389 128.047 169 130.403 169 133.806V164.52C169 164.782 168.782 164.956 168.565 164.956H163.864C163.603 164.956 163.429 164.738 163.429 164.52V134.024C163.429 133.632 163.081 133.501 162.776 133.763L156.291 139.478V164.52ZM89.6575 133.544V164.52C89.6575 164.782 89.4399 164.956 89.2223 164.956H84.5218C84.2606 164.956 84.0865 164.738 84.0865 164.52V133.544H80.2565C79.9954 133.544 79.8213 133.326 79.8213 133.108V128.44C79.8213 128.178 80.0389 128.004 80.2565 128.004H93.3569C93.6181 128.004 93.7922 128.222 93.7922 128.44V133.108C93.7922 133.37 93.5746 133.544 93.3569 133.544H89.6575ZM167.259 109.767C167.259 110.596 166.911 110.858 166.302 110.858H165.692V112.298H166.215C166.954 112.298 167.259 112.647 167.259 113.607V114.392C167.259 115.308 166.954 115.526 166.432 115.526C165.91 115.526 165.605 115.264 165.605 114.523V113.563H164.082V114.392C164.082 116.006 164.909 116.966 166.476 116.966C168.042 116.966 168.869 116.05 168.869 114.392V113.607C168.869 112.559 168.565 111.818 167.738 111.469C168.521 111.163 168.869 110.465 168.869 109.375V109.113C168.869 107.499 168.042 106.539 166.476 106.539C164.909 106.539 164.082 107.455 164.082 109.113V109.68H165.605V109.069C165.605 108.328 165.91 108.066 166.432 108.066C166.954 108.066 167.259 108.328 167.259 109.244V109.767ZM161.209 109.2C161.209 112.167 158.032 112.647 158.032 115.657V116.922H162.646V115.483H159.599C159.599 115.395 159.599 115.352 159.599 115.264C159.599 113.607 162.776 112.385 162.776 109.2C162.776 107.586 161.949 106.626 160.382 106.626C158.816 106.626 157.989 107.542 157.989 109.2V110.204H159.512V109.069C159.512 108.328 159.817 108.066 160.339 108.066C160.905 108.066 161.209 108.284 161.209 109.2ZM151.765 114.479C151.765 116.093 152.635 117.053 154.202 117.053C155.769 117.053 156.639 116.137 156.639 114.479V109.157C156.639 107.542 155.769 106.582 154.202 106.582C152.635 106.582 151.765 107.499 151.765 109.157V114.479ZM153.375 109.069C153.375 108.328 153.68 108.066 154.202 108.066C154.724 108.066 155.029 108.328 155.029 109.069V114.566C155.029 115.308 154.724 115.57 154.202 115.57C153.68 115.57 153.375 115.308 153.375 114.566V109.069ZM148.936 109.2C148.936 112.167 145.759 112.647 145.759 115.657V116.922H150.372V115.483H147.326C147.326 115.395 147.326 115.352 147.326 115.264C147.326 113.607 150.503 112.385 150.503 109.2C150.503 107.586 149.676 106.626 148.109 106.626C146.542 106.626 145.715 107.542 145.715 109.2V110.204H147.238V109.069C147.238 108.328 147.543 108.066 148.065 108.066C148.631 108.066 148.936 108.284 148.936 109.2ZM11.2289 108.153H12.8828V116.922H14.4932V108.153H16.1471V106.713H11.2289V108.153ZM5.658 109.157C5.658 112.08 8.79166 112.472 8.79166 114.566C8.79166 115.308 8.48699 115.57 7.96472 115.57C7.44244 115.57 7.13778 115.308 7.13778 114.566V113.825H5.61447V114.435C5.61447 116.05 6.44141 117.01 8.00824 117.01C9.57507 117.01 10.402 116.093 10.402 114.435C10.402 111.512 7.26835 111.12 7.26835 109.026C7.26835 108.284 7.57301 108.022 8.05176 108.022C8.57404 108.022 8.83518 108.284 8.83518 109.026V109.462H10.3585V109.157C10.3585 107.542 9.57507 106.582 8.00824 106.582C6.48493 106.582 5.658 107.542 5.658 109.157ZM1.74092 108.153H4.48287V106.713H0.130569V116.922H4.48287V115.483H1.74092V112.472H3.91707V111.033H1.74092V108.153ZM165.953 82.8054L163.908 82.7618V83.1108C163.908 83.4598 163.908 83.7216 163.951 83.9397C163.995 84.1579 164.082 84.3324 164.212 84.4632C164.343 84.5941 164.561 84.6814 164.909 84.6814C165.213 84.6814 165.475 84.6378 165.649 84.5069C165.823 84.376 165.91 84.2015 165.953 84.027C165.997 83.8088 166.04 83.5471 166.04 83.198L165.953 82.8054ZM159.468 80.4931L167.694 80.7113L167.607 83.9833C167.607 84.5941 167.477 85.1177 167.259 85.5539C167.041 85.9902 166.737 86.3392 166.345 86.5574C165.953 86.7755 165.431 86.9064 164.822 86.9064C164.343 86.9064 163.908 86.8191 163.56 86.6883C163.211 86.5574 162.907 86.3392 162.689 86.1211C162.472 85.8593 162.297 85.5539 162.21 85.2049C162.123 84.8559 162.08 84.4196 162.08 83.9397L162.123 82.7181L159.381 82.6309L159.468 80.4931ZM164.387 67.6666C164.3 67.2739 164.125 66.8813 163.864 66.5759C163.603 66.2705 163.298 66.0087 162.907 65.8778C162.559 65.747 162.167 65.7033 161.819 65.747C161.34 65.8342 160.948 66.0087 160.644 66.2705C160.295 66.5322 160.078 66.8813 159.947 67.2739C159.817 67.6666 159.773 68.0592 159.86 68.4955C159.947 68.9318 160.121 69.2808 160.382 69.5862C160.644 69.8916 160.992 70.1097 161.383 70.2842C161.775 70.4151 162.21 70.4588 162.689 70.3715C163.037 70.2842 163.386 70.1534 163.69 69.8916C163.995 69.6298 164.212 69.2808 164.343 68.8882C164.43 68.4955 164.474 68.0592 164.387 67.6666ZM166.432 67.3176C166.519 67.8847 166.519 68.4955 166.432 69.0627C166.345 69.6298 166.127 70.197 165.823 70.6769C165.518 71.1568 165.126 71.5931 164.648 71.8985C164.169 72.2475 163.647 72.4656 163.037 72.5529C162.384 72.6838 161.775 72.6838 161.166 72.5529C160.557 72.422 160.034 72.2039 159.555 71.8548C159.077 71.5058 158.685 71.1132 158.38 70.5896C158.076 70.0661 157.858 69.4989 157.728 68.8445C157.597 68.1901 157.597 67.5793 157.728 67.0122C157.858 66.445 158.076 65.8778 158.424 65.3979C158.772 64.918 159.164 64.5254 159.686 64.22C160.208 63.9146 160.774 63.6965 161.427 63.5656C162.036 63.4783 162.602 63.4783 163.168 63.6528C163.734 63.7837 164.212 64.0455 164.691 64.3945C165.126 64.7435 165.518 65.1798 165.823 65.7033C166.127 66.1832 166.345 66.7068 166.432 67.3176ZM157.423 50.39L158.685 53.2258L161.601 51.917L162.472 53.8802L154.942 57.2832L154.072 55.3199L157.162 53.9238L155.9 51.088L152.809 52.4841L151.939 50.5209L159.468 47.1179L160.339 49.0812L157.423 50.39ZM154.811 39.614L152.94 39.7885C153.027 39.2213 152.896 38.7414 152.635 38.3051C152.505 38.1306 152.331 37.9561 152.157 37.8689C151.939 37.7816 151.765 37.7816 151.591 37.9125C151.417 38.0434 151.33 38.1742 151.33 38.3924C151.33 38.6105 151.373 38.8287 151.46 39.1341L151.634 39.7012C151.808 40.3556 151.852 40.9228 151.765 41.4027C151.678 41.8826 151.373 42.3189 150.851 42.6243C150.024 43.1478 149.241 43.3223 148.544 43.1042C147.761 42.886 147.151 42.3625 146.629 41.5336C146.063 40.661 145.802 39.6576 145.846 38.5669L147.804 38.3924C147.674 39.2649 147.761 39.9194 148.109 40.4429C148.24 40.661 148.457 40.8355 148.675 40.9228C148.892 41.01 149.153 41.01 149.371 40.8355C149.589 40.7047 149.676 40.4865 149.676 40.2247C149.632 39.963 149.589 39.614 149.458 39.2213C149.284 38.6978 149.197 38.2615 149.153 37.9125C149.11 37.5635 149.197 37.2581 149.328 36.9527C149.502 36.6473 149.763 36.3419 150.198 36.0801C150.677 35.7747 151.112 35.6438 151.634 35.6002C152.113 35.5566 152.592 35.6875 152.984 35.9492C153.419 36.1674 153.767 36.56 154.072 36.9963C154.289 37.3453 154.507 37.7816 154.637 38.2179C154.724 38.7414 154.811 39.1777 154.811 39.614ZM140.841 26.5693L145.106 26.0894L146.934 28.009L141.842 28.358L141.189 33.9424L139.274 31.9355L139.97 27.4418L137.402 29.9286L135.922 28.358L141.885 22.6428L143.365 24.2134L140.841 26.5693ZM130.526 15.7932L129.351 17.4511L129.525 17.582C129.742 17.7565 129.96 17.8874 130.177 17.931C130.395 18.0182 130.569 18.0182 130.787 17.9746C131.004 17.931 131.178 17.8001 131.353 17.582C131.527 17.3638 131.57 17.1457 131.57 16.9276C131.527 16.7094 131.44 16.5349 131.309 16.3604C131.178 16.1859 130.961 16.0114 130.743 15.8805L130.526 15.7932ZM130.395 19.6325L130.569 23.908L128.393 22.3374L128.567 18.5854L126.739 21.1594L124.998 19.8942L129.786 13.1756L132.397 15.0516C132.832 15.357 133.181 15.7496 133.442 16.1423C133.703 16.5349 133.79 16.9712 133.79 17.4075C133.79 17.8437 133.572 18.3236 133.268 18.7599C133.05 19.0653 132.789 19.3271 132.484 19.5016C132.18 19.6761 131.875 19.807 131.527 19.807C131.091 19.8942 130.743 19.807 130.395 19.6325ZM117.121 8.5074C116.729 8.33289 116.337 8.28926 115.945 8.28926C115.554 8.33289 115.162 8.46378 114.814 8.68191C114.466 8.90005 114.248 9.20545 114.074 9.51084C113.9 9.94712 113.813 10.3398 113.856 10.776C113.9 11.2123 114.03 11.605 114.248 11.9104C114.466 12.2594 114.814 12.5212 115.162 12.6957C115.554 12.8702 115.945 12.9138 116.337 12.8702C116.729 12.8265 117.121 12.652 117.469 12.4339C117.817 12.1721 118.078 11.8231 118.252 11.4305C118.426 11.0814 118.47 10.7324 118.383 10.3398C118.339 9.94712 118.165 9.5981 117.947 9.24907C117.817 8.94368 117.512 8.68191 117.121 8.5074ZM117.991 6.63141C118.513 6.89318 118.992 7.19857 119.427 7.63485C119.862 8.07113 120.167 8.5074 120.385 9.03094C120.602 9.55447 120.733 10.1216 120.733 10.6888C120.733 11.2559 120.602 11.8231 120.385 12.3903C120.124 13.0011 119.775 13.481 119.34 13.9172C118.905 14.3535 118.426 14.6589 117.86 14.8334C117.295 15.0516 116.729 15.1388 116.163 15.0952C115.554 15.0516 114.988 14.9207 114.379 14.6589C113.769 14.3971 113.29 14.0481 112.855 13.6118C112.42 13.1756 112.115 12.6957 111.898 12.1285C111.68 11.5613 111.593 10.9942 111.637 10.427C111.68 9.81623 111.811 9.20545 112.072 8.63829C112.333 8.07113 112.681 7.63485 113.116 7.2422C113.552 6.84955 114.03 6.58778 114.596 6.41327C115.162 6.23876 115.728 6.19513 116.294 6.19513C116.903 6.23876 117.469 6.36965 117.991 6.63141ZM95.4896 0.56716L95.9683 6.06425L98.6232 1.13432L100.321 1.43971L100.973 6.98043L103.454 2.00687L105.63 2.39952L101.583 10.078L99.4502 9.68535L98.8844 4.71179H98.8409L96.4036 9.16182L94.2709 8.76917L93.3134 0.218139L95.4896 0.56716ZM73.8151 3.83924L76.9052 3.44659L76.5135 0.261766L78.6461 0L79.6907 8.20201L77.5581 8.46378L77.1228 5.10444L74.0327 5.49709L74.4679 8.85642L72.3353 9.11819L71.2908 0.916182L73.4234 0.654416L73.8151 3.83924ZM61.9333 5.01719L63.6742 11.2123L61.6286 11.7795L59.8877 5.58435L58.1903 6.06425L57.7116 4.31914L63.1084 2.74855L63.5872 4.49365L61.9333 5.01719ZM49.6598 13.4373L47.7013 11.4741L48.093 14.2226L49.6598 13.4373ZM50.922 14.6153L48.3106 15.9677L48.4412 17.4947L46.3956 18.5418L45.4381 9.72898L47.5272 8.63829L54.0556 14.5717L52.01 15.6187L50.922 14.6153ZM33.5563 19.6761L34.5573 20.9413L34.7314 20.8104C34.9925 20.5923 35.2101 20.3741 35.2972 20.156C35.3842 19.9379 35.3407 19.7197 35.1666 19.458C34.949 19.1962 34.7314 19.1089 34.5138 19.1526C34.2962 19.1962 33.9915 19.3707 33.6868 19.5888L33.5563 19.6761ZM38.5614 24.1698L35.95 26.2203L30.8578 19.7197L33.2516 17.8437C34.5138 16.8403 35.6019 16.8839 36.5158 18.0182C37.0381 18.6727 37.1252 19.2834 36.864 19.8942C37.3428 19.5888 37.8215 19.5016 38.2568 19.6325C38.692 19.7634 39.0837 20.0251 39.4754 20.505C39.9542 21.1158 40.0847 21.7702 39.8671 22.4246C39.693 23.0354 39.2143 23.6462 38.5614 24.1698ZM35.5583 22.2065L36.6464 23.6026L36.864 23.4281C37.2993 23.0791 37.5604 22.8173 37.7345 22.5119C37.9086 22.2501 37.8651 21.9447 37.6474 21.683C37.4298 21.3776 37.1687 21.2903 36.9075 21.334C36.6464 21.4212 36.3417 21.5521 35.9936 21.8139L35.6889 22.032L35.5583 22.2065ZM25.548 37.1708L24.5035 37.3017C24.46 38.4796 24.1988 39.4394 23.6765 40.1811C23.4154 40.5738 23.0672 40.8792 22.6755 41.0973C22.2838 41.3154 21.8921 41.4027 21.4569 41.4027C21.0216 41.4027 20.6299 41.2282 20.2382 40.9664C19.7595 40.6174 19.4983 40.2247 19.3678 39.7885C19.2372 39.3522 19.2807 38.785 19.4113 38.1742L19.4548 37.9561H19.1501C18.9325 37.9561 18.7584 37.9561 18.6279 37.9561C18.4973 37.9561 18.3232 37.9125 18.1491 37.8689C17.975 37.8252 17.8009 37.738 17.6268 37.6071C17.2351 37.3453 17.0175 36.9963 16.8434 36.6036C16.7129 36.211 16.6693 35.8183 16.7564 35.3821C16.8434 34.9458 17.0175 34.5531 17.2787 34.2041C17.5398 33.8551 17.8445 33.5497 18.2362 33.3316C18.6279 33.1134 19.0196 33.0262 19.4113 33.0262C19.8465 33.0262 20.2382 33.1571 20.5864 33.4188C20.9781 33.6806 21.1957 34.0296 21.2828 34.4223C21.3698 34.8149 21.3698 35.2948 21.2828 35.8183L22.7626 35.6002C22.719 34.9458 22.632 34.4659 22.4579 34.0296L24.1118 33.7242L24.4164 35.2076L24.46 35.3384L27.1149 34.9458L25.548 37.1708ZM19.9771 35.9929C20.0206 35.7311 19.9771 35.513 19.9336 35.2948C19.89 35.0767 19.7595 34.9022 19.5854 34.7713C19.4113 34.6404 19.2372 34.5968 19.0196 34.6404C18.802 34.6404 18.6714 34.7713 18.5408 34.9458C18.4102 35.1203 18.3667 35.2948 18.4102 35.4693C18.4538 35.6438 18.5408 35.8184 18.6714 35.9056C18.802 35.9929 18.9761 36.0801 19.1501 36.0801C19.3678 36.0365 19.6289 36.0365 19.9771 35.9929ZM22.8061 37.5198L20.8911 37.738C20.8911 37.9997 20.8911 38.2615 20.9346 38.4796C20.9781 38.6978 21.0652 38.8287 21.2392 38.9595C21.3698 39.0468 21.5004 39.0904 21.631 39.0904C21.7615 39.0904 21.9356 39.0468 22.0662 38.9595C22.1968 38.8723 22.3273 38.785 22.4144 38.6541C22.632 38.3051 22.7626 37.9561 22.8061 37.5198ZM11.9688 54.8837L9.22689 54.7528L11.3595 56.5415L11.9688 54.8837ZM13.7098 54.9709L12.6217 57.7195L13.7533 58.7665L12.9263 60.9043L6.44141 54.9273L7.31187 52.7459L16.1035 52.8768L15.2331 54.9709H13.7098ZM4.3523 70.1534L6.35437 70.5024L6.39789 70.1534C6.44141 69.8043 6.48493 69.5426 6.48493 69.3244C6.48493 69.1063 6.44141 68.9318 6.31084 68.7573C6.18027 68.5828 5.96266 68.4955 5.658 68.4519C5.35333 68.4082 5.0922 68.4082 4.9181 68.5391C4.74401 68.6264 4.61344 68.8009 4.56992 68.9754C4.48287 69.1499 4.43935 69.4553 4.3523 69.8043V70.1534ZM10.402 73.4254L2.30672 71.9857L2.87252 68.7573C2.95957 68.1465 3.17718 67.6666 3.43832 67.2303C3.69946 66.8377 4.04764 66.5323 4.5264 66.3577C4.96163 66.1832 5.4839 66.1396 6.09323 66.2705C6.57198 66.3577 6.96369 66.4886 7.31187 66.6631C7.61653 66.8376 7.87767 67.0994 8.05176 67.3612C8.22586 67.6666 8.35643 67.972 8.39995 68.3646C8.44347 68.7573 8.44347 69.1499 8.35643 69.6298L8.13881 70.8514L10.8372 71.3313L10.402 73.4254ZM1.91501 81.2348L3.61241 82.0637C3.26423 82.5 3.09014 82.9799 3.09014 83.5034C3.09014 83.7216 3.17718 83.9397 3.30775 84.1142C3.43832 84.2887 3.61241 84.4196 3.83003 84.376C4.04764 84.376 4.17821 84.2887 4.30878 84.1142C4.39583 83.9397 4.5264 83.7216 4.61344 83.4162L4.74401 82.849C4.9181 82.1946 5.17924 81.6711 5.52743 81.322C5.87561 80.973 6.35437 80.7549 6.96369 80.7549C7.96472 80.7113 8.70461 80.973 9.18336 81.5402C9.70564 82.151 10.0103 82.9363 10.0103 83.8525C10.0538 84.8995 9.74916 85.8593 9.13984 86.7755L7.39892 85.903C7.96472 85.2485 8.22586 84.5941 8.22586 83.9833C8.22586 83.7216 8.13881 83.4598 8.00824 83.2417C7.87767 83.0235 7.66006 82.9363 7.39892 82.9363C7.13778 82.9363 6.96369 83.0672 6.83312 83.2853C6.70255 83.5471 6.6155 83.8525 6.48493 84.2451C6.35437 84.7686 6.2238 85.2049 6.0497 85.5103C5.91913 85.8157 5.70152 86.0775 5.39686 86.252C5.0922 86.4265 4.70049 86.5137 4.22174 86.5574C3.65594 86.5574 3.17718 86.4701 2.74195 86.2084C2.30672 85.9902 2.00206 85.6412 1.74092 85.2049C1.47978 84.7686 1.39274 84.2887 1.34921 83.7652C1.34921 83.3289 1.39274 82.8926 1.47978 82.4127C1.56683 82.0201 1.6974 81.6274 1.91501 81.2348ZM118.122 86.9064C118.296 85.5103 118.296 84.2015 118.165 82.9363C118.078 82.2382 117.947 81.5838 117.773 80.973C117.382 79.6206 116.816 78.5735 116.119 77.8755C115.858 77.6137 115.597 77.3956 115.38 77.3519C114.204 78.0936 112.638 77.8755 111.767 76.7848C111.55 76.4794 111.375 76.174 111.288 75.825C111.114 75.0833 110.505 74.5161 109.635 74.0798C108.242 73.4254 106.327 73.1637 104.238 73.2509C103.585 73.2945 102.888 73.3382 102.192 73.4691C102.714 74.6034 102.54 75.7377 102.41 76.9156C102.323 77.6573 102.236 78.399 102.584 78.7044C102.845 78.9225 103.498 78.748 104.238 78.5735C106.109 78.1372 108.111 77.6573 110.418 79.5769C112.986 81.7583 112.42 83.7652 111.898 85.5976C111.724 86.1211 111.593 86.6446 111.724 86.7319C111.941 86.9064 112.551 86.7319 113.203 86.601C114.814 86.2084 116.424 85.8157 118.122 86.9064ZM113.421 96.4609C114.988 94.7594 116.119 93.0143 116.903 91.2255C116.903 90.8765 116.772 90.5275 116.511 90.2657C115.902 89.6113 114.988 89.8295 114.161 90.0476C112.507 90.4402 110.94 90.8329 109.243 89.3495C107.502 87.779 107.894 86.2956 108.372 84.6814C108.59 83.8525 108.851 82.9799 108.024 82.2382C107.197 81.5402 106.153 81.802 105.195 82.0201C103.454 82.4564 101.887 82.8054 100.147 81.322C98.4056 79.7951 98.5797 78.1809 98.7973 76.523C98.8844 75.7377 98.9714 74.9088 98.4491 74.4725C98.2315 74.5598 98.0574 74.647 97.8398 74.6906C95.7507 75.5632 94.0968 76.8284 93.531 78.2681C95.7942 79.926 95.5766 81.7583 95.359 83.5907C95.272 84.3324 95.1849 85.074 95.5331 85.3794C95.7942 85.5976 96.4906 85.4667 97.187 85.2922C99.0585 84.8559 101.061 84.376 103.367 86.3392C105.935 88.5206 105.369 90.5275 104.891 92.3599C104.76 92.8834 104.586 93.4069 104.716 93.4942C104.934 93.6687 105.587 93.5378 106.24 93.3633C108.155 92.8834 110.2 92.4035 112.289 94.7158C112.855 95.2393 113.203 95.8501 113.421 96.4609ZM88.2212 95.8937C88.0471 96.5045 87.873 97.1153 87.6554 97.7261C87.4378 98.5114 87.1767 99.253 86.9591 100.038C86.7414 100.867 86.5238 101.783 86.4368 102.7C86.6544 104.881 86.4803 107.062 86.2627 108.895C89.3093 107.455 93.6181 105.666 97.7092 104.75C98.6667 104.532 99.6678 104.357 100.625 104.139C101.061 104.052 101.496 103.965 101.931 103.878C101.452 103.79 100.886 103.878 100.321 103.965C98.5797 104.227 96.8823 104.445 95.1849 102.961C93.4005 101.391 93.7486 99.8638 94.1839 98.206C94.4015 97.3771 94.6191 96.4609 93.8357 95.7628C93.0088 95.0648 91.9642 95.2829 91.0067 95.5447C90.0492 95.7628 89.1352 95.981 88.2212 95.8937ZM88.8741 80.8858C88.0471 81.3221 87.2637 82.1074 86.5673 83.1544C89.2658 86.1211 89.6575 89.1314 89.0917 92.3162C89.3963 92.2726 89.701 92.1854 90.0492 92.0981C91.9207 91.6618 93.9663 91.1383 96.273 93.1452C98.6232 95.1957 98.1445 97.1589 97.7092 98.9476C97.5787 99.5584 97.4046 100.169 97.6222 100.344C98.0139 100.693 98.8844 100.605 99.7548 100.475C101.67 100.213 103.628 99.9511 105.5 101.958C105.761 102.22 105.935 102.569 105.979 102.918C107.763 102.351 109.33 101.609 110.418 100.475C109.939 100.038 109.678 99.3839 109.852 98.7295C109.939 98.3805 109.983 98.0751 109.939 97.7697C109.896 97.5079 109.765 97.2898 109.548 97.028C108.938 96.33 108.024 96.5918 107.154 96.7663C105.5 97.1589 103.933 97.5516 102.236 96.0682C100.495 94.4976 100.886 93.0143 101.322 91.4C101.539 90.5711 101.8 89.6549 100.93 88.9569C100.059 88.2589 99.0149 88.477 98.0574 88.6951C96.3165 89.0878 94.7062 89.4804 93.0088 87.9535C91.2678 86.4265 91.4419 84.8123 91.6595 83.1544C91.7466 82.3255 91.8772 81.4966 91.2243 81.0167C90.8761 80.7549 90.5715 80.6676 90.2233 80.624C89.8751 80.5804 89.4399 80.6676 89.0482 80.7985C89.0046 80.8421 88.9176 80.8858 88.8741 80.8858ZM64.2835 72.6838C63.0649 72.5529 62.0203 72.5529 61.2369 72.7274L60.6711 72.8583C60.6711 73.9926 59.8877 75.0397 58.6691 75.3451C58.2338 75.4323 57.7551 75.4323 57.3634 75.3451C55.9271 74.996 54.5779 75.4323 53.4028 76.3049C52.3147 77.1338 51.4007 78.399 50.7044 79.7951C50.008 81.2348 49.6163 82.849 49.6163 84.3324C49.6163 85.6848 49.8774 86.95 50.5303 87.9535C51.5748 87.6481 52.6629 87.7789 53.751 87.8662C54.5344 87.9535 55.2743 88.0407 55.6225 87.6917C55.8401 87.4299 55.666 86.8191 55.4919 86.1211C55.0131 84.3324 54.5344 82.4127 56.5364 80.1877C58.7996 77.7446 60.8887 78.2681 62.8038 78.748C63.3696 78.8789 63.8918 79.0098 63.9789 78.9225C64.153 78.748 64.0224 78.1372 63.8483 77.4828C63.4131 75.9995 62.9778 74.3852 64.2835 72.6838ZM57.7551 100.431C59.1913 101.391 60.8017 102.263 62.5426 102.961C64.1965 101.129 66.0245 101.304 67.8089 101.522C68.5923 101.609 69.3757 101.696 69.6804 101.347C69.898 101.085 69.7674 100.431 69.5498 99.7329C69.0711 97.9006 68.5488 95.981 70.6814 93.7559C72.8141 91.5309 74.8596 91.9672 76.7311 92.3599C77.384 92.4907 77.9933 92.6216 78.1674 92.4471C78.5591 92.0545 78.4285 91.2255 78.298 90.4402C78.0368 88.6079 77.7322 86.7319 79.8213 84.9431C80.1259 84.6814 80.4741 84.5505 80.8223 84.5069C80.1259 82.9799 79.212 81.5838 78.1674 80.3622C77.7322 80.7549 77.0793 80.9294 76.4265 80.7985C76.0783 80.7113 75.7301 80.6676 75.4254 80.7113C75.1643 80.7549 74.9032 80.8858 74.642 81.1039C73.9457 81.7147 74.1633 82.5872 74.3809 83.4162C74.8161 84.9868 75.2078 86.5137 73.641 88.128C72.0306 89.8295 70.4638 89.4368 68.7664 89.0005C67.896 88.7824 66.982 88.5206 66.1986 89.3495C65.4587 90.1785 65.7198 91.1819 65.9374 92.0981C66.3727 93.756 66.7644 95.2829 65.154 96.9408C63.5437 98.5986 61.8463 98.4241 60.1489 98.2496C59.2784 98.1623 58.4079 98.0751 57.9292 98.6423C57.668 98.9476 57.5375 99.2967 57.4939 99.6021C57.6245 99.8202 57.668 100.126 57.7551 100.431ZM83.3466 87.7789C83.3031 87.6917 83.2596 87.6044 83.2161 87.5172L83.3466 87.7789ZM83.4337 88.0407C83.3902 87.9535 83.3466 87.8662 83.3031 87.7789L83.4337 88.0407ZM82.1715 97.6388V97.5079L83.1725 93.4942L83.3902 92.8398V91.5309C83.3902 91.4437 83.3902 91.3564 83.3902 91.2255C83.3466 90.5275 83.2596 89.8295 82.9985 89.175C82.9549 89.0878 82.9114 89.0005 82.8679 88.9133C82.8244 88.826 82.7808 88.7388 82.7373 88.6515C82.6068 88.4334 82.5197 88.2152 82.3456 88.0407V88.0843L82.3021 88.128V88.1716C81.6928 88.6951 81.8233 89.6113 81.9539 90.5275V94.0177L81.9104 94.0613L81.8669 94.1486L81.7363 94.2795V94.3231L81.6928 94.4104V94.454L81.6057 94.5412L81.5622 94.6285C81.3881 94.8466 81.214 95.1084 80.9964 95.3265C79.3425 97.028 77.7322 96.679 76.0348 96.2864C75.1643 96.1118 74.2068 95.8937 73.5104 96.6354C72.7705 97.4207 73.0317 98.4241 73.2493 99.3403C73.6845 100.998 74.0762 102.525 72.5094 104.183C71.9436 104.75 71.3778 105.099 70.812 105.317C74.5985 105.972 78.2109 107.891 80.9093 109.418C80.8223 106.452 80.9529 102.525 81.9104 99.1658C81.9539 98.3805 82.0409 97.9878 82.1715 97.6388ZM52.1406 92.8398C52.01 93.0143 51.923 93.1888 51.923 93.3633C51.836 94.0177 52.1841 94.8903 52.837 95.8501C53.2287 96.4609 53.751 97.0717 54.3603 97.6824C54.5344 97.2462 54.7955 96.8535 55.1002 96.4609C56.8411 94.2359 58.7561 94.454 60.6711 94.6721C61.4545 94.7594 62.238 94.8466 62.5426 94.4976C62.8038 94.2359 62.6297 93.5814 62.4556 92.8834C61.9768 91.0947 61.4981 89.175 63.5437 86.95C65.8068 84.4632 67.9395 85.0304 69.811 85.5103C70.3768 85.6412 70.8991 85.7721 70.9861 85.6848C71.1602 85.4667 71.0296 84.8559 70.8555 84.2451C70.3768 82.4127 69.8545 80.4495 72.2483 78.4426C73.0752 77.7446 73.9457 77.3956 74.8596 77.221H74.9032C74.2938 76.7411 73.641 76.3049 72.9882 75.9122C72.7705 75.8686 72.5964 75.7813 72.3788 75.6941C71.4648 75.1269 70.3768 74.4725 69.4193 74.2107C68.7664 74.0362 68.1136 74.0362 67.5913 74.4725C66.8949 75.0397 67.1561 75.9122 67.3737 76.7411C67.8089 78.3117 68.2006 79.8387 66.6338 81.4529C65.0234 83.1544 63.4566 82.7181 61.7592 82.2819C60.8887 82.0637 59.9748 81.802 59.2349 82.6309C58.495 83.4162 58.7561 84.4196 59.0173 85.3358C59.4525 86.9937 59.8442 88.5206 58.2774 90.1785C56.667 91.8363 54.9696 91.6618 53.2722 91.4873C53.0981 91.4873 52.8805 91.4437 52.7064 91.4437C52.6629 91.9236 52.5323 92.4471 52.1841 92.8398H52.1406ZM78.9073 56.5415C79.2555 55.9307 80.8223 55.4944 81.6928 55.3199C82.7808 55.1018 83.9124 54.9709 84.5218 54.3601C85.1311 55.0145 86.2627 55.1018 87.3508 55.3199C88.2212 55.4944 89.7881 55.9744 90.1362 56.5415C89.8751 57.1087 88.6564 57.9376 87.5684 57.7631C86.4803 57.5449 85.9145 56.9778 84.5653 56.9778C83.2161 56.9778 82.6503 57.5886 81.5622 57.7631C80.3871 57.9812 79.1684 57.1087 78.9073 56.5415ZM93.0523 55.1891C94.0098 49.9537 94.7497 50.1282 94.8802 48.3395C95.0979 45.94 94.4885 45.111 94.0533 44.1512C93.8792 44.1949 91.7466 43.8022 91.7466 44.6748C91.7031 45.7655 90.3974 45.7218 89.3093 45.7218C88.0907 45.7218 87.0896 45.1547 85.7839 45.0238C85.8275 44.3258 86.0451 42.4061 86.785 42.4498C88.8741 42.5806 90.6585 41.7081 93.0088 41.7517C93.2264 41.7517 93.444 42.0135 93.6181 42.3189C93.6181 41.9262 93.6616 41.49 93.7486 40.9664C90.7891 39.2213 87.6554 38.3924 84.4782 38.3488C81.3446 38.3488 78.1674 39.2213 75.2078 40.9664C75.2949 41.49 75.3384 41.9262 75.3384 42.3189C75.5125 42.0135 75.7301 41.7953 75.9477 41.7517C78.298 41.7081 80.1259 42.5806 82.1715 42.4498C82.9114 42.4061 83.129 44.3258 83.1725 45.0238C81.8669 45.1547 80.8658 45.7218 79.6472 45.7218C78.5591 45.7218 77.2534 45.7655 77.2099 44.6748C77.1664 43.8458 75.0773 44.2385 74.9032 44.1512C74.4679 45.111 73.8586 45.94 74.0762 48.3395C74.2503 50.1282 74.9467 49.9974 75.9042 55.1891C76.1218 55.4072 76.383 55.4944 76.6006 55.4944C77.2099 55.4944 76.557 54.7964 77.4275 53.3131C78.7767 52.615 81.127 50.6954 82.3891 51.5243C83.7383 52.3969 85.1311 52.4405 86.4803 51.5243C87.7425 50.6954 90.1362 52.6586 91.4419 53.3131C92.3124 54.7964 91.6595 55.4944 92.2689 55.4944C92.5735 55.4944 92.8347 55.3636 93.0523 55.1891ZM99.0149 35.7311C93.7922 31.5428 92.0512 21.2903 84.5218 21.4212C76.7747 21.4212 75.2078 31.5865 69.9851 35.7311C79.7777 29.6668 87.6554 29.4487 99.0149 35.7311ZM72.5529 52.2224C72.0742 58.8102 72.3353 62.0822 76.9488 69.3681C80.5176 70.8514 83.042 72.1602 84.4782 72.1602C85.9145 72.1602 88.3953 70.9387 91.9207 69.4989C96.6647 62.1259 96.9258 58.941 96.4906 52.2224C96.5341 51.9606 96.5776 51.6988 96.6212 51.4371C96.9258 51.3062 97.187 51.1753 97.4481 51.0008C99.4066 49.9101 101.365 47.9469 102.062 45.7655C102.366 44.8493 102.453 43.9767 102.323 43.1478C102.323 43.0606 102.366 43.0169 102.323 42.9297C102.323 42.6679 102.279 42.3625 102.192 42.1007C101.452 40.5301 99.4502 38.8723 96.6212 37.5198C92.6171 35.1203 87.1767 33.6806 84.5218 33.6806C81.7798 33.6806 76.2089 35.1639 72.1612 37.6507C70.4203 38.6542 68.7664 39.9194 67.2431 41.49C66.6338 42.7988 66.5032 44.1949 66.982 45.7218C67.7219 47.9032 69.6369 49.8228 71.5954 50.9572C71.8566 51.1317 72.1177 51.3062 72.4223 51.4371C72.4659 51.6988 72.5094 51.9606 72.5529 52.2224ZM79.2555 116.311C79.9083 116.966 80.1259 117.795 80.213 118.755H88.8305C88.9176 117.795 89.1352 116.966 89.7881 116.311C92.0077 115.09 89.9186 113.999 92.8782 113.214C94.4885 112.778 98.3186 112.778 100.712 112.341C101.757 112.167 102.932 111.949 104.194 111.687C112.159 110.073 122.909 103.049 128.132 96.9844C129.438 95.4574 130.221 94.5849 129.699 92.229C129.742 90.2657 127.61 81.4966 124.563 78.748C123.127 73.9053 119.688 65.747 110.853 65.8778C107.937 65.9215 105.63 63.3474 101.583 63.1729C99.0585 62.9984 98.4056 60.817 98.3621 58.7229C105.282 55.7998 110.723 40.9228 107.415 39.7885C105.935 39.2649 102.192 36.6036 101.148 33.8115C97.274 25.3913 93.6616 18.3673 84.5653 18.4109C75.3819 18.3236 71.813 25.3477 67.896 33.7678C66.8514 36.5164 63.1084 39.2213 61.6286 39.7448C58.3209 40.8792 63.8048 55.8871 70.7685 58.7229C70.725 60.817 70.1156 62.9548 67.4607 63.1729C63.4566 63.3038 61.1064 65.9215 58.1903 65.8778C49.3551 65.747 45.9168 73.9053 44.4806 78.748C41.4339 81.4966 39.3013 90.2657 39.3448 92.229C38.8226 94.5849 39.5625 95.4574 40.9117 96.9844C46.1344 103.049 56.8846 110.073 64.8493 111.687C66.155 111.949 67.3302 112.167 68.3312 112.341C70.725 112.778 74.555 112.778 76.1653 113.214C79.1249 113.999 77.0358 115.09 79.2555 116.311Z" fill="#D0D1CA"/>
</svg>
