<svg width="178" height="173" viewBox="0 0 178 173" fill="none" xmlns="http://www.w3.org/2000/svg">
<path fill-rule="evenodd" clip-rule="evenodd" d="M174.791 86.8202L172.637 86.7745V87.1404C172.637 87.5063 172.637 87.7808 172.682 88.0095C172.728 88.2382 172.82 88.4212 172.958 88.5584C173.095 88.6957 173.324 88.7872 173.691 88.7872C174.012 88.7872 174.287 88.7414 174.47 88.6042C174.654 88.4669 174.745 88.284 174.791 88.101C174.837 87.8723 174.883 87.5978 174.883 87.2319L174.791 86.8202ZM167.961 84.3958L176.625 84.6245L176.533 88.0553C176.533 88.6957 176.396 89.2446 176.166 89.702C175.937 90.1594 175.616 90.5254 175.204 90.7541C174.791 90.9828 174.241 91.12 173.599 91.12C173.095 91.12 172.637 91.0286 172.27 90.8913C171.903 90.7541 171.582 90.5254 171.353 90.2967C171.124 90.0222 170.941 89.702 170.849 89.3361C170.757 88.9701 170.711 88.5127 170.711 88.0095L170.757 86.7287L167.869 86.6372L167.961 84.3958ZM173.141 70.9474C173.049 70.5357 172.866 70.124 172.591 69.8038C172.316 69.4836 171.995 69.2092 171.582 69.0719C171.216 68.9347 170.803 68.8889 170.436 68.9347C169.932 69.0262 169.519 69.2091 169.199 69.4836C168.832 69.7581 168.603 70.124 168.465 70.5357C168.328 70.9474 168.282 71.3591 168.373 71.8165C168.465 72.2739 168.648 72.6399 168.924 72.9601C169.199 73.2803 169.565 73.509 169.978 73.692C170.39 73.8292 170.849 73.8749 171.353 73.7835C171.72 73.692 172.087 73.5547 172.407 73.2803C172.728 73.0058 172.958 72.6399 173.095 72.2282C173.187 71.8165 173.233 71.3591 173.141 70.9474ZM175.295 70.5814C175.387 71.1761 175.387 71.8165 175.295 72.4112C175.204 73.0058 174.975 73.6005 174.654 74.1037C174.333 74.6068 173.92 75.0643 173.416 75.3845C172.912 75.7504 172.362 75.9791 171.72 76.0706C171.032 76.2078 170.39 76.2078 169.749 76.0706C169.107 75.9334 168.557 75.7047 168.053 75.3387C167.548 74.9728 167.136 74.5611 166.815 74.0122C166.494 73.4632 166.265 72.8686 166.127 72.1824C165.99 71.4963 165.99 70.8559 166.127 70.2612C166.265 69.6666 166.494 69.0719 166.861 68.5687C167.227 68.0656 167.64 67.6539 168.19 67.3337C168.74 67.0135 169.336 66.7848 170.024 66.6475C170.665 66.5561 171.261 66.5561 171.857 66.739C172.453 66.8763 172.958 67.1507 173.462 67.5167C173.92 67.8826 174.333 68.34 174.654 68.889C174.975 69.3921 175.204 69.941 175.295 70.5814ZM165.806 52.8332L167.136 55.8065L170.207 54.4342L171.124 56.4926L163.193 60.0606L162.277 58.0021L165.531 56.5383L164.202 53.565L160.947 55.0288L160.03 52.9704L167.961 49.4024L168.878 51.4609L165.806 52.8332ZM163.056 41.5346L161.085 41.7176C161.176 41.123 161.039 40.6198 160.764 40.1623C160.626 39.9794 160.443 39.7964 160.26 39.7049C160.03 39.6134 159.847 39.6134 159.664 39.7507C159.48 39.8879 159.389 40.0251 159.389 40.2538C159.389 40.4825 159.434 40.7113 159.526 41.0315L159.71 41.6261C159.893 42.3123 159.939 42.9069 159.847 43.4101C159.755 43.9133 159.434 44.3707 158.884 44.6909C158.013 45.2398 157.188 45.4228 156.455 45.1941C155.63 44.9654 154.988 44.4164 154.438 43.5473C153.842 42.6325 153.567 41.5804 153.613 40.4368L155.676 40.2538C155.538 41.1687 155.63 41.8548 155.996 42.4038C156.134 42.6325 156.363 42.8154 156.592 42.9069C156.822 42.9984 157.097 42.9984 157.326 42.8154C157.555 42.6782 157.647 42.4495 157.647 42.175C157.601 41.9006 157.555 41.5346 157.417 41.123C157.234 40.574 157.142 40.1166 157.097 39.7507C157.051 39.3847 157.142 39.0645 157.28 38.7443C157.463 38.4241 157.738 38.1039 158.197 37.8295C158.701 37.5093 159.159 37.372 159.71 37.3263C160.214 37.2805 160.718 37.4178 161.131 37.6922C161.589 37.9209 161.956 38.3326 162.277 38.7901C162.506 39.156 162.735 39.6134 162.873 40.0709C162.964 40.6198 163.056 41.0772 163.056 41.5346ZM148.341 27.8575L152.833 27.3543L154.759 29.367L149.395 29.7329L148.708 35.5881L146.691 33.4839L147.424 28.7723L144.72 31.3797L143.161 29.7329L149.441 23.7406L151 25.3874L148.341 27.8575ZM137.477 16.559L136.239 18.2972L136.422 18.4344C136.652 18.6174 136.881 18.7546 137.11 18.8004C137.339 18.8919 137.523 18.8919 137.752 18.8461C137.981 18.8004 138.164 18.6631 138.348 18.4344C138.531 18.2057 138.577 17.977 138.577 17.7483C138.531 17.5196 138.439 17.3366 138.302 17.1536C138.164 16.9707 137.935 16.7877 137.706 16.6505L137.477 16.559ZM137.339 20.5843L137.523 25.0672L135.23 23.4204L135.414 19.4865L133.489 22.1854L131.655 20.8588L136.697 13.8144L139.448 15.7813C139.906 16.1015 140.273 16.5132 140.548 16.9249C140.823 17.3366 140.915 17.794 140.915 18.2515C140.915 18.7089 140.686 19.2121 140.365 19.6695C140.135 19.9897 139.86 20.2641 139.54 20.4471C139.219 20.6301 138.898 20.7673 138.531 20.7673C138.073 20.8588 137.706 20.7673 137.339 20.5843ZM123.358 8.91988C122.945 8.73691 122.533 8.69117 122.12 8.69117C121.707 8.73691 121.295 8.87414 120.928 9.10286C120.561 9.33157 120.332 9.65177 120.149 9.97197C119.965 10.4294 119.874 10.8411 119.92 11.2985C119.965 11.7559 120.103 12.1676 120.332 12.4878C120.561 12.8538 120.928 13.1282 121.295 13.3112C121.707 13.4942 122.12 13.5399 122.533 13.4942C122.945 13.4484 123.358 13.2655 123.724 13.0368C124.091 12.7623 124.366 12.3964 124.55 11.9847C124.733 11.6187 124.779 11.2528 124.687 10.8411C124.641 10.4294 124.458 10.0635 124.229 9.69752C124.091 9.37731 123.77 9.10286 123.358 8.91988ZM124.275 6.95294C124.825 7.22739 125.329 7.54759 125.787 8.00502C126.246 8.46245 126.567 8.91988 126.796 9.4688C127.025 10.0177 127.162 10.6124 127.162 11.207C127.162 11.8017 127.025 12.3964 126.796 12.991C126.521 13.6314 126.154 14.1346 125.696 14.592C125.237 15.0494 124.733 15.3696 124.137 15.5526C123.541 15.7813 122.945 15.8728 122.349 15.8271C121.707 15.7813 121.112 15.6441 120.47 15.3696C119.828 15.0952 119.324 14.7292 118.865 14.2718C118.407 13.8144 118.086 13.3112 117.857 12.7166C117.628 12.1219 117.536 11.5272 117.582 10.9326C117.628 10.2922 117.765 9.65177 118.04 9.05711C118.315 8.46245 118.682 8.00502 119.14 7.59334C119.599 7.18165 120.103 6.90719 120.699 6.72422C121.295 6.54125 121.891 6.49551 122.487 6.49551C123.129 6.54125 123.724 6.67848 124.275 6.95294ZM100.575 0.594659L101.079 6.35828L103.875 1.18932L105.663 1.50952L106.351 7.31888L108.964 2.10418L111.256 2.51586L106.993 10.5666L104.746 10.1549L104.15 4.94024H104.105L101.537 9.60603L99.2913 9.19434L98.2828 0.228715L100.575 0.594659ZM77.7461 4.02538L81.0008 3.6137L80.5882 0.274458L82.8344 0L83.9346 8.59968L81.6884 8.87414L81.23 5.35193L77.9753 5.76362L78.4337 9.28583L76.1875 9.56029L75.0873 0.960603L77.3335 0.686145L77.7461 4.02538ZM65.2315 5.26044L67.0652 11.7559L64.9106 12.3506L63.077 5.8551L61.2892 6.35828L60.785 4.52856L66.4692 2.88181L66.9735 4.71153L65.2315 5.26044ZM52.3044 14.0888L50.2416 12.0304L50.6541 14.9122L52.3044 14.0888ZM53.6338 15.3239L50.8833 16.7419L51.0209 18.3429L48.8663 19.4408L47.8578 10.2007L50.0582 9.05711L56.9343 15.2782L54.7798 16.376L53.6338 15.3239ZM35.3433 20.6301L36.3976 21.9566L36.581 21.8194C36.856 21.5907 37.0852 21.362 37.1769 21.1333C37.2686 20.9045 37.2228 20.6758 37.0394 20.4014C36.8102 20.1269 36.581 20.0354 36.3518 20.0812C36.1226 20.1269 35.8017 20.3099 35.4808 20.5386L35.3433 20.6301ZM40.615 25.3416L37.8645 27.4915L32.5012 20.6758L35.0224 18.7089C36.3518 17.6568 37.4978 17.7025 38.4605 18.8919C39.0106 19.578 39.1022 20.2184 38.8272 20.8588C39.3314 20.5386 39.8357 20.4471 40.2941 20.5843C40.7525 20.7216 41.1651 20.996 41.5776 21.4992C42.0819 22.1396 42.2194 22.8258 41.9902 23.5119C41.8069 24.1523 41.3026 24.7927 40.615 25.3416ZM37.452 23.2832L38.598 24.747L38.8272 24.564C39.2856 24.198 39.5606 23.9236 39.744 23.6034C39.9274 23.3289 39.8815 23.0087 39.6523 22.7343C39.4231 22.4141 39.1481 22.3226 38.873 22.3683C38.598 22.4598 38.2771 22.597 37.9104 22.8715L37.5895 23.1002L37.452 23.2832ZM26.9086 38.973L25.8084 39.1103C25.7626 40.3453 25.4875 41.3517 24.9374 42.1293C24.6624 42.541 24.2956 42.8612 23.8831 43.0899C23.4705 43.3186 23.0579 43.4101 22.5995 43.4101C22.1411 43.4101 21.7286 43.2271 21.316 42.9527C20.8117 42.5867 20.5367 42.175 20.3992 41.7176C20.2617 41.2602 20.3075 40.6655 20.445 40.0251L20.4909 39.7964H20.17C19.9408 39.7964 19.7574 39.7964 19.6199 39.7964C19.4824 39.7964 19.299 39.7507 19.1156 39.7049C18.9323 39.6592 18.7489 39.5677 18.5655 39.4305C18.153 39.156 17.9238 38.7901 17.7404 38.3784C17.6029 37.9667 17.557 37.555 17.6487 37.0976C17.7404 36.6401 17.9238 36.2285 18.1988 35.8625C18.4739 35.4966 18.7947 35.1764 19.2073 34.9476C19.6199 34.7189 20.0324 34.6274 20.445 34.6274C20.9034 34.6274 21.316 34.7647 21.6827 35.0391C22.0953 35.3136 22.3245 35.6795 22.4162 36.0912C22.5079 36.5029 22.5079 37.0061 22.4162 37.555L23.9748 37.3263C23.9289 36.6401 23.8372 36.137 23.6539 35.6795L25.3958 35.3593L25.7167 36.9146L25.7626 37.0518L28.5588 36.6401L26.9086 38.973ZM21.0409 37.738C21.0868 37.4635 21.0409 37.2348 20.9951 37.0061C20.9493 36.7774 20.8117 36.5944 20.6284 36.4572C20.445 36.3199 20.2617 36.2742 20.0324 36.3199C19.8032 36.3199 19.6657 36.4572 19.5282 36.6401C19.3907 36.8231 19.3448 37.0061 19.3907 37.1891C19.4365 37.372 19.5282 37.555 19.6657 37.6465C19.8032 37.738 19.9866 37.8295 20.17 37.8295C20.3992 37.7837 20.6742 37.7837 21.0409 37.738ZM24.0206 39.339L22.0036 39.5677C22.0036 39.8422 22.0036 40.1166 22.0494 40.3453C22.0953 40.574 22.187 40.7113 22.3703 40.8485C22.5079 40.94 22.6454 40.9857 22.7829 40.9857C22.9204 40.9857 23.1038 40.94 23.2413 40.8485C23.3788 40.757 23.5164 40.6655 23.608 40.5283C23.8372 40.1623 23.9748 39.7964 24.0206 39.339ZM12.6062 57.5447L9.71826 57.4075L11.9645 59.2829L12.6062 57.5447ZM14.4399 57.6362L13.2938 60.518L14.4857 61.6158L13.6147 63.8572L6.78445 57.5904L7.70126 55.3033L16.9611 55.4405L16.0443 57.6362H14.4399ZM4.58408 73.5547L6.69276 73.9207L6.7386 73.5547C6.78445 73.1888 6.83029 72.9143 6.83029 72.6856C6.83029 72.4569 6.78445 72.2739 6.64692 72.091C6.5094 71.908 6.2802 71.8165 5.95931 71.7708C5.63842 71.725 5.36338 71.725 5.18002 71.8622C4.99665 71.9537 4.85913 72.1367 4.81329 72.3197C4.72161 72.5027 4.67577 72.8228 4.58408 73.1888V73.5547ZM10.956 76.9855L2.42956 75.4759L3.0255 72.091C3.11718 71.4506 3.34638 70.9474 3.62143 70.49C3.89647 70.0783 4.2632 69.7581 4.76745 69.5751C5.22586 69.3921 5.77595 69.3464 6.41772 69.4836C6.92197 69.5751 7.33453 69.7123 7.70126 69.8953C8.02215 70.0783 8.29719 70.3527 8.48056 70.6272C8.66392 70.9474 8.80144 71.2676 8.84728 71.6793C8.89312 72.091 8.89312 72.5026 8.80144 73.0058L8.57224 74.2866L11.4144 74.7898L10.956 76.9855ZM2.017 85.1735L3.80479 86.0426C3.43806 86.5 3.2547 87.0032 3.2547 87.5521C3.2547 87.7808 3.34638 88.0095 3.4839 88.1925C3.62143 88.3755 3.80479 88.5127 4.03399 88.4669C4.2632 88.4669 4.40072 88.3755 4.53824 88.1925C4.62993 88.0095 4.76745 87.7808 4.85913 87.4606L4.99665 86.8659C5.18002 86.1798 5.45506 85.6309 5.82179 85.2649C6.18851 84.899 6.69276 84.6703 7.33454 84.6703C8.38887 84.6245 9.16817 84.899 9.67242 85.4937C10.2225 86.1341 10.5434 86.9574 10.5434 87.918C10.5892 89.0159 10.2683 90.0222 9.62658 90.9828L7.79294 90.068C8.38887 89.3818 8.66392 88.6957 8.66392 88.0553C8.66392 87.7808 8.57224 87.5063 8.43472 87.2776C8.29719 87.0489 8.06799 86.9574 7.79294 86.9574C7.5179 86.9574 7.33454 87.0947 7.19701 87.3234C7.05949 87.5978 6.96781 87.918 6.83029 88.3297C6.69276 88.8786 6.55524 89.3361 6.37188 89.6563C6.23435 89.9765 6.00515 90.2509 5.68426 90.4339C5.36338 90.6169 4.95081 90.7084 4.44656 90.7541C3.85063 90.7541 3.34638 90.6626 2.88797 90.3882C2.42957 90.1594 2.10868 89.7935 1.83363 89.3361C1.55859 88.8786 1.46691 88.3755 1.42107 87.8266C1.42107 87.3691 1.46691 86.9117 1.55859 86.4085C1.65027 85.9968 1.78779 85.5851 2.017 85.1735Z" fill="#D0D1CA"/>
<path fill-rule="evenodd" clip-rule="evenodd" d="M176.166 115.089C176.166 115.958 175.8 116.233 175.158 116.233H174.516V117.742H175.066C175.845 117.742 176.166 118.108 176.166 119.115V119.938C176.166 120.899 175.845 121.127 175.295 121.127C174.745 121.127 174.424 120.853 174.424 120.075V119.069H172.82V119.938C172.82 121.631 173.691 122.637 175.341 122.637C176.992 122.637 177.862 121.676 177.862 119.938V119.115C177.862 118.017 177.542 117.239 176.671 116.873C177.496 116.553 177.862 115.821 177.862 114.678V114.403C177.862 112.711 176.992 111.704 175.341 111.704C173.691 111.704 172.82 112.665 172.82 114.403V114.998H174.424V114.357C174.424 113.58 174.745 113.305 175.295 113.305C175.845 113.305 176.166 113.58 176.166 114.54V115.089ZM169.794 114.495C169.794 117.605 166.448 118.108 166.448 121.265V122.591H171.307V121.082H168.098C168.098 120.99 168.098 120.944 168.098 120.853C168.098 119.115 171.445 117.834 171.445 114.495C171.445 112.802 170.574 111.796 168.924 111.796C167.273 111.796 166.402 112.756 166.402 114.495V115.547H168.007V114.357C168.007 113.58 168.328 113.305 168.878 113.305C169.474 113.305 169.794 113.534 169.794 114.495ZM159.847 120.03C159.847 121.722 160.764 122.728 162.414 122.728C164.064 122.728 164.981 121.768 164.981 120.03V114.449C164.981 112.756 164.064 111.75 162.414 111.75C160.764 111.75 159.847 112.711 159.847 114.449V120.03ZM161.543 114.357C161.543 113.58 161.864 113.305 162.414 113.305C162.964 113.305 163.285 113.58 163.285 114.357V120.121C163.285 120.899 162.964 121.173 162.414 121.173C161.864 121.173 161.543 120.899 161.543 120.121V114.357ZM156.867 114.495C156.867 117.605 153.521 118.108 153.521 121.265V122.591H158.38V121.082H155.171C155.171 120.99 155.171 120.944 155.171 120.853C155.171 119.115 158.518 117.834 158.518 114.495C158.518 112.802 157.647 111.796 155.996 111.796C154.346 111.796 153.475 112.756 153.475 114.495V115.547H155.08V114.357C155.08 113.58 155.4 113.305 155.951 113.305C156.546 113.305 156.867 113.534 156.867 114.495ZM11.8269 113.397H13.5689V122.591H15.265V113.397H17.007V111.887H11.8269V113.397ZM5.95931 114.449C5.95931 117.514 9.25985 117.925 9.25985 120.121C9.25985 120.899 8.93896 121.173 8.38888 121.173C7.83878 121.173 7.5179 120.899 7.5179 120.121V119.343H5.91347V119.984C5.91347 121.676 6.78444 122.683 8.43472 122.683C10.085 122.683 10.956 121.722 10.956 119.984C10.956 116.919 7.65542 116.507 7.65542 114.312C7.65542 113.534 7.97631 113.26 8.48056 113.26C9.03065 113.26 9.30569 113.534 9.30569 114.312V114.769H10.9101V114.449C10.9101 112.756 10.085 111.75 8.43472 111.75C6.78444 111.75 5.95931 112.756 5.95931 114.449ZM1.83363 113.397H4.72161V111.887H0.137523V122.591H4.72161V121.082H1.83363V117.925H4.12568V116.416H1.83363V113.397Z" fill="#D0D1CA"/>
<path fill-rule="evenodd" clip-rule="evenodd" d="M83.4762 121.951C84.1638 122.637 84.393 123.506 84.4847 124.512H93.5612C93.6529 123.506 93.882 122.637 94.5697 121.951C96.9075 120.67 94.7072 119.526 97.8244 118.703C99.5205 118.246 103.554 118.246 106.076 117.788C107.176 117.605 108.414 117.377 109.743 117.102C118.132 115.41 129.455 108.045 134.955 101.687C136.331 100.086 137.156 99.1708 136.606 96.7007C136.652 94.6423 134.405 85.4479 131.197 82.5661C129.684 77.4886 126.062 68.9347 116.757 69.0719C113.685 69.1177 111.256 66.4188 106.993 66.2359C104.334 66.0529 103.646 63.7657 103.6 61.5701C110.889 58.5053 116.619 42.9069 113.135 41.7176C111.577 41.1687 107.634 38.3784 106.534 35.4508C102.454 26.6224 98.6495 19.2578 89.0688 19.3035C79.3963 19.2121 75.6374 26.5767 71.5117 35.4051C70.4115 38.2869 66.4692 41.1229 64.9106 41.6719C61.4267 42.8612 67.2027 58.5968 74.5372 61.5701C74.4914 63.7657 73.8496 66.0071 71.0533 66.2359C66.836 66.3731 64.3605 69.1177 61.2892 69.0719C51.9835 68.9347 48.3621 77.4886 46.8493 82.5661C43.6405 85.4479 41.3943 94.6423 41.4401 96.7007C40.89 99.1708 41.6693 100.086 43.0904 101.687C48.5913 108.045 59.914 115.41 68.3029 117.102C69.6781 117.377 70.9158 117.605 71.9701 117.788C74.4914 118.246 78.5254 118.246 80.2215 118.703C83.3387 119.526 81.1383 120.67 83.4762 121.951Z" fill="#D0D1CA"/>
<path fill-rule="evenodd" clip-rule="evenodd" d="M83.1095 59.2829C83.4762 58.6425 85.1264 58.1851 86.0433 58.0021C87.1893 57.7734 88.3811 57.6362 89.0229 56.9958C89.6647 57.6819 90.8566 57.7734 92.0026 58.0021C92.9194 58.1851 94.5697 58.6883 94.9364 59.2829C94.6613 59.8776 93.3778 60.7467 92.2318 60.5637C91.0858 60.335 90.4898 59.7403 89.0688 59.7403C87.6477 59.7403 87.0518 60.3807 85.9057 60.5637C84.668 60.7924 83.3845 59.8776 83.1095 59.2829ZM98.0077 57.8649C99.0162 52.3757 99.7955 52.5587 99.933 50.6832C100.162 48.1674 99.5205 47.2983 99.0621 46.2919C98.8787 46.3376 96.6325 45.926 96.6325 46.8408C96.5867 47.9844 95.2114 47.9387 94.0654 47.9387C92.7819 47.9387 91.7275 47.344 90.3523 47.2068C90.3981 46.4749 90.6273 44.4622 91.4066 44.5079C93.607 44.6452 95.4865 43.7303 97.9619 43.776C98.1911 43.776 98.4203 44.0505 98.6037 44.3707C98.6037 43.959 98.6495 43.5016 98.7412 42.9527C95.624 41.1229 92.3235 40.2538 88.9771 40.2081C85.6765 40.2081 82.3302 41.1229 79.213 42.9527C79.3047 43.5016 79.3505 43.959 79.3505 44.3707C79.5339 44.0505 79.7631 43.8218 79.9923 43.776C82.4677 43.7303 84.393 44.6452 86.5475 44.5079C87.3268 44.4622 87.556 46.4749 87.6019 47.2068C86.2266 47.344 85.1723 47.9387 83.8887 47.9387C82.7427 47.9387 81.3675 47.9844 81.3217 46.8408C81.2758 45.9717 79.0755 46.3834 78.8921 46.2919C78.4337 47.2983 77.7919 48.1674 78.0211 50.6832C78.2045 52.5587 78.9379 52.4215 79.9464 57.8649C80.1756 58.0936 80.4507 58.1851 80.6799 58.1851C81.3217 58.1851 80.634 57.4532 81.5509 55.8979C82.9719 55.166 85.4473 53.1534 86.7767 54.0225C88.1978 54.9373 89.6647 54.9831 91.0858 54.0225C92.4151 53.1534 94.9364 55.2118 96.3116 55.8979C97.2284 57.4532 96.5408 58.1851 97.1826 58.1851C97.5035 58.1851 97.7785 58.0479 98.0077 57.8649ZM104.288 37.4635C98.787 33.0722 96.9534 22.3226 89.0229 22.4598C80.8633 22.4598 79.213 33.1179 73.7121 37.4635C84.0263 31.1052 92.3235 30.8765 104.288 37.4635ZM76.4167 54.7544C75.9124 61.6616 76.1875 65.0923 81.0466 72.7314C84.8056 74.2866 87.4643 75.6589 88.9771 75.6589C90.4898 75.6589 93.1027 74.3781 96.8159 72.8686C101.813 65.138 102.088 61.7988 101.629 54.7544C101.675 54.4799 101.721 54.2054 101.767 53.931C102.088 53.7938 102.363 53.6565 102.638 53.4736C104.7 52.33 106.763 50.2715 107.497 47.9844C107.818 47.0238 107.909 46.1089 107.772 45.2398C107.772 45.1483 107.818 45.1026 107.772 45.0111C107.772 44.7366 107.726 44.4164 107.634 44.142C106.855 42.4952 104.746 40.757 101.767 39.339C97.5493 36.8231 91.8192 35.3136 89.0229 35.3136C86.1349 35.3136 80.2673 36.8689 76.0041 39.4762C74.1705 40.5283 72.4285 41.8548 70.8241 43.5016C70.1823 44.8739 70.0448 46.3377 70.5491 47.9387C71.3284 50.2258 73.3454 52.2385 75.4082 53.4278C75.6832 53.6108 75.9583 53.7938 76.2792 53.931C76.325 54.2054 76.3708 54.4799 76.4167 54.7544Z" fill="#896634"/>
<path fill-rule="evenodd" clip-rule="evenodd" d="M124.412 91.12C124.595 89.6563 124.595 88.284 124.458 86.9574C124.366 86.2255 124.229 85.5394 124.045 84.899C123.633 83.481 123.037 82.3831 122.303 81.6512C122.028 81.3768 121.753 81.1481 121.524 81.1023C120.286 81.88 118.636 81.6512 117.719 80.5077C117.49 80.1875 117.307 79.8673 117.215 79.5013C117.032 78.7237 116.39 78.129 115.473 77.6716C114.006 76.9855 111.989 76.711 109.789 76.8025C109.101 76.8482 108.368 76.894 107.634 77.0312C108.184 78.2205 108.001 79.4098 107.864 80.6449C107.772 81.4225 107.68 82.2002 108.047 82.5204C108.322 82.7491 109.01 82.5661 109.789 82.3831C111.76 81.9257 113.869 81.4225 116.298 83.4352C119.003 85.7224 118.407 87.8265 117.857 89.7477C117.673 90.2967 117.536 90.8456 117.673 90.9371C117.903 91.12 118.544 90.9371 119.232 90.7998C120.928 90.3882 122.624 89.9765 124.412 91.12ZM119.461 101.138C121.112 99.3538 122.303 97.5241 123.129 95.6486C123.129 95.2827 122.991 94.9167 122.716 94.6423C122.074 93.9561 121.112 94.1848 120.241 94.4135C118.499 94.8252 116.848 95.2369 115.061 93.6816C113.227 92.0349 113.639 90.4796 114.144 88.7871C114.373 87.918 114.648 87.0032 113.777 86.2255C112.906 85.4937 111.806 85.7681 110.797 85.9968C108.964 86.4543 107.313 86.8202 105.48 85.2649C103.646 83.6639 103.83 81.9714 104.059 80.2332C104.15 79.4098 104.242 78.5407 103.692 78.0833C103.463 78.1748 103.279 78.2663 103.05 78.312C100.85 79.2269 99.1079 80.5534 98.512 82.0629C100.896 83.8012 100.666 85.7224 100.437 87.6436C100.346 88.4212 100.254 89.1988 100.621 89.519C100.896 89.7477 101.629 89.6105 102.363 89.4276C104.334 88.9701 106.442 88.4669 108.872 90.5254C111.577 92.8125 110.981 94.9167 110.476 96.8379C110.339 97.3868 110.156 97.9357 110.293 98.0272C110.522 98.2102 111.21 98.073 111.898 97.89C113.915 97.3868 116.069 96.8837 118.269 99.308C118.865 99.8569 119.232 100.497 119.461 101.138ZM92.9194 100.543C92.736 101.184 92.5527 101.824 92.3235 102.464C92.0943 103.288 91.8192 104.065 91.59 104.889C91.3608 105.758 91.1316 106.718 91.0399 107.679C91.2691 109.966 91.0858 112.253 90.8566 114.175C94.0654 112.665 98.6037 110.79 102.913 109.829C103.921 109.6 104.976 109.417 105.984 109.189C106.442 109.097 106.901 109.006 107.359 108.914C106.855 108.823 106.259 108.914 105.663 109.006C103.83 109.28 102.042 109.509 100.254 107.953C98.3745 106.307 98.7412 104.706 99.1996 102.967C99.4288 102.098 99.658 101.138 98.8329 100.406C97.9619 99.674 96.8617 99.9027 95.8532 100.177C94.8447 100.406 93.882 100.635 92.9194 100.543ZM93.607 84.8075C92.736 85.2649 91.9109 86.0883 91.1774 87.1861C94.0196 90.2967 94.4321 93.4529 93.8362 96.7922C94.1571 96.7464 94.478 96.6549 94.8447 96.5635C96.8159 96.106 98.9704 95.5571 101.4 97.6613C103.875 99.8112 103.371 101.87 102.913 103.745C102.775 104.386 102.592 105.026 102.821 105.209C103.234 105.575 104.15 105.483 105.067 105.346C107.084 105.072 109.147 104.797 111.118 106.901C111.393 107.176 111.577 107.542 111.622 107.908C113.502 107.313 115.152 106.535 116.298 105.346C115.794 104.889 115.519 104.203 115.702 103.516C115.794 103.15 115.84 102.83 115.794 102.51C115.748 102.236 115.611 102.007 115.381 101.732C114.74 101.001 113.777 101.275 112.86 101.458C111.118 101.87 109.468 102.281 107.68 100.726C105.847 99.0793 106.259 97.5241 106.717 95.8316C106.947 94.9624 107.222 94.0018 106.305 93.27C105.388 92.5381 104.288 92.7668 103.279 92.9955C101.446 93.4072 99.7497 93.8189 97.9619 92.2179C96.1283 90.6169 96.3116 88.9244 96.5408 87.1861C96.6325 86.317 96.77 85.4479 96.0824 84.9447C95.7157 84.6703 95.3948 84.5788 95.0281 84.5331C94.6613 84.4873 94.2029 84.5788 93.7904 84.716C93.7445 84.7618 93.6528 84.8075 93.607 84.8075ZM67.7069 76.2078C66.4234 76.0706 65.3232 76.0706 64.4981 76.2536L63.9021 76.3908C63.9021 77.5801 63.077 78.6779 61.7935 78.9981C61.3351 79.0896 60.8308 79.0896 60.4182 78.9981C58.9055 78.6322 57.4844 79.0896 56.2467 80.0045C55.1007 80.8736 54.138 82.2002 53.4046 83.6639C52.6711 85.1735 52.2586 86.8659 52.2586 88.4212C52.2586 89.8392 52.5336 91.1658 53.2212 92.2179C54.3214 91.8977 55.4674 92.0349 56.6134 92.1264C57.4386 92.2179 58.2179 92.3094 58.5846 91.9434C58.8138 91.669 58.6304 91.0285 58.4471 90.2967C57.9428 88.4212 57.4386 86.4085 59.5473 84.0756C61.931 81.514 64.1313 82.0629 66.1483 82.5661C66.7443 82.7033 67.2944 82.8406 67.386 82.7491C67.5694 82.5661 67.4319 81.9257 67.2485 81.2396C66.7901 79.6843 66.3317 77.9918 67.7069 76.2078ZM60.8308 105.3C62.3435 106.307 64.0397 107.222 65.8733 107.953C67.6152 106.032 69.5406 106.215 71.42 106.444C72.2452 106.535 73.0703 106.627 73.3912 106.261C73.6204 105.987 73.4829 105.3 73.2537 104.568C72.7494 102.647 72.1993 100.635 74.4455 98.3017C76.6917 95.9688 78.8463 96.4262 80.8174 96.8379C81.505 96.9751 82.1468 97.1124 82.3302 96.9294C82.7427 96.5177 82.6052 95.6486 82.4677 94.8252C82.1926 92.904 81.8717 90.9371 84.0721 89.0616C84.393 88.7871 84.7597 88.6499 85.1264 88.6042C84.393 87.0032 83.4303 85.5394 82.3302 84.2586C81.8717 84.6703 81.1841 84.8532 80.4965 84.716C80.1298 84.6245 79.7631 84.5788 79.4422 84.6245C79.1671 84.6703 78.8921 84.8075 78.6171 85.0362C77.8836 85.6766 78.1128 86.5915 78.342 87.4606C78.8004 89.1073 79.213 90.7084 77.5627 92.4008C75.8666 94.1848 74.2163 93.7731 72.4285 93.3157C71.5117 93.087 70.5491 92.8125 69.7239 93.6816C68.9446 94.5508 69.2197 95.6029 69.4489 96.5635C69.9073 98.3017 70.3199 99.9027 68.6237 101.641C66.9276 103.379 65.1398 103.196 63.352 103.013C62.4352 102.922 61.5184 102.83 61.0142 103.425C60.7391 103.745 60.6016 104.111 60.5558 104.431C60.6933 104.66 60.7391 104.98 60.8308 105.3ZM87.7852 92.0349C87.7394 91.9434 87.6935 91.8519 87.6477 91.7604L87.7852 92.0349ZM87.8769 92.3094C87.8311 92.2179 87.7852 92.1264 87.7394 92.0349L87.8769 92.3094ZM86.5475 102.373V102.236L87.6019 98.0272L87.8311 97.3411V95.9688C87.8311 95.8773 87.8311 95.7858 87.8311 95.6486C87.7852 94.9167 87.6935 94.1848 87.4185 93.4987C87.3727 93.4072 87.3268 93.3157 87.281 93.2242C87.2351 93.1327 87.1893 93.0412 87.1434 92.9498C87.0059 92.721 86.9142 92.4923 86.7309 92.3094V92.3551L86.685 92.4008V92.4466C86.0433 92.9955 86.1808 93.9561 86.3183 94.9167V98.5761L86.2725 98.6219L86.2266 98.7134L86.0891 98.8506V98.8963L86.0433 98.9878V99.0336L85.9516 99.1251L85.9057 99.2165C85.7224 99.4453 85.539 99.7197 85.3098 99.9484C83.5679 101.732 81.8717 101.366 80.084 100.955C79.1671 100.772 78.1586 100.543 77.4252 101.321C76.6459 102.144 76.9209 103.196 77.1501 104.157C77.6086 105.895 78.0211 107.496 76.3708 109.234C75.7749 109.829 75.179 110.195 74.5831 110.424C78.5712 111.11 82.376 113.122 85.2181 114.723C85.1264 111.613 85.264 107.496 86.2725 103.974C86.3183 103.15 86.41 102.739 86.5475 102.373ZM54.9173 97.3411C54.7798 97.5241 54.6881 97.707 54.6881 97.89C54.5964 98.5761 54.9632 99.491 55.6508 100.497C56.0634 101.138 56.6134 101.778 57.2552 102.419C57.4386 101.961 57.7136 101.549 58.0345 101.138C59.8681 98.8049 61.8851 99.0336 63.9021 99.2623C64.7273 99.3538 65.5524 99.4453 65.8733 99.0793C66.1483 98.8049 65.965 98.1187 65.7816 97.3868C65.2774 95.5114 64.7731 93.4987 66.9276 91.1658C69.3114 88.5584 71.5576 89.1531 73.5287 89.6563C74.1246 89.7935 74.6747 89.9307 74.7664 89.8392C74.9498 89.6105 74.8123 88.9701 74.6289 88.3297C74.1246 86.4085 73.5746 84.3501 76.0958 82.2459C76.9668 81.514 77.8836 81.1481 78.8463 80.9651H78.8921C78.2503 80.4619 77.5627 80.0045 76.8751 79.5928C76.6459 79.5471 76.4625 79.4556 76.2333 79.3641C75.2707 78.7694 74.1246 78.0833 73.1161 77.8088C72.4285 77.6259 71.7409 77.6259 71.1908 78.0833C70.4574 78.6779 70.7324 79.5928 70.9616 80.4619C71.42 82.1087 71.8326 83.7097 70.1823 85.4022C68.4862 87.1861 66.836 86.7287 65.0482 86.2713C64.1313 86.0426 63.1687 85.7681 62.3894 86.6372C61.6101 87.4606 61.8851 88.5127 62.1602 89.4733C62.6186 91.2115 63.0312 92.8125 61.3809 94.5508C59.6848 96.289 57.897 96.106 56.1092 95.923C55.9258 95.923 55.6966 95.8773 55.5133 95.8773C55.4674 96.3805 55.3299 96.9294 54.9632 97.3411H54.9173Z" fill="#120900"/>
<path fill-rule="evenodd" clip-rule="evenodd" d="M13.3855 145.417V140.568C13.3855 140.294 13.2938 140.065 12.973 140.065H6.2802C5.95931 140.065 5.86763 140.294 5.86763 140.568V145.966C5.86763 146.149 5.91347 146.149 6.00515 146.286C9.71826 149.488 13.7981 152.69 17.4195 155.984C18.6572 157.081 19.2532 158.682 19.2532 160.329V166.642C19.2532 170.027 16.2735 173 12.973 173H6.2802C2.84213 173 0 170.164 0 166.733V160.787C0 160.512 0.229204 160.329 0.458408 160.329H5.40922C5.68427 160.329 5.86763 160.558 5.86763 160.787V166.596C5.86763 166.87 5.95931 167.099 6.2802 167.099H12.973C13.2938 167.099 13.3855 166.87 13.3855 166.596V160.329C13.3855 160.146 13.3397 160.146 13.248 160.009C9.5349 156.853 5.36338 153.605 1.83363 150.311C0.641772 149.168 0 147.613 0 145.966V140.522C0 137.137 3.0255 134.164 6.2802 134.164H12.973C16.411 134.164 19.2532 136.955 19.2532 140.431V145.371C19.2532 145.646 19.024 145.829 18.7947 145.829H13.8439C13.6147 145.874 13.3855 145.646 13.3855 145.417ZM23.333 172.451C23.333 172.726 23.5164 172.954 23.7914 172.954H28.7422C29.0173 172.954 29.2006 172.726 29.2006 172.497V160.421C29.2006 160.192 29.2465 160.1 29.3381 160.055L40.7525 150.357C41.9902 149.305 42.5861 147.658 42.5861 146.012V140.568C42.5861 137.183 39.5606 134.21 36.306 134.21H29.6132C26.1751 134.21 23.333 137 23.333 140.477V172.451ZM29.2006 140.568C29.2006 140.294 29.2923 140.065 29.6132 140.065H36.306C36.6268 140.065 36.7185 140.294 36.7185 140.568V145.966C36.7185 146.149 36.6727 146.149 36.581 146.286L29.2006 152.461V140.568ZM52.5336 140.522C52.5336 140.111 52.3961 140.019 52.0294 140.019H45.3366C45.0616 140.019 44.8782 139.791 44.8782 139.562V134.667C44.8782 134.393 45.1074 134.21 45.3366 134.21H52.0294C55.2382 134.21 58.4012 137.32 58.4012 140.522V166.687C58.4012 170.164 55.5591 172.954 52.121 172.954H45.3824C42.1277 172.954 39.1022 170.027 39.1022 166.596V161.153C39.1022 159.506 39.6523 157.859 40.9359 156.807L52.3961 147.109C52.4878 147.064 52.5336 146.881 52.5336 146.743V140.522ZM52.4878 166.642C52.4878 166.916 52.3961 167.145 52.0752 167.145H45.3824C45.0616 167.145 44.9699 166.916 44.9699 166.642V161.244C44.9699 161.061 45.0157 161.061 45.1074 160.924L52.5336 154.794L52.4878 166.642ZM77.4252 152.644L80.4965 156.167C81.5509 157.402 82.4218 159.003 82.4218 160.604V172.497C82.4218 172.771 82.1926 172.954 81.9634 172.954H77.0126C76.7376 172.954 76.5542 172.726 76.5542 172.497V160.787C76.5542 160.512 76.4625 160.375 76.3709 160.283L72.9786 156.441L68.7154 160.055C68.6237 160.1 68.5779 160.192 68.5779 160.421V172.497C68.5779 172.771 68.3487 172.954 68.1195 172.954H63.1687C62.8936 172.954 62.7103 172.726 62.7103 172.451V140.477C62.7103 137 65.5524 134.21 68.9905 134.21H75.6374C78.8921 134.21 81.9176 137.137 81.9176 140.568V146.012C81.9176 147.658 81.3675 149.305 80.084 150.357L77.4252 152.644ZM68.5321 140.568C68.5321 140.294 68.6237 140.065 68.9446 140.065H75.6374C75.9583 140.065 76.05 140.294 76.05 140.568V145.966C76.05 146.149 76.0041 146.149 75.9124 146.286L68.5321 152.461V140.568ZM107.772 172.497C107.772 172.771 107.543 172.954 107.313 172.954H102.363C102.088 172.954 101.904 172.726 101.904 172.497V134.667C101.904 134.393 102.133 134.21 102.363 134.21H107.313C107.588 134.21 107.772 134.439 107.772 134.667V172.497ZM125.466 145.417V140.568C125.466 140.294 125.375 140.065 125.054 140.065H118.361C118.04 140.065 117.948 140.294 117.948 140.568V145.966C117.948 146.149 117.994 146.149 118.086 146.286C121.799 149.488 125.879 152.69 129.5 155.984C130.738 157.081 131.334 158.682 131.334 160.329V166.642C131.334 170.027 128.354 173 125.054 173H118.361C114.923 173 112.081 170.21 112.081 166.733V160.787C112.081 160.512 112.31 160.329 112.539 160.329H117.49C117.765 160.329 117.948 160.558 117.948 160.787V166.596C117.948 166.87 118.04 167.099 118.361 167.099H125.054C125.375 167.099 125.466 166.87 125.466 166.596V160.329C125.466 160.146 125.421 160.146 125.329 160.009C121.616 156.853 117.444 153.605 113.915 150.311C112.723 149.168 112.081 147.613 112.081 145.966V140.522C112.081 137.137 115.106 134.164 118.361 134.164H125.054C128.492 134.164 131.334 136.955 131.334 140.431V145.371C131.334 145.646 131.105 145.829 130.876 145.829H125.925C125.696 145.874 125.466 145.646 125.466 145.417ZM141.144 145.417V140.568C141.144 140.294 141.236 140.065 141.557 140.065H148.158C148.57 140.065 148.662 140.157 148.662 140.568V146.789C148.662 146.926 148.616 147.064 148.524 147.155L137.064 156.853C135.826 157.905 135.23 159.552 135.23 161.198V166.642C135.23 170.027 138.256 173 141.511 173H148.203C151.642 173 154.484 170.21 154.484 166.733V140.568C154.484 137.366 151.321 134.256 148.112 134.256H141.511C138.073 134.256 135.23 137.046 135.23 140.477V145.417C135.23 145.691 135.46 145.874 135.689 145.874H140.64C140.961 145.874 141.144 145.646 141.144 145.417ZM148.662 166.642C148.662 166.916 148.57 167.145 148.249 167.145H141.557C141.236 167.145 141.144 166.916 141.144 166.642V161.244C141.144 161.061 141.19 161.061 141.281 160.924L148.708 154.794L148.662 166.642ZM164.614 172.497C164.614 172.771 164.385 172.954 164.156 172.954H159.205C158.93 172.954 158.747 172.726 158.747 172.497V134.667C158.747 134.393 158.976 134.21 159.205 134.21H164.156C164.431 134.21 164.614 134.439 164.614 134.667V138.418L166.952 136.451C168.648 135.033 170.345 134.164 172.087 134.21C175.25 134.256 178 136.726 178 140.294V172.497C178 172.771 177.771 172.954 177.542 172.954H172.591C172.316 172.954 172.132 172.726 172.132 172.497V140.522C172.132 140.111 171.766 139.974 171.445 140.248L164.614 146.24V172.497ZM94.4321 140.019V172.497C94.4321 172.771 94.2029 172.954 93.9737 172.954H89.0229C88.7479 172.954 88.5645 172.726 88.5645 172.497V140.019H84.5305C84.2555 140.019 84.0721 139.791 84.0721 139.562V134.667C84.0721 134.393 84.3013 134.21 84.5305 134.21H98.3286C98.6037 134.21 98.787 134.439 98.787 134.667V139.562C98.787 139.836 98.5578 140.019 98.3286 140.019H94.4321Z" fill="#D0D1CA"/>
</svg>
