<svg width="22" height="25" viewBox="0 0 22 25" fill="none" xmlns="http://www.w3.org/2000/svg">
<path d="M5.10656 0C4.44812 0 3.92947 0.527864 3.92947 1.17031V1.56322H1.96282C0.881371 1.56322 0 2.42272 0 3.51475V23.0477C0 24.1306 0.881371 25 1.96282 25H20.0364C21.1179 25 22 24.129 22 23.0477V3.51475C22 2.43951 21.1271 1.56322 20.0364 1.56322H18.0705V1.17031C18.0705 0.527864 17.5496 0 16.8927 0C16.2358 0 15.7156 0.527864 15.7156 1.17031V1.56322H6.2844V1.17031C6.2844 0.527864 5.76498 0 5.10656 0ZM5.10656 0.781226C5.32025 0.781226 5.49789 0.947156 5.49789 1.17031V2.73353C5.49789 2.95668 5.31581 3.12567 5.10656 3.12567C4.8973 3.12567 4.71215 2.95668 4.71215 2.73353V1.17031C4.71215 0.947156 4.89285 0.781226 5.10656 0.781226ZM16.8927 0.781226C17.1064 0.781226 17.284 0.947156 17.284 1.17031V2.73353C17.284 2.95668 17.1079 3.12567 16.8927 3.12567C16.6774 3.12567 16.4983 2.95668 16.4983 2.73353V1.17031C16.4983 0.947156 16.679 0.781226 16.8927 0.781226ZM1.96282 2.34444H3.92947V2.73353C3.92947 3.37598 4.44484 3.9069 5.10656 3.9069C5.76828 3.9069 6.2844 3.37598 6.2844 2.73353V2.34444H15.7156V2.73353C15.7156 3.37598 16.2388 3.9069 16.8927 3.9069C17.5465 3.9069 18.0705 3.37598 18.0705 2.73353V2.34444H20.0364C20.6869 2.34444 21.2143 2.8588 21.2143 3.51475V5.47011H0.785749V3.51475C0.785749 2.86795 1.30307 2.34444 1.96282 2.34444ZM8.25028 3.51475C7.71459 3.51475 7.71459 4.29598 8.25028 4.29598H13.7489C14.2847 4.29598 14.2847 3.51475 13.7489 3.51475H8.25028ZM0.785749 6.24828H21.2143V17.1885H18.4649C17.3726 17.1885 16.4983 18.0526 16.4983 19.1408V21.8736H1.96282C1.31826 21.8736 0.785749 21.3592 0.785749 20.7033V6.24828ZM3.14374 7.8115C2.70603 7.8115 2.35723 8.16667 2.35723 8.59273V10.1552C2.35723 10.5934 2.71523 10.9372 3.14374 10.9372H4.71215C5.15293 10.9372 5.4979 10.5812 5.4979 10.1552V8.59273C5.4979 8.16667 5.14986 7.8115 4.71215 7.8115H3.14374ZM7.85588 7.8115C7.41818 7.8115 7.07014 8.16667 7.07014 8.59273V10.1552C7.07014 10.5904 7.42738 10.9372 7.85588 10.9372H9.42814C9.87198 10.9372 10.2139 10.5812 10.2139 10.1552V8.59273C10.2139 8.16667 9.86738 7.8115 9.42814 7.8115H7.85588ZM12.5719 7.8115C12.1326 7.8115 11.7861 8.16667 11.7861 8.59273V10.1552C11.7861 10.5965 12.1434 10.9372 12.5719 10.9372H14.1433C14.5841 10.9372 14.9299 10.5812 14.9299 10.1552V8.59273C14.9299 8.16667 14.5795 7.8115 14.1433 7.8115H12.5719ZM17.284 7.8115C16.8463 7.8115 16.4983 8.16667 16.4983 8.59273V10.1552C16.4983 10.5812 16.8463 10.9372 17.284 10.9372H18.8563C19.2986 10.9372 19.642 10.5812 19.642 10.1552V8.59273C19.642 8.16667 19.2955 7.8115 18.8563 7.8115H17.284ZM3.14374 8.59273H4.71215V10.1552H3.14374V8.59273ZM7.85588 8.59273H9.42814V10.1552H7.85588V8.59273ZM12.5719 8.59273H14.1433V10.1552H12.5719V8.59273ZM17.284 8.59273H18.8563V10.1552H17.284V8.59273ZM3.14374 12.4996C2.69835 12.4996 2.35723 12.8556 2.35723 13.2816V14.8441C2.35723 15.2701 2.70448 15.6253 3.14374 15.6253H4.71215C5.156 15.6253 5.49789 15.2701 5.49789 14.8441V13.2816C5.49789 12.8556 5.15447 12.4996 4.71215 12.4996H3.14374ZM7.85588 12.4996C7.41818 12.4996 7.07014 12.8556 7.07014 13.2816V14.8441C7.07014 15.2701 7.41818 15.6253 7.85588 15.6253H9.42814C9.86738 15.6253 10.2139 15.2701 10.2139 14.8441V13.2816C10.2139 12.8556 9.86892 12.4996 9.42814 12.4996H7.85588ZM12.5719 12.4996C12.1434 12.4996 11.7861 12.8403 11.7861 13.2816V14.8441C11.7861 15.2777 12.1434 15.6253 12.5719 15.6253H14.1433C14.5719 15.6253 14.9299 15.2793 14.9299 14.8441V13.2816C14.9299 12.8556 14.5827 12.4996 14.1433 12.4996H12.5719ZM17.284 12.4996C16.8448 12.4996 16.4983 12.8556 16.4983 13.2816V14.8441C16.4983 15.2731 16.8555 15.6253 17.284 15.6253H18.8563C19.2848 15.6253 19.642 15.2777 19.642 14.8441V13.2816C19.642 12.8556 19.297 12.4996 18.8563 12.4996H17.284ZM3.14374 13.2816H4.71215V14.8441H3.14374V13.2816ZM7.85588 13.2816H9.42814V14.8441H7.85588V13.2816ZM12.5719 13.2816H14.1433V14.8441H12.5719V13.2816ZM17.284 13.2816H18.8563V14.8441H17.284V13.2816ZM3.14374 17.1885C2.71523 17.1885 2.35723 17.5406 2.35723 17.9667V19.5299C2.35723 19.9712 2.71523 20.3111 3.14374 20.3111H4.71215C5.14065 20.3111 5.49789 19.9666 5.49789 19.5299V17.9667C5.49789 17.5406 5.14065 17.1885 4.71215 17.1885H3.14374ZM7.85588 17.1885C7.41818 17.1885 7.07014 17.5406 7.07014 17.9667V19.5299C7.07014 19.9636 7.42738 20.3111 7.85588 20.3111H9.42814C9.86892 20.3111 10.2139 19.9559 10.2139 19.5299V17.9667C10.2139 17.5406 9.86749 17.1885 9.42814 17.1885H7.85588ZM12.5719 17.1885C12.1326 17.1885 11.7861 17.5406 11.7861 17.9667V19.5299C11.7861 19.9559 12.1238 20.3111 12.5719 20.3111H14.1433C14.5826 20.3111 14.9299 19.9559 14.9299 19.5299V17.9667C14.9299 17.5483 14.5871 17.1885 14.1433 17.1885H12.5719ZM3.14374 17.9667H4.71215V19.5299H3.14374V17.9667ZM7.85588 17.9667H9.42814V19.5299H7.85588V17.9667ZM12.5719 17.9667H14.1433V19.5299H12.5719V17.9667ZM18.4649 17.9667H20.6603L17.284 21.3235V19.1408C17.284 18.4955 17.8052 17.9667 18.4649 17.9667ZM21.2143 18.5206V23.0477C21.2143 23.6853 20.6962 24.218 20.0364 24.218H1.96282C1.31996 24.218 0.785749 23.7037 0.785749 23.0477V22.255C1.11489 22.5027 1.51977 22.6556 1.96282 22.6556H16.8927C16.9972 22.6555 17.0975 22.6141 17.1712 22.5404L21.2143 18.5206Z" fill="#D1C396"/>
</svg>
