<svg width="48" height="48" viewBox="0 0 48 48" fill="none" xmlns="http://www.w3.org/2000/svg">
<path d="M40.9706 7.02938C36.4375 2.49647 30.4106 0 24 0C17.5894 0 11.5625 2.49647 7.02938 7.02938C2.49647 11.5625 0 17.5894 0 24C0 30.4106 2.49647 36.4375 7.02938 40.9706C11.5625 45.5035 17.5894 48 24 48C30.4106 48 36.4375 45.5035 40.9706 40.9706C45.5035 36.4375 48 30.4106 48 24C48 17.5894 45.5035 11.5625 40.9706 7.02938ZM39.9762 39.9762C35.7088 44.2436 30.0351 46.5938 24 46.5938C17.9649 46.5938 12.2912 44.2436 8.02378 39.9762C3.75637 35.7088 1.40625 30.0351 1.40625 24C1.40625 17.9649 3.75637 12.2912 8.02378 8.02378C12.2912 3.75637 17.9649 1.40625 24 1.40625C30.0351 1.40625 35.7088 3.75637 39.9762 8.02378C44.2436 12.2912 46.5938 17.9649 46.5938 24C46.5938 30.0351 44.2436 35.7088 39.9762 39.9762Z" fill="#D1C396"/>
<path d="M37.1714 8.62762C33.311 5.313 28.3759 3.58809 23.2719 3.77044C18.1426 3.95391 13.3177 6.05484 9.68634 9.68634C6.05484 13.3177 3.95391 18.1427 3.77044 23.2721C3.58791 28.3749 5.313 33.3112 8.62791 37.1718C8.76694 37.3338 8.96372 37.4168 9.16162 37.4168C9.32372 37.4168 9.48675 37.3611 9.61931 37.2472C9.91397 36.9942 9.94772 36.5502 9.69469 36.2557C6.61106 32.6642 5.00606 28.0711 5.17594 23.3225C5.34666 18.5496 7.30163 14.06 10.6808 10.6807C14.06 7.30163 18.5495 5.34666 23.3223 5.17584C28.0713 5.00597 32.6639 6.61078 36.2554 9.6945C36.55 9.94744 36.9939 9.91369 37.2469 9.61912C37.4998 9.32456 37.4661 8.88066 37.1714 8.62762Z" fill="#D1C396"/>
<path d="M39.3723 10.8285C39.1193 10.5338 38.6753 10.5001 38.3808 10.7531C38.0861 11.0061 38.0524 11.45 38.3053 11.7446C41.3891 15.3362 42.9939 19.9293 42.8241 24.6777C42.6533 29.4506 40.6984 33.94 37.3192 37.3192C33.94 40.6984 29.4504 42.6533 24.6775 42.8241C19.9286 42.9936 15.3358 41.389 11.7443 38.305C11.4496 38.0521 11.0057 38.0858 10.7528 38.3805C10.4997 38.6752 10.5336 39.119 10.8281 39.372C14.5034 42.5278 19.153 44.2428 23.9938 44.2426C24.2377 44.2426 24.4829 44.2382 24.7277 44.2295C29.8571 44.046 34.6821 41.9451 38.3136 38.3136C41.945 34.6823 44.046 29.8574 44.2295 24.728C44.412 19.6253 42.687 14.689 39.3723 10.8285Z" fill="#D1C396"/>
<path d="M24 6.76369C23.6117 6.76369 23.2969 7.07841 23.2969 7.46681V9.72131C23.2969 10.1096 23.6117 10.4243 24 10.4243C24.3883 10.4243 24.7031 10.1096 24.7031 9.72122V7.46681C24.7031 7.07841 24.3883 6.76369 24 6.76369Z" fill="#D1C396"/>
<path d="M24 37.5757C23.6117 37.5757 23.2969 37.8904 23.2969 38.2788V40.5333C23.2969 40.9217 23.6117 41.2364 24 41.2364C24.3883 41.2364 24.7031 40.9217 24.7031 40.5333V38.2788C24.7031 37.8904 24.3883 37.5757 24 37.5757Z" fill="#D1C396"/>
<path d="M40.5333 23.2969H38.2788C37.8905 23.2969 37.5757 23.6117 37.5757 24C37.5757 24.3883 37.8905 24.7031 38.2788 24.7031H40.5333C40.9216 24.7031 41.2364 24.3883 41.2364 24C41.2364 23.6117 40.9216 23.2969 40.5333 23.2969Z" fill="#D1C396"/>
<path d="M9.72122 23.2969H7.46672C7.07841 23.2969 6.76359 23.6117 6.76359 24C6.76359 24.3883 7.07841 24.7031 7.46672 24.7031H9.72122C10.1095 24.7031 10.4243 24.3883 10.4243 24C10.4243 23.6117 10.1095 23.2969 9.72122 23.2969Z" fill="#D1C396"/>
<path d="M11.335 15.876L10.0334 15.1244C9.69713 14.9302 9.26709 15.0455 9.07294 15.3817C8.87878 15.718 8.994 16.1481 9.33028 16.3422L10.6319 17.0938C10.7426 17.1577 10.8635 17.1881 10.9828 17.1881C11.2258 17.1881 11.4622 17.062 11.5924 16.8365C11.7865 16.5002 11.6713 16.0702 11.335 15.876Z" fill="#D1C396"/>
<path d="M38.6697 31.6578L37.3681 30.9062C37.0318 30.712 36.6018 30.8273 36.4076 31.1635C36.2135 31.4998 36.3287 31.9298 36.665 32.124L37.9666 32.8756C38.0773 32.9395 38.1982 32.9699 38.3175 32.9699C38.5605 32.9699 38.7968 32.8438 38.9271 32.6183C39.1212 32.282 39.006 31.8519 38.6697 31.6578Z" fill="#D1C396"/>
<path d="M32.6182 9.07294C32.2819 8.87869 31.8518 8.99391 31.6577 9.33028L30.9062 10.6319C30.712 10.9682 30.8273 11.3982 31.1635 11.5924C31.2743 11.6563 31.3952 11.6867 31.5144 11.6867C31.7574 11.6867 31.9938 11.5606 32.124 11.335L32.8755 10.0334C33.0697 9.69713 32.9544 9.26709 32.6182 9.07294Z" fill="#D1C396"/>
<path d="M16.8365 36.4077C16.5002 36.2135 16.0702 36.3287 15.876 36.6651L15.1245 37.9667C14.9303 38.303 15.0456 38.733 15.3818 38.9272C15.4926 38.9912 15.6135 39.0215 15.7327 39.0215C15.9757 39.0215 16.2121 38.8954 16.3423 38.6698L17.0938 37.3682C17.288 37.0318 17.1728 36.6018 16.8365 36.4077Z" fill="#D1C396"/>
<path d="M38.9272 15.3818C38.7329 15.0455 38.3029 14.9303 37.9667 15.1244L36.6651 15.876C36.3288 16.0702 36.2136 16.5002 36.4077 16.8365C36.5379 17.062 36.7743 17.1881 37.0173 17.1881C37.1365 17.1881 37.2575 17.1577 37.3682 17.0938L38.6698 16.3422C39.0061 16.1481 39.1213 15.718 38.9272 15.3818Z" fill="#D1C396"/>
<path d="M11.5924 31.1635C11.3982 30.8273 10.9682 30.7121 10.6319 30.9062L9.33028 31.6578C8.994 31.8519 8.87878 32.282 9.07294 32.6183C9.20316 32.8438 9.4395 32.9699 9.6825 32.9699C9.80175 32.9699 9.92269 32.9395 10.0334 32.8756L11.335 32.124C11.6713 31.9298 11.7865 31.4999 11.5924 31.1635Z" fill="#D1C396"/>
<path d="M17.0938 10.6318L16.3423 9.33019C16.1482 8.99381 15.7181 8.87869 15.3818 9.07284C15.0456 9.267 14.9303 9.69703 15.1245 10.0333L15.876 11.3349C16.0062 11.5605 16.2426 11.6866 16.4856 11.6866C16.6048 11.6866 16.7257 11.6562 16.8365 11.5923C17.1728 11.3982 17.288 10.9682 17.0938 10.6318Z" fill="#D1C396"/>
<path d="M32.8755 37.9667L32.124 36.6651C31.9298 36.3287 31.4999 36.2135 31.1635 36.4077C30.8273 36.6019 30.712 37.0319 30.9062 37.3682L31.6577 38.6698C31.7879 38.8954 32.0243 39.0215 32.2673 39.0215C32.3865 39.0215 32.5074 38.9911 32.6182 38.9272C32.9544 38.733 33.0697 38.303 32.8755 37.9667Z" fill="#D1C396"/>
<path d="M33.7696 23.2969H26.0906C25.8709 22.6452 25.3548 22.1292 24.7031 21.9094V12.7273C24.7031 12.339 24.3883 12.0242 24 12.0242C23.6117 12.0242 23.2969 12.339 23.2969 12.7273V21.9094C22.6452 22.1292 22.1292 22.6452 21.9094 23.2969H20.9939C20.6056 23.2969 20.2908 23.6117 20.2908 24C20.2908 24.3883 20.6056 24.7031 20.9939 24.7031H21.9094C22.1291 25.3548 22.6452 25.8708 23.2969 26.0906V27.0061C23.2969 27.3944 23.6117 27.7092 24 27.7092C24.3883 27.7092 24.7031 27.3944 24.7031 27.0061V26.0906C25.3548 25.8708 25.8708 25.3548 26.0906 24.7031H33.7697C34.158 24.7031 34.4727 24.3883 34.4727 24C34.4727 23.6117 34.1579 23.2969 33.7696 23.2969ZM24 24.7999C23.5589 24.7999 23.2001 24.441 23.2001 24C23.2001 23.559 23.559 23.2001 24 23.2001C24.441 23.2001 24.7999 23.559 24.7999 24C24.7999 24.441 24.4411 24.7999 24 24.7999Z" fill="#D1C396"/>
</svg>
