<svg width="50" height="52" fill="none" xmlns="http://www.w3.org/2000/svg">
<path d="M35.292 50.824a1 1 0 1 0 1.969.352l-1.969-.352Zm3.116-6.05a1 1 0 1 0-1.969-.353l1.97.353Zm-.82-6.764a1 1 0 1 0 1.966.37l-1.966-.37Zm4.425-18.108v-1a1 1 0 0 0-.983.816l.983.184Zm6.022 0 .984.182a1 1 0 0 0-.984-1.182v1ZM42.3 51v1a1 1 0 0 0 .984-.819L42.299 51ZM6.737 51l-.984.181a1 1 0 0 0 .984.819v-1ZM1 19.902v-1a1 1 0 0 0-.984 1.182l.984-.182Zm6.022 0 .983-.184a1 1 0 0 0-.983-.816v1Zm2.46 18.478a1 1 0 1 0 1.965-.37l-1.966.37Zm3.114 6.041a1 1 0 0 0-1.97.353l1.97-.353Zm-.822 6.755a1 1 0 0 0 1.969-.352l-1.969.352Zm-6.186-7.578a1 1 0 1 0 0 2v-2Zm37.857 2a1 1 0 0 0 0-2v2ZM4.443 37.195a1 1 0 1 0 0 2v-2Zm40.152 2a1 1 0 1 0 0-2v2ZM2.722 28.05a1 1 0 1 0 0 2v-2Zm43.592 2a1 1 0 1 0 0-2v2Zm-12.201-.867a1 1 0 1 0-1.982-.266l1.982.266Zm-3.212 8.88a1 1 0 1 0 1.982.266l-1.982-.266Zm1.164 6.663a1 1 0 0 0-1.984-.254l1.984.254Zm-2.803 6.148a1 1 0 1 0 1.984.254l-1.984-.254ZM16.905 28.916a1 1 0 0 0-1.982.266l1.982-.266Zm-.753 9.412a1 1 0 0 0 1.983-.266l-1.983.266Zm2.803 6.143a1 1 0 1 0-1.984.254l1.984-.254Zm-1.165 6.656a1 1 0 0 0 1.984-.254l-1.984.254Zm7.728-22.078a1 1 0 1 0-2 0h2Zm-2 9.146a1 1 0 1 0 2 0h-2Zm2 6.403a1 1 0 1 0-2 0h2Zm-2 6.402a1 1 0 1 0 2 0h-2Zm7.016-31.242a1 1 0 0 0-1.94-.487l1.94.487Zm-.536 9.791a1 1 0 0 0 1.732-1l-1.732 1Zm-6.875-9.718a1 1 0 1 0-1.457 1.37l1.457-1.37Zm16.782-9.422a1 1 0 0 0 1.456-1.37l-1.456 1.37Zm-2.573-5.654a1 1 0 0 0-1.457 1.37l1.457-1.37Zm-8.126-.015a1 1 0 0 0-1.457 1.371l1.457-1.37Zm8.113 1.37a1 1 0 1 0-1.457-1.37l1.456 1.37Zm-3.41 22.264a1 1 0 0 0 1.474 1.35l-1.475-1.35Zm1.257-11.457-.945-.328a1 1 0 0 0 .15.934l.795-.606Zm5.461-7.2-.725-.688.725.688Zm4.17-4.405.729.685a1 1 0 0 0 0-1.37l-.729.685ZM40.741 1l.728-.685a1 1 0 0 0-1.456 0L40.74 1Zm-4.142 4.435-.732-.681.732.681Zm-6.763 5.816-.653.757a1 1 0 0 0 1.018.174l-.365-.931Zm-2.632-2.604a1 1 0 1 0-.607 1.906l.607-1.906Zm-7.735 3.534a1 1 0 0 0-1.356-1.471l1.356 1.47Zm-1.13-.288-.729-.685.729.685ZM16.31 14.05l-.729-.685a1 1 0 0 0 0 1.37l.729-.685Zm2.936 2.264.385.923a1 1 0 0 0 .088-1.804l-.473.88ZM16.31 18.36l.728.685-.728-.685Zm-2.029 2.155-.728-.685a1 1 0 0 0 0 1.37l.728-.685ZM17.2 22.77l.957.289a1 1 0 0 0-.482-1.169l-.475.88Zm-1.86 6.242a1 1 0 1 0 1.998.076l-1.999-.076ZM37.26 51.176l1.147-6.402-1.969-.353-1.147 6.403 1.969.352Zm2.293-12.796 3.441-18.293-1.965-.37-3.442 18.293 1.966.37Zm2.459-17.478h6.022v-2h-6.022v2Zm5.039-1.181-5.736 31.098 1.967.362 5.736-31.097-1.967-.363ZM42.299 50H6.737v2h35.562v-2Zm-34.579.819L1.984 19.72l-1.967.363L5.753 51.18l1.967-.362ZM1 20.902h6.023v-2H1.001v2Zm5.04-.815L9.483 38.38l1.966-.37-3.442-18.292-1.965.37Zm4.588 24.687 1.147 6.402 1.969-.352-1.147-6.403-1.97.353Zm-5.039.824h37.857v-2H5.59v2Zm-1.147-6.403h40.152v-2H4.442v2Zm-1.72-9.146h43.592v-2H2.722v2Zm29.409-1.133-1.23 9.146 1.982.266 1.23-9.146-1.982-.266ZM30.08 44.47l-.819 6.402 1.984.254.82-6.403-1.985-.253ZM14.923 29.182l1.23 9.146 1.982-.266-1.23-9.146-1.982.266Zm2.048 15.543.82 6.402 1.983-.254-.82-6.402-1.983.254Zm6.547-15.676v9.146h2V29.05h-2Zm0 15.549V51h2v-6.402h-2Zm5.076-25.327c-.18.718-.303 1.449-.368 2.185l1.992.175c.056-.632.161-1.258.316-1.873l-1.94-.487Zm-.368 2.186c-.24 2.777.347 5.625 1.772 8.092l1.732-1c-1.212-2.097-1.718-4.533-1.511-6.919l-1.993-.173Zm-6.56-.256c2.17 2.308 5.482 2.722 8.063 1.205l-1.014-1.724c-1.778 1.045-4.064.774-5.592-.85l-1.457 1.37ZM41.361 9.038l-4.03-4.283-1.456 1.37 4.03 4.284 1.456-1.37ZM27.75 6.111c2.636 2.8 6.935 2.801 9.57 0l-1.457-1.37c-1.845 1.961-4.81 1.961-6.656 0l-1.457 1.37Zm-5.187 3.222c0 .024-.009.034-.009.034s.005-.005.015-.01a.096.096 0 0 1 .038-.007v2c1.137 0 1.956-.962 1.956-2.017h-2Zm.044.017c.013 0 .027.003.038.008.01.004.014.008.014.009 0 0-.008-.01-.008-.034h-2c0 1.055.82 2.017 1.956 2.017v-2Zm.044-.017c0-.024.009-.033.008-.033 0 0-.004.004-.014.009a.096.096 0 0 1-.038.008v-2c-1.137 0-1.956.961-1.956 2.016h2Zm-.044-.016a.096.096 0 0 1-.038-.008c-.01-.005-.014-.009-.015-.01 0 0 .009.01.009.034h2c0-1.055-.819-2.016-1.956-2.016v2Zm12.777 20.407c3.398-3.71 3.584-9.476.578-13.414l-1.59 1.213c2.429 3.182 2.27 7.866-.463 10.85l1.475 1.351Zm.727-12.48c.662-1.908 1.197-2.57 5.243-6.839L39.901 9.03c-3.985 4.204-4.852 5.173-5.68 7.559l1.89.655Zm5.243-6.838c1.11-1.172 2.479-2.61 4.172-4.409l-1.456-1.37c-1.69 1.796-3.054 3.228-4.167 4.402l1.451 1.377Zm4.173-5.78L41.469.316l-1.456 1.37 4.056 4.312 1.457-1.37ZM40.013.316c-1.694 1.8-3.045 3.256-4.146 4.439l1.464 1.362c1.103-1.185 2.45-2.635 4.138-4.43L40.013.314Zm-4.146 4.439c-3.975 4.269-4.613 4.867-6.396 5.566l.73 1.862c2.288-.897 3.236-1.884 7.13-6.066l-1.464-1.362Zm-5.378 5.74a9.39 9.39 0 0 0-3.285-1.847l-.607 1.906a7.39 7.39 0 0 1 2.586 1.455l1.306-1.514Zm-12.376.216c-.172.159-.34.325-.503.498l1.457 1.37c.13-.139.265-.271.402-.397l-1.356-1.471Zm-.503.498-2.028 2.156 1.457 1.37 2.028-2.155-1.457-1.37Zm-2.028 3.526a12.525 12.525 0 0 0 3.191 2.46l.947-1.762a10.523 10.523 0 0 1-2.68-2.068l-1.458 1.37Zm3.28.656c-1.2.5-2.32 1.264-3.28 2.286l1.458 1.37a7.534 7.534 0 0 1 2.592-1.81l-.77-1.846Zm-3.28 2.285-2.028 2.156 1.456 1.37 2.029-2.155-1.456-1.37Zm-2.028 3.527a12.517 12.517 0 0 0 3.17 2.447l.95-1.76a10.517 10.517 0 0 1-2.664-2.058l-1.456 1.37Zm2.687 1.279c-.625 2.076-.833 4.717-.903 6.53l1.999.076c.068-1.785.271-4.211.82-6.029l-1.916-.577Z" fill="#D1C396"/>
</svg>