<svg width="46" height="31" viewBox="0 0 46 31" fill="none" xmlns="http://www.w3.org/2000/svg">
<path d="M43.6409 0H2.35902C1.0615 0 0 1.07304 0 2.38457V28.6153C0 29.9268 1.0615 31 2.35902 31H43.641C44.9383 31 46 29.927 46 28.6153V2.38457C45.9999 1.07304 44.9384 0 43.6409 0ZM42.7557 1.78834L24.357 15.7385C24.0261 15.993 23.5184 16.1522 22.9999 16.1498C22.4815 16.1522 21.9738 15.993 21.6429 15.7385L3.24416 1.78834H42.7557ZM32.9277 16.659L42.9533 29.1782C42.9634 29.1908 42.9757 29.2003 42.9864 29.2117H3.01353C3.02413 29.1998 3.03653 29.1908 3.0466 29.1782L13.0722 16.659C13.3794 16.2751 13.3212 15.7122 12.9407 15.401C12.5609 15.0905 12.0042 15.1493 11.6969 15.5333L1.7692 27.9304V2.90615L20.5819 17.1691C21.2891 17.7015 22.1494 17.9358 22.9998 17.9382C23.849 17.9363 24.71 17.702 25.4176 17.1691L44.2304 2.90615V27.9302L34.3029 15.5333C33.9956 15.1494 33.4383 15.0904 33.0591 15.401C32.6787 15.7115 32.6203 16.2751 32.9277 16.659Z" fill="#D1C396"/>
</svg>
