<svg width="35" height="48" viewBox="0 0 35 48" fill="none" xmlns="http://www.w3.org/2000/svg">
<path d="M17.5 0C7.85029 0 0 7.95411 0 17.7314C0 20.9502 1.42471 24.412 1.48441 24.558C1.94456 25.6647 2.8525 27.3836 3.50721 28.3911L15.506 46.812C15.9971 47.5671 16.7238 48 17.5 48C18.2762 48 19.0029 47.5671 19.494 46.813L31.4938 28.3911C32.1496 27.3836 33.0565 25.6647 33.5166 24.558C33.5763 24.413 35 20.9512 35 17.7314C35 7.95411 27.1497 0 17.5 0ZM31.6184 23.7486C31.2076 24.7405 30.3625 26.3395 29.7747 27.2428L17.7749 45.6647C17.5381 46.0287 17.4629 46.0287 17.2262 45.6647L5.22632 27.2428C4.63853 26.3395 3.79338 24.7395 3.38265 23.7476C3.36515 23.7048 2.05882 20.5184 2.05882 17.7314C2.05882 9.10456 8.98574 2.08605 17.5 2.08605C26.0143 2.08605 32.9412 9.10456 32.9412 17.7314C32.9412 20.5226 31.6318 23.7173 31.6184 23.7486Z" fill="#D1C396"/>
<path d="M17.5 8.34524C12.391 8.34524 8.23529 12.557 8.23529 17.7325C8.23529 22.908 12.391 27.1197 17.5 27.1197C22.609 27.1197 26.7647 22.908 26.7647 17.7325C26.7647 12.557 22.609 8.34524 17.5 8.34524ZM17.5 25.0336C13.5275 25.0336 10.2941 21.7585 10.2941 17.7325C10.2941 13.7064 13.5275 10.4313 17.5 10.4313C21.4725 10.4313 24.7059 13.7064 24.7059 17.7325C24.7059 21.7585 21.4725 25.0336 17.5 25.0336Z" fill="#D1C396"/>
</svg>
