<svg width="48" height="48" viewBox="0 0 48 48" fill="none" xmlns="http://www.w3.org/2000/svg">
<path d="M37.9554 29.7343C36.9713 28.7111 35.7843 28.164 34.5262 28.164C33.2783 28.164 32.0812 28.701 31.0565 29.7242L27.8505 32.9153C27.5867 32.7735 27.3229 32.6418 27.0693 32.5101C26.7041 32.3278 26.3591 32.1555 26.0649 31.9732C23.0618 30.0686 20.3327 27.5866 17.7152 24.3751C16.447 22.7745 15.5948 21.4271 14.9759 20.0594C15.8078 19.2996 16.5789 18.5094 17.3296 17.7496C17.6137 17.466 17.8978 17.1722 18.1819 16.8885C20.3124 14.7611 20.3124 12.0055 18.1819 9.87805L15.4121 7.11236C15.0976 6.79831 14.773 6.47413 14.4686 6.14994C13.8599 5.52184 13.2207 4.87347 12.5613 4.26563C11.5772 3.29308 10.4003 2.77641 9.16253 2.77641C7.92478 2.77641 6.72762 3.29308 5.71307 4.26563C5.70292 4.27576 5.70292 4.27576 5.69278 4.28589L2.24332 7.76073C0.944694 9.05746 0.204075 10.6379 0.0417471 12.4715C-0.201744 15.4297 0.670767 18.1853 1.34037 19.9885C2.98394 24.4157 5.43914 28.5186 9.10166 32.9153C13.5454 38.2137 18.892 42.3977 24.9996 45.3457C27.3331 46.45 30.4477 47.7569 33.9276 47.9797C34.1407 47.9899 34.3639 48 34.5668 48C36.9104 48 38.8786 47.1591 40.4207 45.4876C40.4309 45.4673 40.4512 45.4572 40.4613 45.4369C40.9889 44.7987 41.5976 44.2212 42.2368 43.6033C42.673 43.1879 43.1194 42.7523 43.5557 42.2964C44.5601 41.2529 45.0877 40.0372 45.0877 38.7912C45.0877 37.535 44.5499 36.3294 43.5253 35.3163L37.9554 29.7343ZM41.5875 40.402C41.5773 40.402 41.5773 40.4121 41.5875 40.402C41.1918 40.8274 40.786 41.2124 40.3497 41.6379C39.6903 42.266 39.0207 42.9245 38.3916 43.664C37.367 44.7582 36.1596 45.2748 34.5769 45.2748C34.4248 45.2748 34.2624 45.2748 34.1103 45.2647C31.097 45.0722 28.2969 43.8971 26.1968 42.8941C20.4544 40.1183 15.4121 36.1774 11.2221 31.183C7.76245 27.0193 5.44929 23.1696 3.91732 19.0362C2.97379 16.5137 2.62884 14.5483 2.78103 12.6944C2.88248 11.5091 3.33903 10.5264 4.1811 9.68557L7.64071 6.23099C8.13784 5.76498 8.6654 5.51171 9.18282 5.51171C9.82199 5.51171 10.3394 5.89668 10.6641 6.22086C10.6742 6.23099 10.6844 6.24112 10.6945 6.25125C11.3134 6.8287 11.9018 7.42642 12.5207 8.06465C12.8352 8.38884 13.1598 8.71302 13.4845 9.04733L16.2542 11.813C17.3296 12.8869 17.3296 13.8797 16.2542 14.9536C15.96 15.2473 15.6759 15.5411 15.3817 15.8248C14.5295 16.696 13.7178 17.5065 12.8352 18.2967C12.8149 18.317 12.7946 18.3271 12.7845 18.3473C11.912 19.2186 12.0743 20.0696 12.2569 20.647C12.267 20.6774 12.2772 20.7078 12.2873 20.7382C13.0077 22.4807 14.0222 24.1219 15.5643 26.0771L15.5745 26.0872C18.3746 29.5317 21.327 32.2163 24.5837 34.2729C24.9996 34.5363 25.4257 34.749 25.8315 34.9516C26.1968 35.134 26.5417 35.3062 26.8359 35.4885C26.8765 35.5088 26.9171 35.5392 26.9577 35.5595C27.3026 35.7317 27.6273 35.8127 27.9621 35.8127C28.8042 35.8127 29.3317 35.2859 29.5042 35.1137L32.974 31.649C33.3189 31.3046 33.8668 30.8892 34.5059 30.8892C35.1349 30.8892 35.6524 31.2843 35.9669 31.6287C35.977 31.6389 35.977 31.6389 35.9872 31.649L41.5773 37.231C42.6223 38.2644 42.6223 39.3281 41.5875 40.402Z" fill="#D1C396"/>
<path d="M25.9431 11.4179C28.6013 11.8637 31.0159 13.1199 32.9435 15.0447C34.8712 16.9696 36.1191 19.3807 36.5756 22.0349C36.6872 22.7036 37.2655 23.1696 37.925 23.1696C38.0061 23.1696 38.0771 23.1594 38.1583 23.1493C38.9091 23.0277 39.4062 22.3186 39.2844 21.5689C38.7366 18.3575 37.2148 15.4297 34.8915 13.1098C32.5681 10.7898 29.6361 9.27021 26.42 8.72315C25.6692 8.60158 24.9692 9.09799 24.8373 9.83753C24.7054 10.5771 25.1924 11.2964 25.9431 11.4179Z" fill="#D1C396"/>
<path d="M47.9791 21.1738C47.0762 15.8856 44.5804 11.0735 40.7454 7.24406C36.9104 3.41465 32.0913 0.922486 26.7954 0.0208505C26.0547 -0.110849 25.3547 0.395688 25.2228 1.13523C25.1011 1.88491 25.5982 2.58393 26.349 2.71563C31.0768 3.51595 35.3886 5.75485 38.8178 9.1689C42.2469 12.5931 44.4789 16.8987 45.2804 21.6196C45.392 22.2882 45.9703 22.7542 46.6298 22.7542C46.7109 22.7542 46.782 22.7441 46.8631 22.734C47.6037 22.6225 48.111 21.9134 47.9791 21.1738Z" fill="#D1C396"/>
</svg>
