<svg width="175" height="171" viewBox="0 0 175 171" fill="none" xmlns="http://www.w3.org/2000/svg">
<path fill-rule="evenodd" clip-rule="evenodd" d="M171.845 85.8165L169.727 85.7713V86.133C169.727 86.4947 169.727 86.766 169.772 86.9921C169.817 87.2181 169.907 87.399 170.042 87.5346C170.178 87.6703 170.403 87.7607 170.764 87.7607C171.079 87.7607 171.349 87.7155 171.53 87.5798C171.71 87.4442 171.8 87.2634 171.845 87.0825C171.89 86.8564 171.935 86.5851 171.935 86.2234L171.845 85.8165ZM165.13 83.4201L173.648 83.6462L173.558 87.0373C173.558 87.6703 173.423 88.2129 173.197 88.665C172.972 89.1171 172.656 89.4788 172.251 89.7049C171.845 89.931 171.304 90.0666 170.673 90.0666C170.178 90.0666 169.727 89.9762 169.366 89.8406C169.006 89.7049 168.69 89.4788 168.465 89.2528C168.24 88.9815 168.059 88.665 167.969 88.3033C167.879 87.9416 167.834 87.4894 167.834 86.9921L167.879 85.7261L165.04 85.6356L165.13 83.4201ZM170.223 70.1272C170.133 69.7203 169.952 69.3133 169.682 68.9968C169.412 68.6803 169.096 68.409 168.69 68.2734C168.33 68.1378 167.924 68.0925 167.564 68.1378C167.068 68.2282 166.662 68.409 166.347 68.6803C165.986 68.9516 165.761 69.3133 165.626 69.7202C165.491 70.1272 165.446 70.5341 165.536 70.9862C165.626 71.4384 165.806 71.8001 166.076 72.1166C166.347 72.4331 166.707 72.6592 167.113 72.84C167.519 72.9757 167.969 73.0209 168.465 72.9305C168.826 72.84 169.186 72.7044 169.502 72.4331C169.817 72.1618 170.042 71.8001 170.178 71.3932C170.268 70.9862 170.313 70.5341 170.223 70.1272ZM172.341 69.7655C172.431 70.3532 172.431 70.9863 172.341 71.574C172.251 72.1618 172.025 72.7496 171.71 73.247C171.395 73.7443 170.989 74.1965 170.493 74.513C169.997 74.8747 169.457 75.1007 168.826 75.1912C168.15 75.3268 167.519 75.3268 166.888 75.1912C166.257 75.0555 165.716 74.8294 165.22 74.4677C164.724 74.106 164.319 73.6991 164.003 73.1565C163.688 72.614 163.463 72.0262 163.327 71.348C163.192 70.6697 163.192 70.0368 163.327 69.449C163.463 68.8612 163.688 68.2734 164.048 67.776C164.409 67.2787 164.815 66.8718 165.355 66.5553C165.896 66.2388 166.482 66.0127 167.158 65.877C167.789 65.7866 168.375 65.7866 168.961 65.9675C169.547 66.1031 170.042 66.3744 170.538 66.7361C170.989 67.0978 171.395 67.55 171.71 68.0925C172.025 68.5899 172.251 69.1325 172.341 69.7655ZM163.012 52.2224L164.319 55.1613L167.338 53.8049L168.24 55.8395L160.443 59.3662L159.542 57.3316L162.741 55.8847L161.434 52.9458L158.235 54.3926L157.333 52.358L165.13 48.8313L166.031 50.8659L163.012 52.2224ZM160.308 41.0545L158.37 41.2353C158.46 40.6475 158.325 40.1502 158.054 39.698C157.919 39.5172 157.739 39.3363 157.559 39.2459C157.333 39.1555 157.153 39.1555 156.973 39.2911C156.792 39.4268 156.702 39.5624 156.702 39.7885C156.702 40.0145 156.747 40.2406 156.837 40.5571L157.018 41.1449C157.198 41.8231 157.243 42.4109 157.153 42.9082C157.063 43.4056 156.747 43.8577 156.207 44.1742C155.35 44.7168 154.539 44.8977 153.818 44.6716C153.007 44.4455 152.376 43.903 151.835 43.0439C151.249 42.1396 150.979 41.0997 151.024 39.9693L153.052 39.7885C152.917 40.6928 153.007 41.371 153.367 41.9135C153.502 42.1396 153.728 42.3205 153.953 42.4109C154.178 42.5013 154.449 42.5013 154.674 42.3205C154.9 42.1848 154.99 41.9587 154.99 41.6875C154.945 41.4162 154.9 41.0545 154.764 40.6475C154.584 40.105 154.494 39.6528 154.449 39.2911C154.404 38.9294 154.494 38.6129 154.629 38.2964C154.809 37.9799 155.08 37.6634 155.531 37.3921C156.026 37.0756 156.477 36.94 157.018 36.8948C157.514 36.8495 158.009 36.9852 158.415 37.2565C158.866 37.4825 159.226 37.8895 159.542 38.3416C159.767 38.7033 159.992 39.1555 160.127 39.6076C160.218 40.1502 160.308 40.6023 160.308 41.0545ZM145.841 27.5354L150.258 27.0381L152.15 29.0275L146.877 29.3892L146.201 35.1766L144.218 33.0968L144.939 28.4397L142.28 31.0169L140.748 29.3892L146.922 23.4662L148.455 25.0939L145.841 27.5354ZM135.16 16.3675L133.943 18.0857L134.123 18.2213C134.348 18.4022 134.574 18.5378 134.799 18.583C135.024 18.6735 135.205 18.6735 135.43 18.6282C135.655 18.583 135.836 18.4474 136.016 18.2213C136.196 17.9952 136.241 17.7692 136.241 17.5431C136.196 17.317 136.106 17.1362 135.971 16.9553C135.836 16.7745 135.61 16.5936 135.385 16.458L135.16 16.3675ZM135.024 20.3464L135.205 24.7774L132.951 23.1497L133.132 19.2612L131.239 21.9289L129.436 20.6177L134.394 13.6547L137.098 15.5989C137.548 15.9154 137.909 16.3223 138.179 16.7292C138.45 17.1362 138.54 17.5883 138.54 18.0405C138.54 18.4926 138.314 18.99 137.999 19.4421C137.774 19.7586 137.503 20.0299 137.188 20.2107C136.872 20.3916 136.557 20.5272 136.196 20.5272C135.746 20.6177 135.385 20.5272 135.024 20.3464ZM121.279 8.81676C120.873 8.63591 120.467 8.59069 120.062 8.59069C119.656 8.63591 119.251 8.77155 118.89 8.99762C118.529 9.22369 118.304 9.54019 118.124 9.85669C117.944 10.3088 117.853 10.7158 117.899 11.1679C117.944 11.62 118.079 12.027 118.304 12.3435C118.529 12.7052 118.89 12.9765 119.251 13.1573C119.656 13.3382 120.062 13.3834 120.467 13.3382C120.873 13.293 121.279 13.1121 121.639 12.886C122 12.6148 122.27 12.253 122.45 11.8461C122.631 11.4844 122.676 11.1227 122.586 10.7158C122.541 10.3088 122.36 9.94712 122.135 9.5854C122 9.26891 121.684 8.99762 121.279 8.81676ZM122.18 6.87255C122.721 7.14384 123.217 7.46034 123.667 7.91248C124.118 8.36462 124.433 8.81676 124.659 9.35933C124.884 9.9019 125.019 10.4897 125.019 11.0775C125.019 11.6653 124.884 12.253 124.659 12.8408C124.388 13.4738 124.028 13.9712 123.577 14.4233C123.126 14.8755 122.631 15.192 122.045 15.3728C121.459 15.5989 120.873 15.6893 120.287 15.6441C119.656 15.5989 119.07 15.4632 118.439 15.192C117.808 14.9207 117.313 14.559 116.862 14.1068C116.411 13.6547 116.096 13.1573 115.87 12.5695C115.645 11.9818 115.555 11.394 115.6 10.8062C115.645 10.1732 115.78 9.54019 116.051 8.9524C116.321 8.36462 116.682 7.91248 117.132 7.50555C117.583 7.09862 118.079 6.82734 118.665 6.64648C119.251 6.46563 119.836 6.42041 120.422 6.42041C121.053 6.46563 121.639 6.60127 122.18 6.87255ZM98.8797 0.587784L99.3755 6.28477L102.125 1.17557L103.882 1.49207L104.558 7.23427L107.127 2.07985L109.381 2.48678L105.189 10.4445L102.981 10.0375L102.395 4.88313H102.35L99.8262 9.49498L97.6178 9.08805L96.6263 0.226071L98.8797 0.587784ZM76.4357 3.97885L79.6356 3.57192L79.23 0.271285L81.4383 0L82.52 8.50026L80.3116 8.77155L79.8609 5.29006L76.6611 5.69699L77.1118 9.17848L74.9034 9.44976L73.8218 0.949498L76.0301 0.678213L76.4357 3.97885ZM64.1321 5.19963L65.9348 11.62L63.8166 12.2078L62.0139 5.78741L60.2562 6.28477L59.7605 4.4762L65.349 2.84849L65.8447 4.65706L64.1321 5.19963ZM51.4229 13.926L49.3948 11.8913L49.8004 14.7398L51.4229 13.926ZM52.7298 15.1467L50.0258 16.5484L50.161 18.1309L48.0428 19.216L47.0513 10.0828L49.2145 8.9524L55.9748 15.1015L53.8566 16.1867L52.7298 15.1467ZM34.7476 20.3916L35.7842 21.7028L35.9645 21.5672C36.2349 21.3411 36.4602 21.115 36.5503 20.8889C36.6405 20.6629 36.5954 20.4368 36.4151 20.1655C36.1898 19.8942 35.9645 19.8038 35.7391 19.849C35.5138 19.8942 35.1983 20.0751 34.8828 20.3012L34.7476 20.3916ZM39.9305 25.0487L37.2264 27.1737L31.9534 20.4368L34.4321 18.4926C35.7391 17.4527 36.8658 17.4979 37.8123 18.6735C38.3531 19.3517 38.4432 19.9847 38.1728 20.6177C38.6686 20.3012 39.1643 20.2107 39.615 20.3464C40.0657 20.482 40.4713 20.7533 40.8769 21.2507C41.3727 21.8837 41.5079 22.5619 41.2825 23.2401C41.1022 23.8731 40.6065 24.5061 39.9305 25.0487ZM36.8208 23.014L37.9475 24.4609L38.1728 24.28C38.6235 23.9183 38.8939 23.647 39.0742 23.3305C39.2544 23.0592 39.2094 22.7427 38.984 22.4714C38.7587 22.1549 38.4883 22.0645 38.2179 22.1097C37.9475 22.2002 37.632 22.3358 37.2714 22.6071L36.956 22.8332L36.8208 23.014ZM26.4551 38.5225L25.3734 38.6581C25.3284 39.8789 25.0579 40.8736 24.5171 41.6423C24.2467 42.0492 23.8862 42.3657 23.4806 42.5917C23.0749 42.8178 22.6693 42.9082 22.2186 42.9082C21.768 42.9082 21.3624 42.7274 20.9567 42.4561C20.461 42.0944 20.1906 41.6875 20.0554 41.2353C19.9202 40.7832 19.9652 40.1954 20.1004 39.5624L20.1455 39.3363H19.83C19.6047 39.3363 19.4244 39.3363 19.2892 39.3363C19.154 39.3363 18.9737 39.2911 18.7935 39.2459C18.6132 39.2007 18.4329 39.1103 18.2526 38.9746C17.847 38.7033 17.6217 38.3416 17.4414 37.9347C17.3062 37.5278 17.2611 37.1208 17.3513 36.6687C17.4414 36.2165 17.6217 35.8096 17.8921 35.4479C18.1625 35.0862 18.478 34.7697 18.8836 34.5436C19.2892 34.3176 19.6948 34.2271 20.1004 34.2271C20.5511 34.2271 20.9567 34.3628 21.3173 34.6341C21.7229 34.9053 21.9482 35.2671 22.0384 35.674C22.1285 36.0809 22.1285 36.5783 22.0384 37.1208L23.5707 36.8948C23.5256 36.2166 23.4355 35.7192 23.2552 35.2671L24.9678 34.9506L25.2833 36.4878L25.3284 36.6235L28.0775 36.2165L26.4551 38.5225ZM20.6863 37.3017C20.7314 37.0304 20.6863 36.8043 20.6413 36.5783C20.5962 36.3522 20.461 36.1713 20.2807 36.0357C20.1004 35.9001 19.9202 35.8548 19.6948 35.9001C19.4695 35.9001 19.3343 36.0357 19.1991 36.2165C19.0639 36.3974 19.0188 36.5783 19.0639 36.7591C19.1089 36.94 19.1991 37.1208 19.3343 37.2113C19.4695 37.3017 19.6498 37.3921 19.83 37.3921C20.0554 37.3469 20.3258 37.3469 20.6863 37.3017ZM23.6158 38.8842L21.6328 39.1103C21.6328 39.3815 21.6328 39.6528 21.6778 39.8789C21.7229 40.105 21.813 40.2406 21.9933 40.3763C22.1285 40.4667 22.2637 40.5119 22.3989 40.5119C22.5341 40.5119 22.7144 40.4667 22.8496 40.3763C22.9848 40.2858 23.12 40.1954 23.2101 40.0598C23.4355 39.698 23.5707 39.3363 23.6158 38.8842ZM12.3938 56.8794L9.55447 56.7438L11.7628 58.5976L12.3938 56.8794ZM14.1965 56.9699L13.0698 59.8183L14.2416 60.9035L13.3853 63.119L6.6701 56.9246L7.57147 54.6639L16.6753 54.7996L15.7739 56.9699H14.1965ZM4.50682 72.7044L6.57996 73.0661L6.62503 72.7044C6.6701 72.3427 6.71517 72.0714 6.71517 71.8453C6.71517 71.6192 6.6701 71.4384 6.5349 71.2575C6.39969 71.0767 6.17435 70.9862 5.85887 70.941C5.54339 70.8958 5.27298 70.8958 5.09271 71.0315C4.91244 71.1219 4.77723 71.3027 4.73217 71.4836C4.64203 71.6645 4.59696 71.981 4.50682 72.3427V72.7044ZM10.7713 76.0955L2.38862 74.6034L2.9745 71.2575C3.06464 70.6245 3.28998 70.1272 3.56039 69.675C3.8308 69.2681 4.19135 68.9516 4.6871 68.7708C5.13778 68.5899 5.6786 68.5447 6.30955 68.6803C6.80531 68.7708 7.21092 68.9064 7.57147 69.0872C7.88694 69.2681 8.15735 69.5394 8.33763 69.8107C8.5179 70.1272 8.6531 70.4437 8.69817 70.8506C8.74324 71.2575 8.74324 71.6645 8.6531 72.1618L8.42776 73.4278L11.222 73.9252L10.7713 76.0955ZM1.983 84.1888L3.74066 85.0479C3.38012 85.5 3.19985 85.9973 3.19985 86.5399C3.19985 86.766 3.28998 86.9921 3.42519 87.1729C3.56039 87.3538 3.74066 87.4894 3.96601 87.4442C4.19135 87.4442 4.32655 87.3538 4.46176 87.1729C4.55189 86.9921 4.6871 86.766 4.77723 86.4495L4.91244 85.8617C5.09271 85.1835 5.36312 84.6409 5.72367 84.2792C6.08421 83.9175 6.57996 83.6914 7.21092 83.6914C8.24749 83.6462 9.01365 83.9175 9.5094 84.5053C10.0502 85.1383 10.3657 85.9521 10.3657 86.9016C10.4108 87.9868 10.0953 88.9815 9.46433 89.931L7.6616 89.0267C8.24749 88.3485 8.5179 87.6703 8.5179 87.0373C8.5179 86.766 8.42776 86.4947 8.29256 86.2686C8.15735 86.0426 7.93201 85.9521 7.6616 85.9521C7.39119 85.9521 7.21092 86.0878 7.07571 86.3139C6.94051 86.5851 6.85037 86.9016 6.71517 87.3086C6.57996 87.8511 6.44476 88.3033 6.26449 88.6198C6.12928 88.9363 5.90394 89.2076 5.58846 89.3884C5.27298 89.5693 4.86737 89.6597 4.37162 89.7049C3.78573 89.7049 3.28998 89.6145 2.8393 89.3432C2.38862 89.1171 2.07314 88.7554 1.80273 88.3033C1.53232 87.8511 1.44218 87.3538 1.39712 86.8112C1.39712 86.3591 1.44218 85.9069 1.53232 85.4096C1.62246 85.0026 1.75766 84.5957 1.983 84.1888Z" fill="#120900"/>
<path fill-rule="evenodd" clip-rule="evenodd" d="M173.197 113.759C173.197 114.618 172.837 114.889 172.206 114.889H171.575V116.381H172.116C172.882 116.381 173.197 116.743 173.197 117.738V118.552C173.197 119.501 172.882 119.727 172.341 119.727C171.8 119.727 171.485 119.456 171.485 118.687V117.692H169.907V118.552C169.907 120.224 170.764 121.219 172.386 121.219C174.008 121.219 174.865 120.27 174.865 118.552V117.738C174.865 116.653 174.549 115.884 173.693 115.522C174.504 115.206 174.865 114.482 174.865 113.352V113.081C174.865 111.408 174.008 110.413 172.386 110.413C170.764 110.413 169.907 111.363 169.907 113.081V113.668H171.485V113.035C171.485 112.267 171.8 111.995 172.341 111.995C172.882 111.995 173.197 112.267 173.197 113.216V113.759ZM166.933 113.171C166.933 116.246 163.643 116.743 163.643 119.863V121.174H168.42V119.682H165.265C165.265 119.591 165.265 119.546 165.265 119.456C165.265 117.738 168.555 116.472 168.555 113.171C168.555 111.498 167.699 110.503 166.076 110.503C164.454 110.503 163.598 111.453 163.598 113.171V114.211H165.175V113.035C165.175 112.267 165.491 111.995 166.031 111.995C166.617 111.995 166.933 112.222 166.933 113.171ZM157.153 118.642C157.153 120.315 158.054 121.31 159.677 121.31C161.299 121.31 162.201 120.36 162.201 118.642V113.126C162.201 111.453 161.299 110.458 159.677 110.458C158.054 110.458 157.153 111.408 157.153 113.126V118.642ZM158.82 113.035C158.82 112.267 159.136 111.995 159.677 111.995C160.218 111.995 160.533 112.267 160.533 113.035V118.732C160.533 119.501 160.218 119.772 159.677 119.772C159.136 119.772 158.82 119.501 158.82 118.732V113.035ZM154.224 113.171C154.224 116.246 150.934 116.743 150.934 119.863V121.174H155.711V119.682H152.556C152.556 119.591 152.556 119.546 152.556 119.456C152.556 117.738 155.846 116.472 155.846 113.171C155.846 111.498 154.99 110.503 153.367 110.503C151.745 110.503 150.888 111.453 150.888 113.171V114.211H152.466V113.035C152.466 112.267 152.781 111.995 153.322 111.995C153.908 111.995 154.224 112.222 154.224 113.171ZM11.6276 112.086H13.3402V121.174H15.0077V112.086H16.7203V110.594H11.6276V112.086ZM5.85887 113.126C5.85887 116.155 9.10379 116.562 9.10379 118.732C9.10379 119.501 8.78831 119.772 8.24749 119.772C7.70667 119.772 7.39119 119.501 7.39119 118.732V117.964H5.8138V118.597C5.8138 120.27 6.6701 121.264 8.29256 121.264C9.91501 121.264 10.7713 120.315 10.7713 118.597C10.7713 115.567 7.5264 115.16 7.5264 112.99C7.5264 112.222 7.84187 111.95 8.33763 111.95C8.87844 111.95 9.14885 112.222 9.14885 112.99V113.442H10.7262V113.126C10.7262 111.453 9.91501 110.458 8.29256 110.458C6.71517 110.458 5.85887 111.453 5.85887 113.126ZM1.80273 112.086H4.64203V110.594H0.135205V121.174H4.64203V119.682H1.80273V116.562H4.05614V115.07H1.80273V112.086Z" fill="#120900"/>
<path fill-rule="evenodd" clip-rule="evenodd" d="M82.0693 120.541C82.7453 121.219 82.9706 122.078 83.0608 123.073H91.9843C92.0744 122.078 92.2998 121.219 92.9758 120.541C95.2743 119.275 93.111 118.145 96.1756 117.331C97.8432 116.879 101.809 116.879 104.288 116.426C105.37 116.246 106.586 116.02 107.893 115.748C116.141 114.075 127.273 106.796 132.681 100.511C134.033 98.9286 134.844 98.0243 134.303 95.5828C134.348 93.5481 132.14 84.4601 128.985 81.6116C127.498 76.5928 123.938 68.1378 114.789 68.2734C111.769 68.3186 109.381 65.651 105.189 65.4701C102.575 65.2893 101.899 63.0286 101.854 60.8583C109.02 57.8289 114.654 42.4109 111.228 41.2353C109.696 40.6928 105.82 37.9347 104.739 35.041C100.728 26.3146 96.9869 19.0352 87.5676 19.0804C78.0582 18.99 74.3626 26.2694 70.3065 34.9958C69.2248 37.8443 65.349 40.6475 63.8166 41.1901C60.3915 42.3657 66.0701 57.9194 73.281 60.8583C73.2359 63.0286 72.6049 65.244 69.8558 65.4701C65.7095 65.6058 63.2758 68.3186 60.2562 68.2734C51.1074 68.1378 47.547 76.5928 46.0597 81.6116C42.905 84.4601 40.6966 93.5481 40.7417 95.5828C40.2009 98.0243 40.967 98.9286 42.3642 100.511C47.7723 106.796 58.9042 114.075 67.1517 115.748C68.5037 116.02 69.7206 116.246 70.7571 116.426C73.2359 116.879 77.2019 116.879 78.8694 117.331C81.9341 118.145 79.7708 119.275 82.0693 120.541Z" fill="#896634"/>
<path fill-rule="evenodd" clip-rule="evenodd" d="M81.7087 58.5976C82.0693 57.9646 83.6917 57.5124 84.5931 57.3316C85.7198 57.1055 86.8916 56.9699 87.5225 56.3369C88.1535 57.0151 89.3253 57.1055 90.452 57.3316C91.3533 57.5124 92.9758 58.0098 93.3363 58.5976C93.0659 59.1854 91.804 60.0444 90.6773 59.8636C89.5506 59.6375 88.9647 59.0497 87.5676 59.0497C86.1705 59.0497 85.5846 59.6827 84.4579 59.8636C83.2411 60.0896 81.9791 59.1854 81.7087 58.5976ZM96.3559 57.1959C97.3474 51.7702 98.1136 51.9511 98.2488 50.0973C98.4741 47.6105 97.8432 46.7514 97.3925 45.7567C97.2122 45.802 95.0039 45.395 95.0039 46.2993C94.9588 47.4297 93.6068 47.3845 92.48 47.3845C91.2181 47.3845 90.1816 46.7967 88.8295 46.661C88.8746 45.9376 89.0999 43.9482 89.8661 43.9934C92.0294 44.129 93.8772 43.2247 96.3108 43.27C96.5362 43.27 96.7615 43.5412 96.9418 43.8577C96.9418 43.4508 96.9869 42.9987 97.077 42.4561C94.0124 40.6475 90.7675 39.7885 87.4775 39.7433C84.2326 39.7433 80.9426 40.6475 77.8779 42.4561C77.9681 42.9987 78.0131 43.4508 78.0131 43.8577C78.1934 43.5412 78.4187 43.3152 78.6441 43.27C81.0778 43.2247 82.9706 44.129 85.0889 43.9934C85.855 43.9482 86.0804 45.9376 86.1254 46.661C84.7734 46.7967 83.7368 47.3845 82.4749 47.3845C81.3482 47.3845 79.9961 47.4297 79.9511 46.2993C79.906 45.4402 77.7427 45.8472 77.5625 45.7567C77.1118 46.7514 76.4808 47.6105 76.7062 50.0973C76.8864 51.9511 77.6075 51.8154 78.599 57.1959C78.8244 57.422 79.0948 57.5124 79.3201 57.5124C79.9511 57.5124 79.275 56.789 80.1764 55.2517C81.5735 54.5283 84.0072 52.5389 85.3142 53.3979C86.7113 54.3022 88.1535 54.3474 89.5506 53.3979C90.8576 52.5389 93.3363 54.5735 94.6884 55.2517C95.5898 56.789 94.9137 57.5124 95.5447 57.5124C95.8602 57.5124 96.1306 57.3768 96.3559 57.1959ZM102.53 37.0304C97.1221 32.6898 95.3193 22.0645 87.5225 22.2002C79.5004 22.2002 77.8779 32.7351 72.4697 37.0304C82.6101 30.7456 90.7674 30.5196 102.53 37.0304ZM75.1288 54.1214C74.633 60.9487 74.9034 64.3398 79.6807 71.8905C83.3763 73.4278 85.9902 74.7842 87.4775 74.7842C88.9647 74.7842 91.5336 73.5182 95.1841 72.0262C100.097 64.385 100.367 61.0843 99.9163 54.1214C99.9614 53.8501 100.006 53.5788 100.052 53.3075C100.367 53.1719 100.637 53.0362 100.908 52.8554C102.936 51.725 104.964 49.6904 105.685 47.4297C106.001 46.4802 106.091 45.5759 105.955 44.7168C105.955 44.6264 106.001 44.5812 105.955 44.4907C105.955 44.2195 105.91 43.903 105.82 43.6317C105.054 42.004 102.981 40.2858 100.052 38.8842C95.9052 36.3974 90.2717 34.9053 87.5225 34.9053C84.6832 34.9053 78.9145 36.4426 74.7232 39.0198C72.9204 40.0598 71.2078 41.371 69.6304 42.9987C68.9995 44.3551 68.8643 45.802 69.36 47.3845C70.1262 49.6452 72.1092 51.6346 74.1373 52.8102C74.4077 52.991 74.6781 53.1719 74.9936 53.3075C75.0386 53.5788 75.0837 53.8501 75.1288 54.1214Z" fill="#120900"/>
<path fill-rule="evenodd" clip-rule="evenodd" d="M122.315 90.0666C122.495 88.6198 122.495 87.2634 122.36 85.9521C122.27 85.2287 122.135 84.5505 121.955 83.9175C121.549 82.5159 120.963 81.4307 120.242 80.7073C119.972 80.436 119.701 80.2099 119.476 80.1647C118.259 80.9334 116.637 80.7073 115.735 79.5769C115.51 79.2604 115.33 78.9439 115.24 78.5822C115.059 77.8136 114.428 77.2258 113.527 76.7737C112.085 76.0954 110.102 75.8242 107.938 75.9146C107.262 75.9598 106.541 76.005 105.82 76.1407C106.361 77.3162 106.181 78.4918 106.046 79.7126C105.955 80.4812 105.865 81.2499 106.226 81.5664C106.496 81.7924 107.172 81.6116 107.938 81.4307C109.876 80.9786 111.95 80.4812 114.338 82.4706C116.997 84.7314 116.411 86.8112 115.87 88.7102C115.69 89.2528 115.555 89.7953 115.69 89.8858C115.916 90.0666 116.546 89.8858 117.223 89.7501C118.89 89.3432 120.558 88.9363 122.315 90.0666ZM117.448 99.9685C119.07 98.2052 120.242 96.3966 121.053 94.5428C121.053 94.1811 120.918 93.8194 120.648 93.5481C120.017 92.8699 119.07 93.096 118.214 93.322C116.501 93.729 114.879 94.1359 113.121 92.5986C111.319 90.9709 111.724 89.4336 112.22 87.7607C112.445 86.9016 112.716 85.9973 111.859 85.2287C111.003 84.5053 109.921 84.7766 108.93 85.0026C107.127 85.4548 105.505 85.8165 103.702 84.2792C101.899 82.6967 102.08 81.0238 102.305 79.3056C102.395 78.4918 102.485 77.6327 101.944 77.1806C101.719 77.271 101.539 77.3614 101.313 77.4067C99.1501 78.3109 97.4375 79.6221 96.8517 81.1142C99.1952 82.8324 98.9699 84.7314 98.7445 86.6303C98.6544 87.399 98.5643 88.1676 98.9248 88.4841C99.1952 88.7102 99.9163 88.5746 100.637 88.3937C102.575 87.9416 104.648 87.4442 107.037 89.4788C109.696 91.7395 109.11 93.8194 108.614 95.7184C108.479 96.261 108.299 96.8035 108.434 96.894C108.66 97.0748 109.336 96.9392 110.012 96.7583C111.995 96.261 114.113 95.7636 116.276 98.16C116.862 98.7025 117.223 99.3355 117.448 99.9685ZM91.3533 99.3807C91.1731 100.014 90.9928 100.647 90.7674 101.28C90.5421 102.094 90.2717 102.862 90.0464 103.676C89.821 104.535 89.5957 105.485 89.5055 106.434C89.7309 108.695 89.5506 110.956 89.3253 112.855C92.48 111.363 96.9418 109.509 101.178 108.559C102.17 108.333 103.206 108.152 104.198 107.926C104.648 107.836 105.099 107.745 105.55 107.655C105.054 107.565 104.468 107.655 103.882 107.745C102.08 108.017 100.322 108.243 98.5643 106.705C96.7165 105.078 97.077 103.495 97.5277 101.777C97.753 100.918 97.9784 99.9685 97.1671 99.2451C96.3108 98.5217 95.2292 98.7477 94.2377 99.019C93.2462 99.2451 92.2998 99.4712 91.3533 99.3807ZM92.0294 83.8271C91.1731 84.2792 90.3618 85.0931 89.6407 86.1782C92.435 89.2528 92.8406 92.3726 92.2547 95.6732C92.5702 95.628 92.8857 95.5375 93.2462 95.4471C95.1841 94.995 97.3023 94.4524 99.691 96.5322C102.125 98.6573 101.629 100.692 101.178 102.546C101.043 103.179 100.863 103.812 101.088 103.993C101.494 104.354 102.395 104.264 103.296 104.128C105.279 103.857 107.307 103.586 109.245 105.666C109.516 105.937 109.696 106.299 109.741 106.66C111.589 106.072 113.211 105.304 114.338 104.128C113.842 103.676 113.572 102.998 113.752 102.32C113.842 101.958 113.887 101.641 113.842 101.325C113.797 101.054 113.662 100.828 113.437 100.556C112.806 99.8329 111.859 100.104 110.958 100.285C109.245 100.692 107.623 101.099 105.865 99.5616C104.063 97.9339 104.468 96.3966 104.919 94.7237C105.144 93.8646 105.415 92.9151 104.513 92.1917C103.612 91.4683 102.53 91.6943 101.539 91.9204C99.736 92.3273 98.0685 92.7343 96.3108 91.1518C94.5081 89.5693 94.6884 87.8963 94.9137 86.1782C95.0039 85.3191 95.1391 84.4601 94.463 83.9627C94.1025 83.6914 93.787 83.601 93.4265 83.5558C93.0659 83.5106 92.6152 83.601 92.2096 83.7366C92.1646 83.7819 92.0744 83.8271 92.0294 83.8271ZM66.5658 75.3268C65.3039 75.1912 64.2223 75.1912 63.411 75.372L62.8251 75.5077C62.8251 76.6832 62.0139 77.7684 60.752 78.0849C60.3013 78.1753 59.8056 78.1753 59.4 78.0849C57.9127 77.7232 56.5156 78.1753 55.2987 79.0796C54.172 79.9386 53.2256 81.2499 52.5045 82.6967C51.7834 84.1888 51.3778 85.8617 51.3778 87.399C51.3778 88.8006 51.6482 90.1118 52.3242 91.1518C53.4059 90.8353 54.5326 90.9709 55.6593 91.0613C56.4705 91.1518 57.2367 91.2422 57.5972 90.8805C57.8226 90.6092 57.6423 89.9762 57.462 89.2528C56.9663 87.399 56.4705 85.4096 58.5437 83.1036C60.8872 80.5717 63.0505 81.1142 65.0335 81.6116C65.6194 81.7472 66.1602 81.8829 66.2503 81.7924C66.4306 81.6116 66.2954 80.9786 66.1151 80.3004C65.6644 78.7631 65.2138 77.0902 66.5658 75.3268ZM59.8056 104.083C61.2928 105.078 62.9603 105.982 64.7631 106.705C66.4757 104.806 68.3685 104.987 70.2163 105.213C71.0276 105.304 71.8388 105.394 72.1543 105.033C72.3796 104.761 72.2444 104.083 72.0191 103.36C71.5233 101.461 70.9825 99.4712 73.1908 97.1652C75.3992 94.8593 77.5174 95.3115 79.4553 95.7184C80.1313 95.854 80.7623 95.9897 80.9426 95.8088C81.3482 95.4019 81.213 94.5428 81.0778 93.729C80.8074 91.83 80.4919 89.8858 82.6552 88.032C82.9706 87.7607 83.3312 87.6251 83.6917 87.5798C82.9706 85.9973 82.0242 84.5505 80.9426 83.2845C80.4919 83.6914 79.8159 83.8723 79.1398 83.7366C78.7793 83.6462 78.4187 83.601 78.1033 83.6462C77.8329 83.6914 77.5625 83.8271 77.292 84.0531C76.571 84.6861 76.7963 85.5904 77.0216 86.4495C77.4723 88.0772 77.8779 89.6597 76.2555 91.3326C74.5879 93.096 72.9655 92.689 71.2078 92.2369C70.3065 92.0108 69.36 91.7395 68.5488 92.5986C67.7826 93.4577 68.0531 94.4976 68.2784 95.4471C68.7291 97.1653 69.1347 98.7477 67.4672 100.466C65.7996 102.184 64.042 102.003 62.2843 101.822C61.383 101.732 60.4816 101.641 59.9858 102.229C59.7154 102.546 59.5802 102.907 59.5352 103.224C59.6704 103.45 59.7154 103.767 59.8056 104.083ZM86.3057 90.9709C86.2606 90.8805 86.2156 90.7901 86.1705 90.6996L86.3057 90.9709ZM86.3958 91.2422C86.3508 91.1518 86.3057 91.0613 86.2606 90.9709L86.3958 91.2422ZM85.0889 101.189V101.054L86.1254 96.894L86.3508 96.2158V94.8593C86.3508 94.7689 86.3508 94.6785 86.3508 94.5428C86.3057 93.8194 86.2156 93.096 85.9451 92.4178C85.9001 92.3273 85.855 92.2369 85.8099 92.1465C85.7649 92.056 85.7198 91.9656 85.6747 91.8752C85.5395 91.6491 85.4494 91.423 85.2691 91.2422V91.2874L85.2241 91.3326V91.3778C84.5931 91.9204 84.7283 92.8699 84.8635 93.8194V97.4365L84.8184 97.4818L84.7734 97.5722L84.6382 97.7078V97.753L84.5931 97.8435V97.8887L84.503 97.9791L84.4579 98.0695C84.2776 98.2956 84.0974 98.5669 83.872 98.793C82.1594 100.556 80.4919 100.195 78.7342 99.7877C77.8329 99.6068 76.8414 99.3807 76.1203 100.149C75.3541 100.963 75.6245 102.003 75.8499 102.953C76.3005 104.671 76.7062 106.253 75.0837 107.971C74.4978 108.559 73.9119 108.921 73.326 109.147C77.247 109.825 80.9876 111.815 83.7819 113.397C83.6917 110.323 83.8269 106.253 84.8184 102.772C84.8635 101.958 84.9536 101.551 85.0889 101.189ZM53.9918 96.2158C53.8566 96.3966 53.7664 96.5775 53.7664 96.7583C53.6763 97.4365 54.0368 98.3408 54.7129 99.3355C55.1185 99.9685 55.6593 100.602 56.2902 101.235C56.4705 100.782 56.7409 100.375 57.0564 99.9685C58.8591 97.6626 60.8421 97.8887 62.8251 98.1147C63.6364 98.2052 64.4476 98.2956 64.7631 97.9339C65.0335 97.6626 64.8532 96.9844 64.6729 96.261C64.1772 94.4072 63.6814 92.4178 65.7996 90.1118C68.1432 87.5346 70.3515 88.1224 72.2895 88.6198C72.8754 88.7554 73.4162 88.8911 73.5063 88.8006C73.6866 88.5745 73.5514 87.9416 73.3711 87.3086C72.8754 85.4096 72.3345 83.3749 74.8133 81.2951C75.6696 80.5716 76.571 80.2099 77.5174 80.0291H77.5625C76.9315 79.5317 76.2555 79.0796 75.5795 78.6727C75.3541 78.6274 75.1738 78.537 74.9485 78.4466C74.0021 77.8588 72.8754 77.1806 71.8839 76.9093C71.2078 76.7284 70.5318 76.7284 69.991 77.1806C69.2699 77.7684 69.5403 78.6727 69.7656 79.5317C70.2163 81.1594 70.6219 82.7419 68.9995 84.4148C67.332 86.1782 65.7095 85.7261 63.9518 85.2739C63.0505 85.0479 62.104 84.7766 61.3379 85.6356C60.5717 86.4495 60.8421 87.4894 61.1125 88.4389C61.5632 90.1571 61.9688 91.7395 60.3464 93.4577C58.6789 95.1758 56.9212 94.995 55.1635 94.8141C54.9833 94.8141 54.7579 94.7689 54.5776 94.7689C54.5326 95.2663 54.3974 95.8088 54.0368 96.2158H53.9918Z" fill="#120900"/>
<path fill-rule="evenodd" clip-rule="evenodd" d="M13.1599 143.736V138.943C13.1599 138.672 13.0698 138.446 12.7543 138.446H6.17435C5.85887 138.446 5.76874 138.672 5.76874 138.943V144.278C5.76874 144.459 5.8138 144.459 5.90394 144.595C9.55447 147.76 13.5655 150.925 17.1259 154.18C18.3428 155.265 18.9287 156.848 18.9287 158.476V164.715C18.9287 168.061 15.9992 171 12.7543 171H6.17435C2.79423 171 0 168.197 0 164.806V158.928C0 158.657 0.225341 158.476 0.450682 158.476H5.31805C5.58846 158.476 5.76874 158.702 5.76874 158.928V164.67C5.76874 164.941 5.85887 165.167 6.17435 165.167H12.7543C13.0698 165.167 13.1599 164.941 13.1599 164.67V158.476C13.1599 158.295 13.1149 158.295 13.0247 158.159C9.3742 155.039 5.27298 151.829 1.80273 148.574C0.630956 147.443 0 145.906 0 144.278V138.898C0 135.552 2.9745 132.613 6.17435 132.613H12.7543C16.1344 132.613 18.9287 135.371 18.9287 138.808V143.691C18.9287 143.962 18.7033 144.143 18.478 144.143H13.6106C13.3853 144.188 13.1599 143.962 13.1599 143.736ZM22.9397 170.457C22.9397 170.729 23.12 170.955 23.3904 170.955H28.2578C28.5282 170.955 28.7085 170.729 28.7085 170.503V158.566C28.7085 158.34 28.7535 158.25 28.8437 158.204L40.0657 148.619C41.2825 147.579 41.8684 145.951 41.8684 144.324V138.943C41.8684 135.597 38.8939 132.658 35.6941 132.658H29.1141C25.734 132.658 22.9397 135.416 22.9397 138.853V170.457ZM28.7085 138.943C28.7085 138.672 28.7986 138.446 29.1141 138.446H35.6941C36.0095 138.446 36.0997 138.672 36.0997 138.943V144.278C36.0997 144.459 36.0546 144.459 35.9645 144.595L28.7085 150.699V138.943ZM51.6482 138.898C51.6482 138.491 51.513 138.401 51.1525 138.401H44.5725C44.3021 138.401 44.1218 138.175 44.1218 137.948V133.111C44.1218 132.839 44.3472 132.658 44.5725 132.658H51.1525C54.3072 132.658 57.417 135.733 57.417 138.898V164.76C57.417 168.197 54.6227 170.955 51.2426 170.955H44.6176C41.4177 170.955 38.4432 168.061 38.4432 164.67V159.29C38.4432 157.662 38.984 156.034 40.2459 154.994L51.513 145.409C51.6031 145.364 51.6482 145.183 51.6482 145.047V138.898ZM51.6031 164.715C51.6031 164.987 51.513 165.213 51.1975 165.213H44.6176C44.3021 165.213 44.212 164.987 44.212 164.715V159.38C44.212 159.199 44.257 159.199 44.3472 159.063L51.6482 153.005L51.6031 164.715ZM76.1203 150.88L79.1398 154.361C80.1764 155.582 81.0327 157.164 81.0327 158.747V170.503C81.0327 170.774 80.8074 170.955 80.582 170.955H75.7147C75.4443 170.955 75.264 170.729 75.264 170.503V158.928C75.264 158.657 75.1738 158.521 75.0837 158.43L71.7486 154.632L67.5573 158.204C67.4672 158.25 67.4221 158.34 67.4221 158.566V170.503C67.4221 170.774 67.1968 170.955 66.9714 170.955H62.104C61.8336 170.955 61.6534 170.729 61.6534 170.457V138.853C61.6534 135.416 64.4476 132.658 67.8277 132.658H74.3626C77.5625 132.658 80.537 135.552 80.537 138.943V144.324C80.537 145.951 79.9961 147.579 78.7342 148.619L76.1203 150.88ZM67.377 138.943C67.377 138.672 67.4672 138.446 67.7826 138.446H74.3626C74.6781 138.446 74.7682 138.672 74.7682 138.943V144.278C74.7682 144.459 74.7232 144.459 74.633 144.595L67.377 150.699V138.943ZM105.955 170.503C105.955 170.774 105.73 170.955 105.505 170.955H100.637C100.367 170.955 100.187 170.729 100.187 170.503V133.111C100.187 132.839 100.412 132.658 100.637 132.658H105.505C105.775 132.658 105.955 132.884 105.955 133.111V170.503ZM123.352 143.736V138.943C123.352 138.672 123.262 138.446 122.946 138.446H116.366C116.051 138.446 115.961 138.672 115.961 138.943V144.278C115.961 144.459 116.006 144.459 116.096 144.595C119.746 147.76 123.757 150.925 127.318 154.18C128.535 155.265 129.121 156.848 129.121 158.476V164.715C129.121 168.061 126.191 171 122.946 171H116.366C112.986 171 110.192 168.242 110.192 164.806V158.928C110.192 158.657 110.417 158.476 110.643 158.476H115.51C115.78 158.476 115.961 158.702 115.961 158.928V164.67C115.961 164.941 116.051 165.167 116.366 165.167H122.946C123.262 165.167 123.352 164.941 123.352 164.67V158.476C123.352 158.295 123.307 158.295 123.217 158.159C119.566 155.039 115.465 151.829 111.995 148.574C110.823 147.443 110.192 145.906 110.192 144.278V138.898C110.192 135.552 113.166 132.613 116.366 132.613H122.946C126.326 132.613 129.121 135.371 129.121 138.808V143.691C129.121 143.962 128.895 144.143 128.67 144.143H123.802C123.577 144.188 123.352 143.962 123.352 143.736ZM138.765 143.736V138.943C138.765 138.672 138.855 138.446 139.171 138.446H145.661C146.066 138.446 146.156 138.536 146.156 138.943V145.092C146.156 145.228 146.111 145.409 146.021 145.454L134.754 155.039C133.537 156.079 132.951 157.707 132.951 159.335V164.715C132.951 168.106 135.926 171 139.126 171H145.706C149.086 171 151.88 168.242 151.88 164.806V138.943C151.88 135.778 148.77 132.704 145.616 132.704H139.126C135.746 132.704 132.951 135.462 132.951 138.853V143.736C132.951 144.007 133.177 144.188 133.402 144.188H138.269C138.585 144.188 138.765 143.962 138.765 143.736ZM146.156 164.715C146.156 164.987 146.066 165.213 145.751 165.213H139.171C138.855 165.213 138.765 164.987 138.765 164.715V159.38C138.765 159.199 138.81 159.199 138.9 159.063L146.201 153.005L146.156 164.715ZM161.84 170.503C161.84 170.774 161.615 170.955 161.389 170.955H156.522C156.252 170.955 156.071 170.729 156.071 170.503V133.111C156.071 132.839 156.297 132.658 156.522 132.658H161.389C161.66 132.658 161.84 132.884 161.84 133.111V136.818L164.139 134.874C165.806 133.472 167.474 132.613 169.186 132.658C172.296 132.704 175 135.145 175 138.672V170.503C175 170.774 174.775 170.955 174.549 170.955H169.682C169.412 170.955 169.231 170.729 169.231 170.503V138.898C169.231 138.491 168.871 138.355 168.555 138.627L161.84 144.55V170.503ZM92.8406 138.401V170.503C92.8406 170.774 92.6152 170.955 92.3899 170.955H87.5225C87.2521 170.955 87.0719 170.729 87.0719 170.503V138.401H83.1059C82.8354 138.401 82.6552 138.175 82.6552 137.948V133.111C82.6552 132.839 82.8805 132.658 83.1059 132.658H96.6714C96.9418 132.658 97.1221 132.884 97.1221 133.111V137.948C97.1221 138.22 96.8967 138.401 96.6714 138.401H92.8406Z" fill="#120900"/>
</svg>
